<svg width="259" height="259" viewBox="0 0 259 259" fill="none" xmlns="http://www.w3.org/2000/svg">
<path d="M28.7778 259H67.2681V191.732H2.44294e-05V230.222C2.44294e-05 238.136 2.82025 244.913 8.46069 250.554C14.1011 256.194 20.8735 259.01 28.7778 259ZM96.0458 259H162.954V191.732H96.0458V259ZM191.732 259H230.222C238.136 259 244.913 256.18 250.554 250.539C256.194 244.899 259.01 238.126 259 230.222V191.732H191.732V259ZM2.44294e-05 162.954H67.2681V96.0458H2.44294e-05V162.954ZM96.0458 162.954H162.954V96.0458H96.0458V162.954ZM191.732 162.954H259V96.0458H191.732V162.954ZM2.44294e-05 67.2681H67.2681V2.44294e-05H28.7778C20.8639 2.44294e-05 14.0867 2.82025 8.4463 8.46069C2.80586 14.1011 -0.00956816 20.8735 2.44294e-05 28.7778V67.2681ZM96.0458 67.2681H162.954V2.44294e-05H96.0458V67.2681ZM191.732 67.2681H259V28.7778C259 20.8639 256.18 14.0867 250.539 8.4463C244.899 2.80586 238.126 -0.00956816 230.222 2.44294e-05H191.732V67.2681Z" fill="white" fill-opacity="0.51"/>
</svg>
