<svg width="311" height="428" viewBox="0 0 311 428" fill="none" xmlns="http://www.w3.org/2000/svg">
<style>
   path {
    stroke-dasharray: 1500;
    stroke-dashoffset: 1500;
    animation: dash 8s cubic-bezier(0.4, 0.0, 0.2, 1) infinite, colorChange 8s ease-in-out alternate infinite;
  }

  @keyframes dash {
    to {
      stroke-dashoffset: 0;
    }
  }
</style><g style="mix-blend-mode:overlay">
<path d="M116.667 38.875C116.667 60.3451 134.072 77.75 155.542 77.75C177.012 77.75 194.417 60.3451 194.417 38.875C194.417 17.4049 177.012 0 155.542 0C134.072 0 116.667 17.4049 116.667 38.875ZM272.125 0C250.655 0 233.25 17.4049 233.25 38.875C233.25 60.3451 250.655 77.75 272.125 77.75C293.595 77.75 311 60.3451 311 38.875C311 17.4049 293.595 0 272.125 0ZM0 38.875C0 60.3451 17.4049 77.75 38.875 77.75C60.3451 77.75 77.75 60.3451 77.75 38.875C77.75 17.4049 60.3451 0 38.875 0C17.4049 0 0 17.4049 0 38.875ZM116.667 155.458C116.667 176.928 134.072 194.333 155.542 194.333C177.012 194.333 194.417 176.928 194.417 155.458C194.417 133.988 177.012 116.583 155.542 116.583C134.072 116.583 116.667 133.988 116.667 155.458ZM233.25 155.458C233.25 176.928 250.655 194.333 272.125 194.333C293.595 194.333 311 176.928 311 155.458C311 133.988 293.595 116.583 272.125 116.583C250.655 116.583 233.25 133.988 233.25 155.458ZM0 155.458C0 176.928 17.4049 194.333 38.875 194.333C60.3451 194.333 77.75 176.928 77.75 155.458C77.75 133.988 60.3451 116.583 38.875 116.583C17.4049 116.583 0 133.988 0 155.458ZM116.667 272.125C116.667 293.595 134.072 311 155.542 311C177.012 311 194.417 293.595 194.417 272.125C194.417 250.655 177.012 233.25 155.542 233.25C134.072 233.25 116.667 250.655 116.667 272.125ZM233.25 272.125C233.25 293.595 250.655 311 272.125 311C293.595 311 311 293.595 311 272.125C311 250.655 293.595 233.25 272.125 233.25C250.655 233.25 233.25 250.655 233.25 272.125ZM0 272.125C0 293.595 17.4049 311 38.875 311C60.3451 311 77.75 293.595 77.75 272.125C77.75 250.655 60.3451 233.25 38.875 233.25C17.4049 233.25 0 250.655 0 272.125Z" fill="white"/>
<rect x="116.613" y="349.887" width="77.75" height="77.75" rx="38.875" fill="white"/>
</g>
</svg>
