<svg width="203" height="55" viewBox="0 0 203 55" fill="none" xmlns="http://www.w3.org/2000/svg">
<style>
 path {
      stroke-dasharray: 1000;
      stroke-dashoffset: 1000;
      animation: writeAnimation 2s linear forwards;
    }
    @keyframes writeAnimation {
      to {
        stroke-dashoffset: 0;
      }
    }
  </style>
<path d="M20.4877 13.6707C22.4679 13.6707 24.0731 12.0655 24.0731 10.0854C24.0731 8.10522 22.4679 6.5 20.4877 6.5C18.5076 6.5 16.9023 8.10522 16.9023 10.0854C16.9023 12.0655 18.5076 13.6707 20.4877 13.6707Z" fill="#5DB1FF"/>
<path d="M6.65861 20.8414C8.63875 20.8414 10.244 19.2362 10.244 17.256C10.244 15.2759 8.63875 13.6707 6.65861 13.6707C4.67847 13.6707 3.07324 15.2759 3.07324 17.256C3.07324 19.2362 4.67847 20.8414 6.65861 20.8414Z" fill="#161617"/>
<path d="M3.58537 36.2074C5.56551 36.2074 7.17073 34.6021 7.17073 32.622C7.17073 30.6418 5.56551 29.0366 3.58537 29.0366C1.60522 29.0366 0 30.6418 0 32.622C0 34.6021 1.60522 36.2074 3.58537 36.2074Z" fill="#161617"/>
<path d="M12.8051 48.5001C14.7852 48.5001 16.3905 46.8949 16.3905 44.9147C16.3905 42.9346 14.7852 41.3293 12.8051 41.3293C10.8249 41.3293 9.21973 42.9346 9.21973 44.9147C9.21973 46.8949 10.8249 48.5001 12.8051 48.5001Z" fill="#161617"/>
<path d="M28.1708 48.5001C30.151 48.5001 31.7562 46.8949 31.7562 44.9147C31.7562 42.9346 30.151 41.3293 28.1708 41.3293C26.1907 41.3293 24.5854 42.9346 24.5854 44.9147C24.5854 46.8949 26.1907 48.5001 28.1708 48.5001Z" fill="#161617"/>
<path d="M37.3905 36.2074C39.3707 36.2074 40.9759 34.6021 40.9759 32.622C40.9759 30.6418 39.3707 29.0366 37.3905 29.0366C35.4104 29.0366 33.8052 30.6418 33.8052 32.622C33.8052 34.6021 35.4104 36.2074 37.3905 36.2074Z" fill="#161617"/>
<path d="M34.3173 20.8414C36.2974 20.8414 37.9027 19.2362 37.9027 17.256C37.9027 15.2759 36.2974 13.6707 34.3173 13.6707C32.3372 13.6707 30.7319 15.2759 30.7319 17.256C30.7319 19.2362 32.3372 20.8414 34.3173 20.8414Z" fill="#161617"/>
<path d="M20.488 39.2806C18.2594 39.2806 16.0808 38.6197 14.2277 37.3816C12.3746 36.1434 10.9303 34.3835 10.0775 32.3245C9.22461 30.2655 9.00146 27.9998 9.43625 25.814C9.87104 23.6281 10.9442 21.6203 12.5201 20.0444C14.096 18.4685 16.1039 17.3953 18.2897 16.9605C20.4755 16.5258 22.7412 16.7489 24.8002 17.6018C26.8592 18.4546 28.6191 19.8989 29.8573 21.752C31.0954 23.605 31.7563 25.7837 31.7563 28.0123C31.7529 30.9998 30.5646 33.864 28.4521 35.9764C26.3397 38.0889 23.4755 39.2772 20.488 39.2806ZM20.488 21.0367C19.1084 21.0367 17.7597 21.4458 16.6126 22.2123C15.4654 22.9788 14.5714 24.0682 14.0434 25.3429C13.5154 26.6175 13.3773 28.0201 13.6464 29.3732C13.9156 30.7263 14.58 31.9693 15.5555 32.9448C16.5311 33.9204 17.774 34.5847 19.1272 34.8539C20.4803 35.123 21.8828 34.9849 23.1575 34.4569C24.4321 33.929 25.5215 33.0349 26.288 31.8878C27.0545 30.7406 27.4636 29.392 27.4636 28.0123C27.4614 26.163 26.7257 24.39 25.418 23.0823C24.1103 21.7746 22.3374 21.039 20.488 21.0367Z" fill="#161617"/>
<path d="M75.8556 16.76L68.4956 30.936V39H64.8476V30.936L57.4556 16.76H61.5196L66.6716 27.672L71.8236 16.76H75.8556ZM90.3986 39.288C88.7346 39.288 87.2306 38.9147 85.8866 38.168C84.5426 37.4 83.4866 36.3333 82.7186 34.968C81.9506 33.5813 81.5666 31.9813 81.5666 30.168C81.5666 28.376 81.9613 26.7867 82.7506 25.4C83.5399 24.0133 84.6173 22.9467 85.9826 22.2C87.3479 21.4533 88.8733 21.08 90.5586 21.08C92.2439 21.08 93.7693 21.4533 95.1346 22.2C96.4999 22.9467 97.5773 24.0133 98.3666 25.4C99.1559 26.7867 99.5506 28.376 99.5506 30.168C99.5506 31.96 99.1453 33.5493 98.3346 34.936C97.5239 36.3227 96.4146 37.4 95.0066 38.168C93.6199 38.9147 92.0839 39.288 90.3986 39.288ZM90.3986 36.12C91.3373 36.12 92.2119 35.896 93.0226 35.448C93.8546 35 94.5266 34.328 95.0386 33.432C95.5506 32.536 95.8066 31.448 95.8066 30.168C95.8066 28.888 95.5613 27.8107 95.0706 26.936C94.5799 26.04 93.9293 25.368 93.1186 24.92C92.3079 24.472 91.4333 24.248 90.4946 24.248C89.5559 24.248 88.6813 24.472 87.8706 24.92C87.0813 25.368 86.4519 26.04 85.9826 26.936C85.5133 27.8107 85.2786 28.888 85.2786 30.168C85.2786 32.0667 85.7586 33.5387 86.7186 34.584C87.6999 35.608 88.9266 36.12 90.3986 36.12ZM123.125 21.368V39H119.477V36.92C118.901 37.6453 118.144 38.2213 117.205 38.648C116.288 39.0533 115.306 39.256 114.261 39.256C112.874 39.256 111.626 38.968 110.517 38.392C109.429 37.816 108.565 36.9627 107.925 35.832C107.306 34.7013 106.997 33.336 106.997 31.736V21.368H110.613V31.192C110.613 32.7707 111.008 33.9867 111.797 34.84C112.586 35.672 113.664 36.088 115.029 36.088C116.394 36.088 117.472 35.672 118.261 34.84C119.072 33.9867 119.477 32.7707 119.477 31.192V21.368H123.125ZM140.834 21.08C142.221 21.08 143.458 21.368 144.546 21.944C145.655 22.52 146.519 23.3733 147.138 24.504C147.757 25.6347 148.066 27 148.066 28.6V39H144.45V29.144C144.45 27.5653 144.055 26.36 143.266 25.528C142.477 24.6747 141.399 24.248 140.034 24.248C138.669 24.248 137.581 24.6747 136.77 25.528C135.981 26.36 135.586 27.5653 135.586 29.144V39H131.938V21.368H135.586V23.384C136.183 22.6587 136.941 22.0933 137.858 21.688C138.797 21.2827 139.789 21.08 140.834 21.08ZM158.575 19.032C157.914 19.032 157.359 18.808 156.911 18.36C156.463 17.912 156.239 17.3573 156.239 16.696C156.239 16.0347 156.463 15.48 156.911 15.032C157.359 14.584 157.914 14.36 158.575 14.36C159.215 14.36 159.759 14.584 160.207 15.032C160.655 15.48 160.879 16.0347 160.879 16.696C160.879 17.3573 160.655 17.912 160.207 18.36C159.759 18.808 159.215 19.032 158.575 19.032ZM160.367 21.368V39H156.719V21.368H160.367ZM173.413 24.344V34.104C173.413 34.7653 173.562 35.2453 173.861 35.544C174.181 35.8213 174.714 35.96 175.461 35.96H177.701V39H174.821C173.178 39 171.92 38.616 171.045 37.848C170.17 37.08 169.733 35.832 169.733 34.104V24.344H167.653V21.368H169.733V16.984H173.413V21.368H177.701V24.344H173.413ZM201.223 29.752C201.223 30.4133 201.18 31.0107 201.095 31.544H187.623C187.73 32.952 188.252 34.0827 189.191 34.936C190.13 35.7893 191.282 36.216 192.647 36.216C194.61 36.216 195.996 35.3947 196.807 33.752H200.743C200.21 35.3733 199.239 36.7067 197.831 37.752C196.444 38.776 194.716 39.288 192.647 39.288C190.962 39.288 189.447 38.9147 188.103 38.168C186.78 37.4 185.735 36.3333 184.967 34.968C184.22 33.5813 183.847 31.9813 183.847 30.168C183.847 28.3547 184.21 26.7653 184.935 25.4C185.682 24.0133 186.716 22.9467 188.039 22.2C189.383 21.4533 190.919 21.08 192.647 21.08C194.311 21.08 195.794 21.4427 197.095 22.168C198.396 22.8933 199.41 23.9173 200.135 25.24C200.86 26.5413 201.223 28.0453 201.223 29.752ZM197.415 28.6C197.394 27.256 196.914 26.1787 195.975 25.368C195.036 24.5573 193.874 24.152 192.487 24.152C191.228 24.152 190.151 24.5573 189.255 25.368C188.359 26.1573 187.826 27.2347 187.655 28.6H197.415Z" fill="#1F1F1F"/>
</svg>
