<svg width="807" height="197" viewBox="0 0 807 197" fill="none" xmlns="http://www.w3.org/2000/svg">
<g style="mix-blend-mode:lighten" opacity="0.2">
<path d="M101.876 21.1759V123.419C101.876 139.248 97.3812 151.44 88.3922 159.996C79.5458 168.552 67.5605 172.83 52.436 172.83C36.5982 172.83 23.8994 168.338 14.3397 159.354C4.77988 150.37 0 137.608 0 121.066H36.3842C36.3842 127.341 37.6683 132.118 40.2366 135.397C42.8049 138.535 46.5147 140.103 51.3659 140.103C55.7891 140.103 59.2135 138.677 61.6391 135.825C64.0647 132.973 65.2775 128.838 65.2775 123.419V21.1759H101.876Z" fill="white"/>
<path d="M185.8 173.043C174.1 173.043 163.542 170.548 154.125 165.557C144.85 160.566 137.502 153.436 132.08 144.167C126.801 134.898 124.161 124.061 124.161 111.655C124.161 99.3912 126.872 88.625 132.294 79.3561C137.716 69.9446 145.135 62.7434 154.553 57.7524C163.97 52.7615 174.528 50.266 186.228 50.266C197.928 50.266 208.487 52.7615 217.904 57.7524C227.321 62.7434 234.74 69.9446 240.162 79.3561C245.584 88.625 248.295 99.3912 248.295 111.655C248.295 123.918 245.513 134.756 239.948 144.167C234.526 153.436 227.036 160.566 217.476 165.557C208.059 170.548 197.5 173.043 185.8 173.043ZM185.8 141.387C192.792 141.387 198.713 138.82 203.564 133.686C208.558 128.553 211.055 121.209 211.055 111.655C211.055 102.101 208.629 94.7568 203.778 89.6232C199.07 84.4897 193.22 81.9229 186.228 81.9229C179.094 81.9229 173.173 84.4897 168.464 89.6232C163.756 94.6142 161.401 101.958 161.401 111.655C161.401 121.209 163.684 128.553 168.25 133.686C172.959 138.82 178.809 141.387 185.8 141.387Z" fill="white"/>
<path d="M286.118 39.5711C279.697 39.5711 274.418 37.7173 270.28 34.0098C266.285 30.1596 264.287 25.4539 264.287 19.8925C264.287 14.1886 266.285 9.48281 270.28 5.77525C274.418 1.92508 279.697 0 286.118 0C292.396 0 297.532 1.92508 301.527 5.77525C305.665 9.48281 307.734 14.1886 307.734 19.8925C307.734 25.4539 305.665 30.1596 301.527 34.0098C297.532 37.7173 292.396 39.5711 286.118 39.5711ZM304.31 51.9772V171.332H267.711V51.9772H304.31Z" fill="white"/>
<path d="M403.6 50.6938C417.583 50.6938 428.713 55.257 436.988 64.3833C445.406 73.367 449.616 85.7731 449.616 101.602V171.332H413.231V106.521C413.231 98.5356 411.163 92.3326 407.025 87.9121C402.887 83.4915 397.322 81.2812 390.331 81.2812C383.339 81.2812 377.775 83.4915 373.637 87.9121C369.499 92.3326 367.43 98.5356 367.43 106.521V171.332H330.832V51.9772H367.43V67.8056C371.14 62.5295 376.134 58.3941 382.412 55.3996C388.69 52.2624 395.753 50.6938 403.6 50.6938Z" fill="white"/>
<path d="M627.415 197L608.153 171.118C602.445 172.259 596.881 172.83 591.459 172.83C577.333 172.83 564.349 169.55 552.506 162.99C540.806 156.431 531.461 147.304 524.469 135.611C517.62 123.776 514.196 110.514 514.196 95.8263C514.196 81.1386 517.62 67.9482 524.469 56.2552C531.461 44.5621 540.806 35.4358 552.506 28.8762C564.349 22.3167 577.333 19.0369 591.459 19.0369C605.584 19.0369 618.497 22.3167 630.197 28.8762C642.04 35.4358 651.314 44.5621 658.021 56.2552C664.869 67.9482 668.294 81.1386 668.294 95.8263C668.294 108.66 665.654 120.425 660.375 131.119C655.238 141.672 648.033 150.442 638.758 157.429L671.718 197H627.415ZM551.65 95.8263C551.65 109.088 555.217 119.712 562.351 127.697C569.628 135.54 579.331 139.461 591.459 139.461C603.444 139.461 613.004 135.469 620.138 127.483C627.415 119.498 631.053 108.945 631.053 95.8263C631.053 82.5646 627.415 72.0123 620.138 64.1694C613.004 56.1839 603.444 52.1911 591.459 52.1911C579.331 52.1911 569.628 56.1126 562.351 63.9555C555.217 71.7984 551.65 82.422 551.65 95.8263Z" fill="white"/>
<path d="M765.693 171.332L734.446 114.649H725.671V171.332H689.072V21.1759H750.497C762.34 21.1759 772.399 23.2436 780.675 27.3789C789.093 31.5143 795.371 37.2182 799.509 44.4908C803.647 51.6207 805.716 59.6062 805.716 68.4473C805.716 78.4292 802.862 87.3417 797.155 95.1846C791.59 103.028 783.315 108.589 772.328 111.869L807 171.332H765.693ZM725.671 88.7676H748.357C755.063 88.7676 760.057 87.1278 763.339 83.848C766.763 80.5682 768.476 75.9338 768.476 69.9446C768.476 64.2407 766.763 59.7488 763.339 56.4691C760.057 53.1893 755.063 51.5494 748.357 51.5494H725.671V88.7676Z" fill="white"/>
</g>
</svg>
