<svg width="1186" height="194" viewBox="0 0 1186 194" fill="none" xmlns="http://www.w3.org/2000/svg">
<style>
   path {
    stroke-dasharray: 1500;
    stroke-dashoffset: 1500;
    animation: dash 8s cubic-bezier(0.4, 0.0, 0.2, 1) infinite, colorChange 8s ease-in-out alternate infinite;
  }

  @keyframes dash {
    to {
      stroke-dashoffset: 0;
    }
  }
</style><g style="mix-blend-mode:lighten" opacity="0.2">
<path d="M0.364257 120.727C4.4925 117.455 6.37449 115.939 6.01024 116.182C17.9093 106.364 27.2586 98.303 34.058 92C40.9789 85.697 46.807 79.0909 51.5423 72.1818C56.2777 65.2727 58.6454 58.5455 58.6454 52C58.6454 47.0303 57.4919 43.1515 55.1849 40.3636C52.8779 37.5758 49.4175 36.1818 44.8036 36.1818C40.1897 36.1818 36.5471 37.9394 33.8759 41.4545C31.3261 44.8485 30.0512 49.697 30.0512 56H0C0.242838 45.697 2.42838 37.0909 6.55662 30.1818C10.8063 23.2727 16.3308 18.1818 23.1303 14.9091C30.0512 11.6364 37.7006 10 46.0785 10C60.5273 10 71.3943 13.697 78.6795 21.0909C86.086 28.4849 89.7893 38.1212 89.7893 50C89.7893 62.9697 85.3575 75.0303 76.4939 86.1818C67.6303 97.2121 56.3384 108 42.618 118.545H91.7927V143.818H0.364257V120.727Z" fill="white"/>
<path d="M188.191 40H131.367V65.0909C133.796 62.4242 137.195 60.2424 141.566 58.5455C145.937 56.8485 150.673 56 155.772 56C164.879 56 172.407 58.0606 178.356 62.1818C184.427 66.303 188.859 71.6364 191.652 78.1818C194.444 84.7273 195.841 91.8182 195.841 99.4545C195.841 113.636 191.834 124.909 183.82 133.273C175.807 141.515 164.515 145.636 149.944 145.636C140.231 145.636 131.792 144 124.628 140.727C117.465 137.333 111.94 132.667 108.055 126.727C104.169 120.788 102.045 113.939 101.68 106.182H132.096C132.824 109.939 134.585 113.091 137.377 115.636C140.17 118.061 143.995 119.273 148.852 119.273C154.558 119.273 158.808 117.455 161.601 113.818C164.393 110.182 165.789 105.333 165.789 99.2727C165.789 93.3333 164.332 88.7879 161.418 85.6364C158.504 82.4848 154.255 80.9091 148.669 80.9091C144.541 80.9091 141.141 81.9394 138.47 84C135.799 85.9394 134.038 88.5455 133.189 91.8182H103.137V12.7273H188.191V40Z" fill="white"/>
<path d="M267.853 48.7273C266.881 44.2424 265.181 40.9091 262.753 38.7273C260.325 36.4242 256.864 35.2727 252.372 35.2727C245.451 35.2727 240.473 38.303 237.437 44.3636C234.402 50.303 232.823 59.7576 232.702 72.7273C235.373 68.4848 239.198 65.1515 244.176 62.7273C249.275 60.303 254.861 59.0909 260.932 59.0909C272.831 59.0909 282.362 62.8485 289.526 70.3636C296.811 77.8788 300.454 88.3636 300.454 101.818C300.454 110.667 298.632 118.424 294.99 125.091C291.469 131.758 286.248 136.97 279.327 140.727C272.527 144.485 264.453 146.364 255.104 146.364C236.405 146.364 223.413 140.545 216.128 128.909C208.843 117.152 205.2 100.303 205.2 78.3636C205.2 55.3333 209.025 38.2424 216.674 27.0909C224.445 15.8182 236.83 10.1818 253.829 10.1818C262.935 10.1818 270.584 12 276.777 15.6364C283.091 19.1515 287.826 23.8182 290.983 29.6364C294.261 35.4545 296.204 41.8182 296.811 48.7273H267.853ZM253.464 83.6364C248.243 83.6364 243.872 85.2121 240.351 88.3636C236.951 91.3939 235.252 95.7576 235.252 101.455C235.252 107.273 236.83 111.818 239.987 115.091C243.265 118.364 247.879 120 253.829 120C259.171 120 263.36 118.424 266.396 115.273C269.552 112 271.131 107.576 271.131 102C271.131 96.303 269.613 91.8182 266.578 88.5455C263.542 85.2727 259.171 83.6364 253.464 83.6364Z" fill="white"/>
<path d="M435.344 59.0909C435.344 66.4848 433.644 73.2727 430.244 79.4545C426.844 85.5151 421.623 90.4242 414.581 94.1818C407.539 97.9394 398.797 99.8182 388.355 99.8182H369.049V145.636H337.905V18H388.355C398.554 18 407.175 19.7576 414.217 23.2727C421.259 26.7879 426.541 31.6364 430.062 37.8182C433.583 44 435.344 51.0909 435.344 59.0909ZM385.987 75.0909C391.937 75.0909 396.368 73.697 399.282 70.9091C402.196 68.1212 403.653 64.1818 403.653 59.0909C403.653 54 402.196 50.0606 399.282 47.2727C396.368 44.4849 391.937 43.0909 385.987 43.0909H369.049V75.0909H385.987Z" fill="white"/>
<path d="M434.437 94.7273C434.437 84.303 436.38 75.1515 440.266 67.2727C444.272 59.3939 449.676 53.3333 456.475 49.0909C463.274 44.8485 470.863 42.7273 479.241 42.7273C486.405 42.7273 492.658 44.1818 498 47.0909C503.464 50 507.653 53.8182 510.567 58.5455V44.1818H541.711V145.636H510.567V131.273C507.532 136 503.282 139.818 497.818 142.727C492.476 145.636 486.223 147.091 479.059 147.091C470.802 147.091 463.274 144.97 456.475 140.727C449.676 136.364 444.272 130.242 440.266 122.364C436.38 114.364 434.437 105.152 434.437 94.7273ZM510.567 94.9091C510.567 87.1515 508.382 81.0303 504.01 76.5454C499.761 72.0606 494.54 69.8182 488.347 69.8182C482.155 69.8182 476.873 72.0606 472.502 76.5454C468.253 80.9091 466.128 86.9697 466.128 94.7273C466.128 102.485 468.253 108.667 472.502 113.273C476.873 117.758 482.155 120 488.347 120C494.54 120 499.761 117.758 504.01 113.273C508.382 108.788 510.567 102.667 510.567 94.9091Z" fill="white"/>
<path d="M584.459 61.0909C588.101 55.5151 592.654 51.1515 598.118 48C603.582 44.7273 609.653 43.0909 616.331 43.0909V76H607.771C600 76 594.172 77.697 590.287 81.0909C586.401 84.3636 584.459 90.1818 584.459 98.5454V145.636H553.315V44.1818H584.459V61.0909Z" fill="white"/>
<path d="M676.931 119.273V145.636H661.086C649.794 145.636 640.991 142.909 634.678 137.455C628.364 131.879 625.207 122.848 625.207 110.364V70H612.822V44.1818H625.207V19.4546H656.351V44.1818H676.749V70H656.351V110.727C656.351 113.758 657.079 115.939 658.536 117.273C659.993 118.606 662.422 119.273 665.822 119.273H676.931Z" fill="white"/>
<path d="M699.015 33.6364C693.551 33.6364 689.058 32.0606 685.537 28.9091C682.137 25.6364 680.437 21.6364 680.437 16.9091C680.437 12.0606 682.137 8.06061 685.537 4.90909C689.058 1.63636 693.551 0 699.015 0C704.357 0 708.728 1.63636 712.128 4.90909C715.649 8.06061 717.409 12.0606 717.409 16.9091C717.409 21.6364 715.649 25.6364 712.128 28.9091C708.728 32.0606 704.357 33.6364 699.015 33.6364ZM714.495 44.1818V145.636H683.351V44.1818H714.495Z" fill="white"/>
<path d="M719.945 94.9091C719.945 84.3636 722.07 75.1515 726.32 67.2727C730.691 59.3939 736.701 53.3333 744.35 49.0909C752.121 44.8485 760.985 42.7273 770.941 42.7273C783.69 42.7273 794.314 46.0606 802.813 52.7273C811.434 59.3939 817.08 68.7879 819.751 80.9091H786.604C783.811 73.1515 778.408 69.2727 770.395 69.2727C764.688 69.2727 760.135 71.5152 756.735 76C753.335 80.3636 751.635 86.6667 751.635 94.9091C751.635 103.152 753.335 109.515 756.735 114C760.135 118.364 764.688 120.545 770.395 120.545C778.408 120.545 783.811 116.667 786.604 108.909H819.751C817.08 120.788 811.434 130.121 802.813 136.909C794.193 143.697 783.569 147.091 770.941 147.091C760.985 147.091 752.121 144.97 744.35 140.727C736.701 136.485 730.691 130.424 726.32 122.545C722.07 114.667 719.945 105.455 719.945 94.9091Z" fill="white"/>
<path d="M841.146 33.6364C835.682 33.6364 831.189 32.0606 827.668 28.9091C824.269 25.6364 822.569 21.6364 822.569 16.9091C822.569 12.0606 824.269 8.06061 827.668 4.90909C831.189 1.63636 835.682 0 841.146 0C846.488 0 850.859 1.63636 854.259 4.90909C857.78 8.06061 859.541 12.0606 859.541 16.9091C859.541 21.6364 857.78 25.6364 854.259 28.9091C850.859 32.0606 846.488 33.6364 841.146 33.6364ZM856.627 44.1818V145.636H825.483V44.1818H856.627Z" fill="white"/>
<path d="M899.413 58.5455C902.448 53.8182 906.637 50 911.98 47.0909C917.322 44.1818 923.575 42.7273 930.739 42.7273C939.117 42.7273 946.705 44.8485 953.505 49.0909C960.304 53.3333 965.647 59.3939 969.532 67.2727C973.539 75.1515 975.542 84.303 975.542 94.7273C975.542 105.152 973.539 114.364 969.532 122.364C965.647 130.242 960.304 136.364 953.505 140.727C946.705 144.97 939.117 147.091 930.739 147.091C923.696 147.091 917.443 145.636 911.98 142.727C906.637 139.818 902.448 136.061 899.413 131.455V194H868.269V44.1818H899.413V58.5455ZM943.852 94.7273C943.852 86.9697 941.666 80.9091 937.295 76.5454C933.046 72.0606 927.764 69.8182 921.45 69.8182C915.258 69.8182 909.976 72.0606 905.605 76.5454C901.355 81.0303 899.231 87.1515 899.231 94.9091C899.231 102.667 901.355 108.788 905.605 113.273C909.976 117.758 915.258 120 921.45 120C927.643 120 932.924 117.758 937.295 113.273C941.666 108.667 943.852 102.485 943.852 94.7273Z" fill="white"/>
<path d="M974.761 94.7273C974.761 84.303 976.704 75.1515 980.589 67.2727C984.596 59.3939 989.999 53.3333 996.799 49.0909C1003.6 44.8485 1011.19 42.7273 1019.56 42.7273C1026.73 42.7273 1032.98 44.1818 1038.32 47.0909C1043.79 50 1047.98 53.8182 1050.89 58.5455V44.1818H1082.03V145.636H1050.89V131.273C1047.86 136 1043.61 139.818 1038.14 142.727C1032.8 145.636 1026.55 147.091 1019.38 147.091C1011.13 147.091 1003.6 144.97 996.799 140.727C989.999 136.364 984.596 130.242 980.589 122.364C976.704 114.364 974.761 105.152 974.761 94.7273ZM1050.89 94.9091C1050.89 87.1515 1048.71 81.0303 1044.33 76.5454C1040.08 72.0606 1034.86 69.8182 1028.67 69.8182C1022.48 69.8182 1017.2 72.0606 1012.83 76.5454C1008.58 80.9091 1006.45 86.9697 1006.45 94.7273C1006.45 102.485 1008.58 108.667 1012.83 113.273C1017.2 117.758 1022.48 120 1028.67 120C1034.86 120 1040.08 117.758 1044.33 113.273C1048.71 108.788 1050.89 102.667 1050.89 94.9091Z" fill="white"/>
<path d="M1155.56 43.0909C1167.46 43.0909 1176.93 46.9697 1183.97 54.7273C1191.14 62.3636 1194.72 72.9091 1194.72 86.3636V145.636H1163.76V90.5455C1163.76 83.7576 1162 78.4848 1158.48 74.7273C1154.95 70.9697 1150.22 69.0909 1144.27 69.0909C1138.32 69.0909 1133.59 70.9697 1130.06 74.7273C1126.54 78.4848 1124.78 83.7576 1124.78 90.5455V145.636H1093.64V44.1818H1124.78V57.6364C1127.94 53.1515 1132.19 49.6364 1137.53 47.0909C1142.87 44.4242 1148.88 43.0909 1155.56 43.0909Z" fill="white"/>
<path d="M1262.08 119.273V145.636H1246.23C1234.94 145.636 1226.14 142.909 1219.82 137.455C1213.51 131.879 1210.35 122.848 1210.35 110.364V70H1197.97V44.1818H1210.35V19.4546H1241.5V44.1818H1261.89V70H1241.5V110.727C1241.5 113.758 1242.22 115.939 1243.68 117.273C1245.14 118.606 1247.57 119.273 1250.97 119.273H1262.08Z" fill="white"/>
<path d="M1309.84 147.091C1300.98 147.091 1293.08 145.576 1286.16 142.545C1279.24 139.515 1273.78 135.394 1269.77 130.182C1265.76 124.848 1263.52 118.909 1263.03 112.364H1293.81C1294.18 115.879 1295.82 118.727 1298.73 120.909C1301.64 123.091 1305.23 124.182 1309.47 124.182C1313.36 124.182 1316.33 123.455 1318.4 122C1320.58 120.424 1321.68 118.424 1321.68 116C1321.68 113.091 1320.16 110.97 1317.12 109.636C1314.09 108.182 1309.17 106.606 1302.37 104.909C1295.09 103.212 1289.02 101.455 1284.16 99.6364C1279.3 97.697 1275.11 94.7273 1271.59 90.7273C1268.07 86.6061 1266.31 81.0909 1266.31 74.1818C1266.31 68.3636 1267.89 63.0909 1271.05 58.3636C1274.32 53.5151 1279.06 49.697 1285.25 46.9091C1291.57 44.1212 1299.03 42.7273 1307.65 42.7273C1320.4 42.7273 1330.42 45.8788 1337.7 52.1818C1345.11 58.4848 1349.36 66.8485 1350.45 77.2727H1321.68C1321.19 73.7576 1319.61 70.9697 1316.94 68.9091C1314.39 66.8485 1310.99 65.8182 1306.74 65.8182C1303.1 65.8182 1300.31 66.5455 1298.36 68C1296.42 69.3333 1295.45 71.2121 1295.45 73.6364C1295.45 76.5455 1296.97 78.7273 1300 80.1818C1303.16 81.6364 1308.02 83.0909 1314.57 84.5455C1322.1 86.4848 1328.23 88.4242 1332.97 90.3636C1337.7 92.1818 1341.83 95.2121 1345.35 99.4545C1349 103.576 1350.88 109.152 1351 116.182C1351 122.121 1349.3 127.455 1345.9 132.182C1342.62 136.788 1337.83 140.424 1331.51 143.091C1325.32 145.758 1318.1 147.091 1309.84 147.091Z" fill="white"/>
</g>
</svg>
