<svg width="1294" height="158" viewBox="0 0 1294 158" fill="none" xmlns="http://www.w3.org/2000/svg">
<style>
   path {
    stroke-dasharray: 1500;
    stroke-dashoffset: 1500;
    animation: dash 8s cubic-bezier(0.4, 0.0, 0.2, 1) infinite, colorChange 8s ease-in-out alternate infinite;
  }

  @keyframes dash {
    to {
      stroke-dashoffset: 0;
    }
  }
</style><g style="mix-blend-mode:overlay" opacity="0.2">
<path d="M40.4759 119.648C32.8929 119.648 26.0976 118.414 20.0902 115.946C14.0829 113.478 9.25727 109.825 5.61345 104.988C2.06811 100.151 0.196963 94.3261 0 87.5145H26.8855C27.2794 91.3646 28.6089 94.3261 30.874 96.3992C33.1391 98.3736 36.0935 99.3608 39.7373 99.3608C43.4796 99.3608 46.4341 98.5217 48.6007 96.8435C50.7673 95.0665 51.8506 92.6479 51.8506 89.5876C51.8506 87.0209 50.9642 84.8985 49.1916 83.2202C47.5174 81.542 45.4 80.1599 42.8395 79.074C40.3775 77.9881 36.8321 76.7541 32.2035 75.3721C25.5067 73.299 20.041 71.2259 15.8063 69.1528C11.5716 67.0797 7.92777 64.0194 4.87484 59.9719C1.82191 55.9244 0.295445 50.6429 0.295445 44.1275C0.295445 34.453 3.79154 26.901 10.7837 21.4714C17.7759 15.9431 26.8855 13.179 38.1124 13.179C49.5362 13.179 58.7443 15.9431 65.7365 21.4714C72.7287 26.901 76.471 34.5023 76.9634 44.2755H49.6347C49.4378 40.9191 48.2067 38.303 45.9417 36.4274C43.6766 34.453 40.7714 33.4658 37.226 33.4658C34.1731 33.4658 31.7111 34.3049 29.8399 35.9831C27.9688 37.5626 27.0332 39.8825 27.0332 42.9428C27.0332 46.2993 28.6089 48.9153 31.7603 50.791C34.9117 52.6667 39.8358 54.6904 46.5326 56.8622C53.2293 59.1328 58.6458 61.3046 62.782 63.3777C67.0167 65.4508 70.6605 68.4617 73.7135 72.4105C76.7664 76.3593 78.2929 81.4433 78.2929 87.6626C78.2929 93.5858 76.7664 98.9659 73.7135 103.803C70.759 108.64 66.4258 112.49 60.7139 115.353C55.002 118.216 48.256 119.648 40.4759 119.648Z" fill="white"/>
<path d="M178.04 35.9831L126.337 157.852H99.1563L118.065 115.798L84.5318 35.9831H112.747L131.803 87.6626L150.711 35.9831H178.04Z" fill="white"/>
<path d="M237.4 35.0947C247.051 35.0947 254.733 38.2537 260.445 44.5717C266.255 50.791 269.161 59.3796 269.161 70.3374V118.611H244.048V73.7432C244.048 68.2149 242.62 63.9207 239.764 60.8604C236.908 57.8001 233.067 56.2699 228.241 56.2699C223.416 56.2699 219.575 57.8001 216.719 60.8604C213.863 63.9207 212.435 68.2149 212.435 73.7432V118.611H187.175V35.9831H212.435V46.941C214.996 43.2883 218.443 40.4255 222.776 38.3524C227.109 36.1806 231.984 35.0947 237.4 35.0947Z" fill="white"/>
<path d="M281.692 77.2971C281.692 68.7085 283.415 61.2059 286.862 54.7891C290.407 48.3724 295.282 43.4364 301.486 39.9813C307.789 36.5261 314.978 34.7985 323.054 34.7985C333.394 34.7985 342.012 37.5133 348.905 42.9428C355.897 48.3724 360.477 56.0231 362.643 65.895H335.758C333.493 59.577 329.11 56.418 322.611 56.418C317.982 56.418 314.289 58.2443 311.531 61.8969C308.774 65.4508 307.395 70.5842 307.395 77.2971C307.395 84.01 308.774 89.1927 311.531 92.8454C314.289 96.3992 317.982 98.1762 322.611 98.1762C329.11 98.1762 333.493 95.0172 335.758 88.6992H362.643C360.477 98.3736 355.897 105.975 348.905 111.503C341.913 117.032 333.296 119.796 323.054 119.796C314.978 119.796 307.789 118.068 301.486 114.613C295.282 111.158 290.407 106.222 286.862 99.8051C283.415 93.3883 281.692 85.8857 281.692 77.2971Z" fill="white"/>
<path d="M426.824 35.0947C436.278 35.0947 443.862 38.2537 449.573 44.5717C455.285 50.791 458.141 59.3796 458.141 70.3374V118.611H433.029V73.7432C433.029 68.2149 431.601 63.9207 428.745 60.8604C425.889 57.8001 422.048 56.2699 417.222 56.2699C412.397 56.2699 408.556 57.8001 405.7 60.8604C402.844 63.9207 401.416 68.2149 401.416 73.7432V118.611H376.155V9.03281H401.416V47.089C403.976 43.4364 407.473 40.5242 411.904 38.3524C416.336 36.1806 421.309 35.0947 426.824 35.0947Z" fill="white"/>
<path d="M500.955 49.7544C503.91 45.2134 507.603 41.6595 512.035 39.0928C516.466 36.4274 521.39 35.0947 526.807 35.0947V61.8969H519.864C513.561 61.8969 508.834 63.279 505.683 66.0431C502.531 68.7085 500.955 73.447 500.955 80.2587V118.611H475.695V35.9831H500.955V49.7544Z" fill="white"/>
<path d="M576.402 119.796C568.327 119.796 561.039 118.068 554.539 114.613C548.138 111.158 543.066 106.222 539.324 99.8051C535.68 93.3883 533.858 85.8857 533.858 77.2971C533.858 68.8072 535.729 61.354 539.472 54.9372C543.214 48.4217 548.335 43.4364 554.835 39.9813C561.335 36.5261 568.622 34.7985 576.698 34.7985C584.773 34.7985 592.061 36.5261 598.561 39.9813C605.061 43.4364 610.182 48.4217 613.924 54.9372C617.666 61.354 619.537 68.8072 619.537 77.2971C619.537 85.7869 617.617 93.2896 613.776 99.8051C610.034 106.222 604.864 111.158 598.265 114.613C591.766 118.068 584.478 119.796 576.402 119.796ZM576.402 97.88C581.228 97.88 585.315 96.1031 588.663 92.5492C592.11 88.9953 593.834 83.9113 593.834 77.2971C593.834 70.6829 592.159 65.5989 588.811 62.045C585.561 58.4911 581.523 56.7142 576.698 56.7142C571.774 56.7142 567.687 58.4911 564.437 62.045C561.187 65.5002 559.562 70.5842 559.562 77.2971C559.562 83.9113 561.138 88.9953 564.289 92.5492C567.539 96.1031 571.577 97.88 576.402 97.88Z" fill="white"/>
<path d="M683.164 35.0947C692.815 35.0947 700.497 38.2537 706.209 44.5717C712.019 50.791 714.924 59.3796 714.924 70.3374V118.611H689.812V73.7432C689.812 68.2149 688.384 63.9207 685.528 60.8604C682.672 57.8001 678.831 56.2699 674.005 56.2699C669.18 56.2699 665.339 57.8001 662.483 60.8604C659.627 63.9207 658.199 68.2149 658.199 73.7432V118.611H632.939V35.9831H658.199V46.941C660.76 43.2883 664.206 40.4255 668.54 38.3524C672.873 36.1806 677.748 35.0947 683.164 35.0947Z" fill="white"/>
<path d="M745.182 27.3946C740.75 27.3946 737.107 26.1112 734.251 23.5445C731.493 20.8791 730.114 17.6214 730.114 13.7713C730.114 9.82256 731.493 6.56483 734.251 3.99813C737.107 1.33271 740.75 0 745.182 0C749.515 0 753.061 1.33271 755.818 3.99813C758.674 6.56483 760.102 9.82256 760.102 13.7713C760.102 17.6214 758.674 20.8791 755.818 23.5445C753.061 26.1112 749.515 27.3946 745.182 27.3946ZM757.739 35.9831V118.611H732.478V35.9831H757.739Z" fill="white"/>
<path d="M799.68 97.732H835.429V118.611H771.465V98.4723L805.737 56.8622H771.761V35.9831H834.69V56.1218L799.68 97.732Z" fill="white"/>
<path d="M927.031 75.9644C927.031 78.3336 926.883 80.8016 926.588 83.3683H869.419C869.813 88.5017 871.438 92.4505 874.294 95.2146C877.248 97.88 880.843 99.2127 885.078 99.2127C891.38 99.2127 895.763 96.5473 898.225 91.2165H925.11C923.732 96.646 921.22 101.533 917.576 105.876C914.031 110.22 909.55 113.626 904.134 116.094C898.717 118.562 892.661 119.796 885.964 119.796C877.888 119.796 870.699 118.068 864.396 114.613C858.094 111.158 853.17 106.222 849.624 99.8051C846.079 93.3883 844.306 85.8857 844.306 77.2971C844.306 68.7085 846.03 61.2059 849.476 54.7891C853.022 48.3724 857.946 43.4364 864.249 39.9813C870.551 36.5261 877.79 34.7985 885.964 34.7985C893.941 34.7985 901.032 36.4767 907.236 39.8332C913.44 43.1896 918.266 47.9775 921.713 54.1968C925.258 60.4161 927.031 67.672 927.031 75.9644ZM901.179 69.3008C901.179 64.9572 899.702 61.502 896.748 58.9353C893.793 56.3686 890.1 55.0853 885.668 55.0853C881.434 55.0853 877.839 56.3193 874.885 58.7873C872.029 61.2552 870.256 64.7598 869.567 69.3008H901.179Z" fill="white"/>
<path d="M935.334 77.149C935.334 68.6592 936.91 61.2059 940.061 54.7891C943.311 48.3724 947.694 43.4364 953.209 39.9813C958.724 36.5261 964.879 34.7985 971.674 34.7985C977.09 34.7985 982.015 35.9338 986.446 38.2043C990.976 40.4748 994.522 43.5351 997.082 47.3852V9.03281H1022.34V118.611H997.082V106.765C994.719 110.714 991.321 113.873 986.889 116.242C982.556 118.611 977.484 119.796 971.674 119.796C964.879 119.796 958.724 118.068 953.209 114.613C947.694 111.059 943.311 106.074 940.061 99.657C936.91 93.1415 935.334 85.6389 935.334 77.149ZM997.082 77.2971C997.082 70.9791 995.31 65.9938 991.764 62.3411C988.317 58.6885 984.083 56.8622 979.06 56.8622C974.038 56.8622 969.754 58.6885 966.208 62.3411C962.761 65.895 961.038 70.831 961.038 77.149C961.038 83.467 962.761 88.5017 966.208 92.253C969.754 95.9057 974.038 97.732 979.06 97.732C984.083 97.732 988.317 95.9057 991.764 92.253C995.31 88.6004 997.082 83.6151 997.082 77.2971Z" fill="white"/>
<path d="M1097.18 47.6813C1099.64 43.8313 1103.04 40.7217 1107.38 38.3524C1111.71 35.9831 1116.78 34.7985 1122.59 34.7985C1129.39 34.7985 1135.54 36.5261 1141.06 39.9813C1146.57 43.4364 1150.9 48.3724 1154.06 54.7891C1157.31 61.2059 1158.93 68.6592 1158.93 77.149C1158.93 85.6389 1157.31 93.1415 1154.06 99.657C1150.9 106.074 1146.57 111.059 1141.06 114.613C1135.54 118.068 1129.39 119.796 1122.59 119.796C1116.88 119.796 1111.81 118.611 1107.38 116.242C1103.04 113.873 1099.64 110.812 1097.18 107.061V158H1071.92V35.9831H1097.18V47.6813ZM1133.23 77.149C1133.23 70.831 1131.45 65.895 1127.91 62.3411C1124.46 58.6885 1120.18 56.8622 1115.06 56.8622C1110.03 56.8622 1105.75 58.6885 1102.21 62.3411C1098.76 65.9938 1097.03 70.9791 1097.03 77.2971C1097.03 83.6151 1098.76 88.6004 1102.21 92.253C1105.75 95.9057 1110.03 97.732 1115.06 97.732C1120.08 97.732 1124.36 95.9057 1127.91 92.253C1131.45 88.5017 1133.23 83.467 1133.23 77.149Z" fill="white"/>
<path d="M1197.44 9.03281V118.611H1172.18V9.03281H1197.44Z" fill="white"/>
<path d="M1210.73 77.149C1210.73 68.6592 1212.3 61.2059 1215.45 54.7891C1218.7 48.3724 1223.09 43.4364 1228.6 39.9813C1234.12 36.5261 1240.27 34.7985 1247.07 34.7985C1252.88 34.7985 1257.95 35.9831 1262.28 38.3524C1266.71 40.7217 1270.11 43.8313 1272.47 47.6813V35.9831H1297.74V118.611H1272.47V106.913C1270.01 110.763 1266.57 113.873 1262.13 116.242C1257.8 118.611 1252.73 119.796 1246.92 119.796C1240.22 119.796 1234.12 118.068 1228.6 114.613C1223.09 111.059 1218.7 106.074 1215.45 99.657C1212.3 93.1415 1210.73 85.6389 1210.73 77.149ZM1272.47 77.2971C1272.47 70.9791 1270.7 65.9938 1267.16 62.3411C1263.71 58.6885 1259.48 56.8622 1254.45 56.8622C1249.43 56.8622 1245.15 58.6885 1241.6 62.3411C1238.15 65.895 1236.43 70.831 1236.43 77.149C1236.43 83.467 1238.15 88.5017 1241.6 92.253C1245.15 95.9057 1249.43 97.732 1254.45 97.732C1259.48 97.732 1263.71 95.9057 1267.16 92.253C1270.7 88.6004 1272.47 83.6151 1272.47 77.2971Z" fill="white"/>
<path d="M1400.21 35.9831L1348.51 157.852H1321.33L1340.24 115.798L1306.7 35.9831H1334.92L1353.97 87.6626L1372.88 35.9831H1400.21Z" fill="white"/>
<path d="M1434.61 47.6813C1436.97 43.8313 1440.37 40.7217 1444.8 38.3524C1449.23 35.9831 1454.3 34.7985 1460.02 34.7985C1466.81 34.7985 1472.97 36.5261 1478.48 39.9813C1484 43.4364 1488.33 48.3724 1491.48 54.7891C1494.73 61.2059 1496.36 68.6592 1496.36 77.149C1496.36 85.6389 1494.73 93.1415 1491.48 99.657C1488.33 106.074 1484 111.059 1478.48 114.613C1472.97 118.068 1466.81 119.796 1460.02 119.796C1454.2 119.796 1449.13 118.66 1444.8 116.39C1440.47 114.021 1437.07 110.911 1434.61 107.061V118.611H1409.35V9.03281H1434.61V47.6813ZM1470.65 77.149C1470.65 70.831 1468.88 65.895 1465.33 62.3411C1461.89 58.6885 1457.6 56.8622 1452.48 56.8622C1447.46 56.8622 1443.18 58.6885 1439.63 62.3411C1436.18 65.9938 1434.46 70.9791 1434.46 77.2971C1434.46 83.6151 1436.18 88.6004 1439.63 92.253C1443.18 95.9057 1447.46 97.732 1452.48 97.732C1457.5 97.732 1461.79 95.9057 1465.33 92.253C1468.88 88.5017 1470.65 83.467 1470.65 77.149Z" fill="white"/>
<path d="M1504.58 77.149C1504.58 68.6592 1506.16 61.2059 1509.31 54.7891C1512.56 48.3724 1516.94 43.4364 1522.46 39.9813C1527.97 36.5261 1534.13 34.7985 1540.92 34.7985C1546.73 34.7985 1551.81 35.9831 1556.14 38.3524C1560.57 40.7217 1563.97 43.8313 1566.33 47.6813V35.9831H1591.59V118.611H1566.33V106.913C1563.87 110.763 1560.42 113.873 1555.99 116.242C1551.66 118.611 1546.59 119.796 1540.78 119.796C1534.08 119.796 1527.97 118.068 1522.46 114.613C1516.94 111.059 1512.56 106.074 1509.31 99.657C1506.16 93.1415 1504.58 85.6389 1504.58 77.149ZM1566.33 77.2971C1566.33 70.9791 1564.56 65.9938 1561.01 62.3411C1557.57 58.6885 1553.33 56.8622 1548.31 56.8622C1543.29 56.8622 1539 58.6885 1535.46 62.3411C1532.01 65.895 1530.29 70.831 1530.29 77.149C1530.29 83.467 1532.01 88.5017 1535.46 92.253C1539 95.9057 1543.29 97.732 1548.31 97.732C1553.33 97.732 1557.57 95.9057 1561.01 92.253C1564.56 88.6004 1566.33 83.6151 1566.33 77.2971Z" fill="white"/>
<path d="M1604.85 77.2971C1604.85 68.7085 1606.57 61.2059 1610.02 54.7891C1613.56 48.3724 1618.44 43.4364 1624.64 39.9813C1630.94 36.5261 1638.13 34.7985 1646.21 34.7985C1656.55 34.7985 1665.17 37.5133 1672.06 42.9428C1679.05 48.3724 1683.63 56.0231 1685.8 65.895H1658.91C1656.65 59.577 1652.26 56.418 1645.76 56.418C1641.14 56.418 1637.44 58.2443 1634.69 61.8969C1631.93 65.4508 1630.55 70.5842 1630.55 77.2971C1630.55 84.01 1631.93 89.1927 1634.69 92.8454C1637.44 96.3992 1641.14 98.1762 1645.76 98.1762C1652.26 98.1762 1656.65 95.0172 1658.91 88.6992H1685.8C1683.63 98.3736 1679.05 105.975 1672.06 111.503C1665.07 117.032 1656.45 119.796 1646.21 119.796C1638.13 119.796 1630.94 118.068 1624.64 114.613C1618.44 111.158 1613.56 106.222 1610.02 99.8051C1606.57 93.3883 1604.85 85.8857 1604.85 77.2971Z" fill="white"/>
<path d="M1749.68 118.611L1724.57 83.9606V118.611H1699.31V9.03281H1724.57V69.597L1749.54 35.9831H1780.7L1746.43 77.4452L1781 118.611H1749.68Z" fill="white"/>
</g>
</svg>
