<svg width="2267" height="2265" viewBox="0 0 2267 2265" fill="none" xmlns="http://www.w3.org/2000/svg">
<path fill-rule="evenodd" clip-rule="evenodd" d="M993.851 124.274C1027.99 124.274 1055.67 96.6682 1055.67 62.6146C1055.67 28.561 1027.99 0.955078 993.851 0.955078C959.709 0.955078 932.032 28.561 932.032 62.6146C932.032 96.6682 959.709 124.274 993.851 124.274ZM780.705 132.075C780.705 166.129 753.028 193.735 718.886 193.735C684.744 193.735 657.067 166.129 657.067 132.075C657.067 98.0216 684.744 70.4156 718.886 70.4156C753.028 70.4156 780.705 98.0216 780.705 132.075ZM475.603 339.36C509.745 339.36 537.423 311.754 537.423 277.701C537.423 243.647 509.745 216.041 475.603 216.041C441.461 216.041 413.784 243.647 413.784 277.701C413.784 311.754 441.461 339.36 475.603 339.36ZM338.006 477.617C338.006 511.67 310.328 539.276 276.186 539.276C242.045 539.276 214.367 511.67 214.367 477.617C214.367 443.563 242.045 415.957 276.186 415.957C310.328 415.957 338.006 443.563 338.006 477.617ZM134.118 783.041C168.259 783.041 195.937 755.435 195.937 721.382C195.937 687.328 168.259 659.722 134.118 659.722C99.9757 659.722 72.2982 687.328 72.2982 721.382C72.2982 755.435 99.9757 783.041 134.118 783.041ZM123.639 992.794C123.639 1026.85 95.9611 1054.45 61.8193 1054.45C27.6774 1054.45 0 1026.85 0 992.794C0 958.74 27.6774 931.134 61.8193 931.134C95.9611 931.134 123.639 958.74 123.639 992.794ZM62.312 1337.28C96.4538 1337.28 124.131 1309.68 124.131 1275.63C124.131 1241.57 96.4538 1213.97 62.312 1213.97C28.1702 1213.97 0.492756 1241.57 0.492756 1275.63C0.492756 1309.68 28.1702 1337.28 62.312 1337.28ZM192.221 1547.18C192.221 1581.23 164.544 1608.84 130.402 1608.84C96.2599 1608.84 68.5825 1581.23 68.5825 1547.18C68.5825 1513.12 96.2599 1485.52 130.402 1485.52C164.544 1485.52 192.221 1513.12 192.221 1547.18ZM274.175 1857.04C308.317 1857.04 335.994 1829.43 335.994 1795.38C335.994 1761.33 308.317 1733.72 274.175 1733.72C240.033 1733.72 212.356 1761.33 212.356 1795.38C212.356 1829.43 240.033 1857.04 274.175 1857.04ZM534.439 1992.03C534.439 2026.08 506.762 2053.69 472.62 2053.69C438.478 2053.69 410.801 2026.08 410.801 1992.03C410.801 1957.98 438.478 1930.37 472.62 1930.37C506.762 1930.37 534.439 1957.98 534.439 1992.03ZM716.729 2193.41C750.871 2193.41 778.548 2165.8 778.548 2131.75C778.548 2097.69 750.871 2070.09 716.729 2070.09C682.587 2070.09 654.91 2097.69 654.91 2131.75C654.91 2165.8 682.587 2193.41 716.729 2193.41ZM1543.22 2193.41C1577.36 2193.41 1605.04 2165.8 1605.04 2131.75C1605.04 2097.69 1577.36 2070.09 1543.22 2070.09C1509.08 2070.09 1481.4 2097.69 1481.4 2131.75C1481.4 2165.8 1509.08 2193.41 1543.22 2193.41ZM1273.43 2264.55C1307.57 2264.55 1335.25 2236.94 1335.25 2202.89C1335.25 2168.84 1307.57 2141.23 1273.43 2141.23C1239.29 2141.23 1211.61 2168.84 1211.61 2202.89C1211.61 2236.94 1239.29 2264.55 1273.43 2264.55ZM1048.34 2202.89C1048.34 2236.94 1020.66 2264.55 986.521 2264.55C952.379 2264.55 924.702 2236.94 924.702 2202.89C924.702 2168.84 952.379 2141.23 986.521 2141.23C1020.66 2141.23 1048.34 2168.84 1048.34 2202.89ZM1338.76 62.6146C1338.76 96.6682 1311.08 124.274 1276.94 124.274C1242.8 124.274 1215.12 96.6682 1215.12 62.6146C1215.12 28.561 1242.8 0.955078 1276.94 0.955078C1311.08 0.955078 1338.76 28.561 1338.76 62.6146ZM1546.86 198.314C1581 198.314 1608.68 170.708 1608.68 136.655C1608.68 102.601 1581 74.995 1546.86 74.995C1512.72 74.995 1485.04 102.601 1485.04 136.655C1485.04 170.708 1512.72 198.314 1546.86 198.314ZM1854.05 276.975C1854.05 311.028 1826.38 338.634 1792.23 338.634C1758.09 338.634 1730.41 311.028 1730.41 276.975C1730.41 242.921 1758.09 215.315 1792.23 215.315C1826.38 215.315 1854.05 242.921 1854.05 276.975ZM1992.11 536.276C2026.25 536.276 2053.93 508.67 2053.93 474.617C2053.93 440.563 2026.25 412.957 1992.11 412.957C1957.96 412.957 1930.29 440.563 1930.29 474.617C1930.29 508.67 1957.96 536.276 1992.11 536.276ZM2196.93 720.623C2196.93 754.676 2169.26 782.282 2135.11 782.282C2100.97 782.282 2073.29 754.676 2073.29 720.623C2073.29 686.569 2100.97 658.963 2135.11 658.963C2169.26 658.963 2196.93 686.569 2196.93 720.623ZM2205.18 1056.04C2239.32 1056.04 2267 1028.43 2267 994.379C2267 960.326 2239.32 932.72 2205.18 932.72C2171.04 932.72 2143.36 960.326 2143.36 994.379C2143.36 1028.43 2171.04 1056.04 2205.18 1056.04ZM2267 1274.14C2267 1308.19 2239.32 1335.8 2205.18 1335.8C2171.04 1335.8 2143.36 1308.19 2143.36 1274.14C2143.36 1240.08 2171.04 1212.48 2205.18 1212.48C2239.32 1212.48 2267 1240.08 2267 1274.14ZM2134.5 1609.55C2168.64 1609.55 2196.32 1581.94 2196.32 1547.89C2196.32 1513.84 2168.64 1486.23 2134.5 1486.23C2100.36 1486.23 2072.68 1513.84 2072.68 1547.89C2072.68 1581.94 2100.36 1609.55 2134.5 1609.55ZM2053.26 1793.13C2053.26 1827.18 2025.58 1854.79 1991.44 1854.79C1957.3 1854.79 1929.62 1827.18 1929.62 1793.13C1929.62 1759.08 1957.3 1731.47 1991.44 1731.47C2025.58 1731.47 2053.26 1759.08 2053.26 1793.13ZM1792.26 2053.69C1826.4 2053.69 1854.08 2026.08 1854.08 1992.03C1854.08 1957.98 1826.4 1930.37 1792.26 1930.37C1758.12 1930.37 1730.44 1957.98 1730.44 1992.03C1730.44 2026.08 1758.12 2053.69 1792.26 2053.69Z" fill="url(#paint0_linear_278_3295)" fill-opacity="0.31"/>
<path fill-rule="evenodd" clip-rule="evenodd" d="M1128.18 253.778C1157.22 257.847 1184.09 237.403 1188.2 208.114C1192.3 178.825 1172.08 151.783 1143.04 147.713C1114 143.644 1087.13 164.088 1083.03 193.377C1078.92 222.666 1099.14 249.708 1128.18 253.778ZM945.936 235.079C941.832 264.367 914.962 284.812 885.92 280.742C856.878 276.673 836.663 249.631 840.767 220.342C844.872 191.053 871.742 170.609 900.783 174.678C929.825 178.747 950.041 205.79 945.936 235.079ZM661.425 376.994C690.467 381.064 717.337 360.62 721.441 331.331C725.546 302.042 705.33 275 676.288 270.93C647.247 266.861 620.376 287.305 616.272 316.594C612.168 345.883 632.383 372.925 661.425 376.994ZM527.721 479.505C523.616 508.794 496.746 529.238 467.705 525.169C438.663 521.099 418.447 494.057 422.552 464.768C426.656 435.479 453.526 415.035 482.568 419.104C511.61 423.174 531.825 450.216 527.721 479.505ZM317.476 717.893C346.517 721.963 373.388 701.519 377.492 672.23C381.596 642.941 361.381 615.899 332.339 611.829C303.297 607.76 276.427 628.204 272.323 657.493C268.218 686.782 288.434 713.824 317.476 717.893ZM283.284 897.049C279.18 926.338 252.31 946.782 223.268 942.712C194.227 938.643 174.011 911.601 178.115 882.312C182.22 853.023 209.09 832.579 238.131 836.648C267.173 840.718 287.389 867.76 283.284 897.049ZM189.594 1186.03C218.636 1190.1 245.506 1169.65 249.61 1140.36C253.715 1111.08 233.499 1084.03 204.458 1079.96C175.416 1075.89 148.546 1096.34 144.441 1125.63C140.337 1154.92 160.553 1181.96 189.594 1186.03ZM274.797 1382.04C270.692 1411.33 243.822 1431.77 214.78 1427.7C185.739 1423.63 165.523 1396.59 169.627 1367.3C173.732 1338.01 200.602 1317.57 229.644 1321.64C258.685 1325.71 278.901 1352.75 274.797 1382.04ZM307.166 1658.31C336.207 1662.38 363.077 1641.94 367.182 1612.65C371.286 1583.36 351.071 1556.32 322.029 1552.25C292.987 1548.18 266.117 1568.63 262.013 1597.91C257.908 1627.2 278.124 1654.25 307.166 1658.31ZM512.278 1805.44C508.174 1834.73 481.303 1855.17 452.262 1851.1C423.22 1847.03 403.004 1819.99 407.109 1790.7C411.213 1761.41 438.083 1740.97 467.125 1745.04C496.167 1749.11 516.382 1776.15 512.278 1805.44ZM643.066 2000.36C672.108 2004.43 698.978 1983.99 703.082 1954.7C707.187 1925.41 686.971 1898.37 657.929 1894.3C628.888 1890.23 602.018 1910.67 597.913 1939.96C593.809 1969.25 614.024 1996.29 643.066 2000.36ZM924.003 2048.05C919.899 2077.34 893.029 2097.78 863.987 2093.71C834.945 2089.64 814.73 2062.6 818.834 2033.31C822.939 2004.02 849.809 1983.58 878.85 1987.65C907.892 1991.72 928.108 2018.76 924.003 2048.05ZM1346.1 2098.88C1375.14 2102.95 1402.01 2082.5 1406.11 2053.21C1410.22 2023.92 1390 1996.88 1360.96 1992.81C1331.92 1988.74 1305.05 2009.19 1300.94 2038.48C1296.84 2067.76 1317.06 2094.81 1346.1 2098.88ZM1108.04 2127.91C1137.08 2131.98 1163.95 2111.53 1168.06 2082.25C1172.16 2052.96 1151.94 2025.91 1122.9 2021.85C1093.86 2017.78 1066.99 2038.22 1062.89 2067.51C1058.78 2096.8 1079 2123.84 1108.04 2127.91ZM1429 241.855C1424.9 271.144 1398.03 291.589 1368.99 287.519C1339.94 283.45 1319.73 256.407 1323.83 227.119C1327.94 197.83 1354.81 177.385 1383.85 181.455C1412.89 185.524 1433.11 212.567 1429 241.855ZM1589.66 383.373C1618.7 387.443 1645.57 366.998 1649.67 337.71C1653.78 308.421 1633.56 281.378 1604.52 277.309C1575.48 273.239 1548.61 293.684 1544.5 322.973C1540.4 352.262 1560.61 379.304 1589.66 383.373ZM1841.48 487.642C1837.37 516.93 1810.5 537.375 1781.46 533.305C1752.42 529.236 1732.2 502.194 1736.31 472.905C1740.41 443.616 1767.28 423.171 1796.32 427.241C1825.36 431.31 1845.58 458.353 1841.48 487.642ZM1927.66 727.117C1956.7 731.186 1983.57 710.742 1987.68 681.453C1991.78 652.164 1971.56 625.122 1942.52 621.052C1913.48 616.983 1886.61 637.427 1882.51 666.716C1878.4 696.005 1898.62 723.047 1927.66 727.117ZM2079.66 910.082C2075.56 939.371 2048.69 959.815 2019.65 955.746C1990.6 951.676 1970.39 924.634 1974.49 895.345C1978.6 866.056 2005.47 845.612 2034.51 849.682C2063.55 853.751 2083.77 880.793 2079.66 910.082ZM2046.26 1199.55C2075.3 1203.62 2102.17 1183.18 2106.28 1153.89C2110.38 1124.6 2090.17 1097.56 2061.12 1093.49C2032.08 1089.42 2005.21 1109.86 2001.11 1139.15C1997 1168.44 2017.22 1195.48 2046.26 1199.55ZM2072.55 1394.5C2068.44 1423.79 2041.57 1444.23 2012.53 1440.16C1983.49 1436.09 1963.28 1409.05 1967.38 1379.76C1971.48 1350.47 1998.35 1330.03 2027.4 1334.1C2056.44 1338.17 2076.65 1365.21 2072.55 1394.5ZM1919.42 1667.19C1948.46 1671.26 1975.33 1650.82 1979.43 1621.53C1983.54 1592.24 1963.32 1565.2 1934.28 1561.13C1905.24 1557.06 1878.37 1577.5 1874.27 1606.79C1870.16 1636.08 1890.38 1663.12 1919.42 1667.19ZM1828.19 1815.4C1824.09 1844.69 1797.22 1865.13 1768.18 1861.06C1739.13 1856.99 1718.92 1829.95 1723.02 1800.66C1727.13 1771.37 1754 1750.93 1783.04 1755C1812.08 1759.07 1832.3 1786.11 1828.19 1815.4ZM1574.77 2008.39C1603.81 2012.46 1630.68 1992.02 1634.79 1962.73C1638.89 1933.44 1618.68 1906.4 1589.63 1902.33C1560.59 1898.26 1533.72 1918.7 1529.62 1947.99C1525.51 1977.28 1545.73 2004.32 1574.77 2008.39Z" fill="url(#paint1_linear_278_3295)" fill-opacity="0.31"/>
<path fill-rule="evenodd" clip-rule="evenodd" d="M1028.78 389.417C1054.18 389.708 1075 369.299 1075.3 343.832C1075.59 318.364 1055.24 297.482 1029.84 297.191C1004.45 296.899 983.621 317.308 983.328 342.776C983.036 368.243 1003.39 389.125 1028.78 389.417ZM870.167 393.431C869.874 418.899 849.049 439.308 823.653 439.016C798.256 438.725 777.905 417.843 778.198 392.375C778.49 366.908 799.315 346.499 824.712 346.79C850.108 347.082 870.459 367.964 870.167 393.431ZM641.434 545.849C666.83 546.141 687.655 525.732 687.948 500.264C688.24 474.796 667.889 453.915 642.493 453.623C617.096 453.331 596.271 473.74 595.979 499.208C595.686 524.675 616.037 545.557 641.434 545.849ZM537.898 648.07C537.605 673.538 516.78 693.947 491.384 693.655C465.987 693.363 445.636 672.482 445.929 647.014C446.221 621.546 467.046 601.137 492.443 601.429C517.839 601.721 538.19 622.603 537.898 648.07ZM383.609 874.743C409.006 875.035 429.831 854.626 430.123 829.158C430.416 803.691 410.065 782.809 384.668 782.517C359.272 782.225 338.447 802.634 338.154 828.102C337.862 853.57 358.213 874.452 383.609 874.743ZM374.014 1031.52C373.721 1056.99 352.896 1077.4 327.5 1077.11C302.103 1076.81 281.753 1055.93 282.045 1030.47C282.337 1005 303.162 984.589 328.559 984.88C353.955 985.172 374.306 1006.05 374.014 1031.52ZM325.435 1288.63C350.831 1288.92 371.656 1268.51 371.949 1243.05C372.241 1217.58 351.89 1196.7 326.494 1196.41C301.097 1196.11 280.272 1216.52 279.98 1241.99C279.687 1267.46 300.038 1288.34 325.435 1288.63ZM420.262 1446.71C419.97 1472.18 399.145 1492.59 373.748 1492.3C348.352 1492.01 328.001 1471.12 328.293 1445.66C328.586 1420.19 349.411 1399.78 374.807 1400.07C400.204 1400.36 420.555 1421.24 420.262 1446.71ZM478.569 1679.15C503.966 1679.44 524.791 1659.03 525.083 1633.56C525.376 1608.1 505.025 1587.21 479.629 1586.92C454.232 1586.63 433.407 1607.04 433.115 1632.51C432.822 1657.97 453.173 1678.86 478.569 1679.15ZM671.003 1782.32C670.711 1807.79 649.886 1828.2 624.489 1827.91C599.093 1827.62 578.742 1806.74 579.034 1781.27C579.327 1755.8 600.152 1735.39 625.548 1735.68C650.945 1735.97 671.296 1756.86 671.003 1782.32ZM804.872 1934.48C830.269 1934.78 851.094 1914.37 851.386 1888.9C851.679 1863.43 831.328 1842.55 805.931 1842.26C780.535 1841.97 759.71 1862.38 759.417 1887.84C759.125 1913.31 779.476 1934.19 804.872 1934.48ZM1419.67 1941.54C1445.06 1941.84 1465.89 1921.43 1466.18 1895.96C1466.47 1870.49 1446.12 1849.61 1420.72 1849.32C1395.33 1849.03 1374.5 1869.44 1374.21 1894.9C1373.92 1920.37 1394.27 1941.25 1419.67 1941.54ZM1218.37 1992.45C1243.77 1992.74 1264.59 1972.33 1264.88 1946.86C1265.18 1921.39 1244.82 1900.51 1219.43 1900.22C1194.03 1899.93 1173.21 1920.34 1172.91 1945.8C1172.62 1971.27 1192.97 1992.15 1218.37 1992.45ZM1051.46 1944.41C1051.17 1969.88 1030.35 1990.29 1004.95 1990C979.554 1989.7 959.203 1968.82 959.495 1943.35C959.788 1917.89 980.613 1897.48 1006.01 1897.77C1031.41 1898.06 1051.76 1918.94 1051.46 1944.41ZM1285.87 346.252C1285.58 371.719 1264.75 392.128 1239.36 391.837C1213.96 391.545 1193.61 370.663 1193.9 345.196C1194.19 319.728 1215.02 299.319 1240.42 299.611C1265.81 299.902 1286.16 320.784 1285.87 346.252ZM1439.5 449.516C1464.9 449.807 1485.72 429.398 1486.02 403.931C1486.31 378.463 1465.96 357.581 1440.56 357.289C1415.17 356.998 1394.34 377.407 1394.05 402.874C1393.76 428.342 1414.11 449.224 1439.5 449.516ZM1667.33 510.966C1667.04 536.433 1646.22 556.842 1620.82 556.551C1595.42 556.259 1575.07 535.377 1575.37 509.909C1575.66 484.442 1596.48 464.033 1621.88 464.324C1647.28 464.616 1667.63 485.498 1667.33 510.966ZM1767.8 706.068C1793.2 706.359 1814.02 685.95 1814.32 660.483C1814.61 635.015 1794.26 614.133 1768.86 613.841C1743.47 613.55 1722.64 633.959 1722.35 659.426C1722.06 684.894 1742.41 705.776 1767.8 706.068ZM1918.58 845.685C1918.29 871.152 1897.46 891.561 1872.06 891.27C1846.67 890.978 1826.32 870.096 1826.61 844.629C1826.9 819.161 1847.73 798.752 1873.12 799.044C1898.52 799.335 1918.87 820.217 1918.58 845.685ZM1921.83 1096.6C1947.23 1096.89 1968.05 1076.48 1968.35 1051.02C1968.64 1025.55 1948.29 1004.67 1922.89 1004.38C1897.49 1004.08 1876.67 1024.49 1876.38 1049.96C1876.08 1075.43 1896.44 1096.31 1921.83 1096.6ZM1965.94 1260.23C1965.65 1285.7 1944.83 1306.11 1919.43 1305.82C1894.03 1305.53 1873.68 1284.65 1873.97 1259.18C1874.27 1233.71 1895.09 1213.3 1920.49 1213.59C1945.89 1213.89 1966.24 1234.77 1965.94 1260.23ZM1864.5 1509.95C1889.9 1510.24 1910.72 1489.83 1911.02 1464.37C1911.31 1438.9 1890.96 1418.02 1865.56 1417.73C1840.16 1417.43 1819.34 1437.84 1819.05 1463.31C1818.75 1488.78 1839.1 1509.66 1864.5 1509.95ZM1802.49 1646.55C1802.2 1672.02 1781.37 1692.42 1755.98 1692.13C1730.58 1691.84 1710.23 1670.96 1710.52 1645.49C1710.82 1620.02 1731.64 1599.61 1757.04 1599.91C1782.43 1600.2 1802.78 1621.08 1802.49 1646.55ZM1606.11 1839.18C1631.5 1839.47 1652.33 1819.06 1652.62 1793.6C1652.91 1768.13 1632.56 1747.25 1607.17 1746.95C1581.77 1746.66 1560.94 1767.07 1560.65 1792.54C1560.36 1818.01 1580.71 1838.89 1606.11 1839.18Z" fill="url(#paint2_linear_278_3295)" fill-opacity="0.31"/>
<path fill-rule="evenodd" clip-rule="evenodd" d="M1126.45 489.59C1147.35 492.217 1166.44 476.705 1169.09 454.942C1171.74 433.18 1156.94 413.409 1136.04 410.782C1115.14 408.155 1096.05 423.668 1093.4 445.43C1090.76 467.192 1105.55 486.963 1126.45 489.59ZM995.376 478.174C992.728 499.936 973.638 515.449 952.737 512.822C931.837 510.195 917.041 490.424 919.689 468.661C922.337 446.899 941.427 431.387 962.327 434.014C983.228 436.641 998.024 456.412 995.376 478.174ZM792.475 587.165C813.375 589.792 832.465 574.28 835.113 552.518C837.761 530.756 822.965 510.984 802.065 508.357C781.164 505.731 762.074 521.243 759.426 543.005C756.778 564.767 771.574 584.538 792.475 587.165ZM697.494 664.933C694.846 686.695 675.756 702.207 654.856 699.58C633.955 696.953 619.159 677.182 621.807 655.42C624.455 633.658 643.545 618.146 664.446 620.773C685.346 623.399 700.142 643.171 697.494 664.933ZM548.929 844.43C569.83 847.056 588.919 831.544 591.568 809.782C594.216 788.02 579.419 768.249 558.519 765.622C537.619 762.995 518.529 778.507 515.881 800.269C513.232 822.031 528.029 841.803 548.929 844.43ZM526.208 977.665C523.56 999.427 504.47 1014.94 483.57 1012.31C462.669 1009.69 447.873 989.914 450.521 968.152C453.169 946.39 472.259 930.878 493.159 933.505C514.06 936.132 528.856 955.903 526.208 977.665ZM461.873 1193.1C482.773 1195.72 501.863 1180.21 504.511 1158.45C507.159 1136.69 492.363 1116.92 471.463 1114.29C450.562 1111.66 431.472 1127.17 428.824 1148.94C426.176 1170.7 440.972 1190.47 461.873 1193.1ZM525.083 1337.23C522.434 1358.99 503.345 1374.5 482.444 1371.87C461.544 1369.25 446.747 1349.48 449.396 1327.71C452.044 1305.95 471.134 1290.44 492.034 1293.07C512.934 1295.69 527.731 1315.46 525.083 1337.23ZM551.15 1541.55C572.05 1544.18 591.14 1528.66 593.788 1506.9C596.436 1485.14 581.64 1465.37 560.74 1462.74C539.839 1460.11 520.749 1475.63 518.101 1497.39C515.453 1519.15 530.249 1538.92 551.15 1541.55ZM699.976 1647.84C697.328 1669.6 678.238 1685.11 657.338 1682.49C636.437 1679.86 621.641 1660.09 624.289 1638.33C626.937 1616.56 646.027 1601.05 666.928 1603.68C687.828 1606.31 702.624 1626.08 699.976 1647.84ZM795.91 1790.55C816.811 1793.18 835.901 1777.67 838.549 1755.91C841.197 1734.14 826.401 1714.37 805.5 1711.75C784.6 1709.12 765.51 1724.63 762.862 1746.39C760.214 1768.16 775.01 1787.93 795.91 1790.55ZM1301.86 1854.15C1322.76 1856.77 1341.85 1841.26 1344.5 1819.5C1347.15 1797.74 1332.35 1777.96 1311.45 1775.34C1290.55 1772.71 1271.46 1788.22 1268.81 1809.99C1266.16 1831.75 1280.96 1851.52 1301.86 1854.15ZM1131.18 1878.85C1152.08 1881.48 1171.17 1865.97 1173.81 1844.21C1176.46 1822.44 1161.67 1802.67 1140.77 1800.05C1119.87 1797.42 1100.78 1812.93 1098.13 1834.69C1095.48 1856.45 1110.28 1876.23 1131.18 1878.85ZM998.172 1822.13C995.524 1843.89 976.434 1859.41 955.533 1856.78C934.633 1854.15 919.837 1834.38 922.485 1812.62C925.133 1790.86 944.223 1775.34 965.123 1777.97C986.024 1780.6 1000.82 1800.37 998.172 1822.13ZM1342.39 476.723C1339.75 498.485 1320.66 513.998 1299.76 511.371C1278.86 508.744 1264.06 488.973 1266.71 467.21C1269.36 445.448 1288.45 429.936 1309.35 432.563C1330.25 435.19 1345.04 454.961 1342.39 476.723ZM1459.23 579.454C1480.13 582.081 1499.22 566.569 1501.87 544.806C1504.52 523.044 1489.72 503.273 1468.82 500.646C1447.92 498.019 1428.83 513.531 1426.19 535.294C1423.54 557.056 1438.33 576.827 1459.23 579.454ZM1641.18 653.357C1638.53 675.119 1619.44 690.631 1598.54 688.004C1577.64 685.377 1562.84 665.606 1565.49 643.844C1568.14 622.082 1587.23 606.57 1608.13 609.197C1629.03 611.824 1643.82 631.595 1641.18 653.357ZM1705.52 829.685C1726.42 832.312 1745.51 816.8 1748.16 795.038C1750.81 773.275 1736.01 753.504 1715.11 750.877C1694.21 748.251 1675.12 763.763 1672.47 785.525C1669.82 807.287 1684.62 827.058 1705.52 829.685ZM1816.57 963.255C1813.92 985.017 1794.83 1000.53 1773.93 997.902C1753.03 995.275 1738.23 975.504 1740.88 953.742C1743.53 931.98 1762.62 916.468 1783.52 919.094C1804.42 921.721 1819.22 941.492 1816.57 963.255ZM1795.54 1178.24C1816.44 1180.86 1835.53 1165.35 1838.17 1143.59C1840.82 1121.83 1826.03 1102.06 1805.13 1099.43C1784.23 1096.8 1765.14 1112.32 1762.49 1134.08C1759.84 1155.84 1774.64 1175.61 1795.54 1178.24ZM1816.41 1322.37C1813.76 1344.13 1794.67 1359.64 1773.77 1357.02C1752.87 1354.39 1738.08 1334.62 1740.73 1312.86C1743.37 1291.1 1762.46 1275.58 1783.36 1278.21C1804.26 1280.84 1819.06 1300.61 1816.41 1322.37ZM1709.22 1526.52C1730.12 1529.15 1749.21 1513.64 1751.86 1491.88C1754.5 1470.11 1739.71 1450.34 1718.81 1447.72C1697.91 1445.09 1678.82 1460.6 1676.17 1482.36C1673.52 1504.13 1688.32 1523.9 1709.22 1526.52ZM1645.22 1637.59C1642.57 1659.35 1623.48 1674.86 1602.58 1672.24C1581.68 1669.61 1566.88 1649.84 1569.53 1628.08C1572.18 1606.31 1591.27 1590.8 1612.17 1593.43C1633.07 1596.06 1647.87 1615.83 1645.22 1637.59ZM1465.17 1784.02C1486.07 1786.65 1505.16 1771.13 1507.81 1749.37C1510.46 1727.61 1495.66 1707.84 1474.76 1705.21C1453.86 1702.58 1434.77 1718.1 1432.12 1739.86C1429.48 1761.62 1444.27 1781.39 1465.17 1784.02Z" fill="url(#paint3_linear_278_3295)" fill-opacity="0.31"/>
<defs>
<linearGradient id="paint0_linear_278_3295" x1="1133.5" y1="0.955078" x2="1133.5" y2="2264.55" gradientUnits="userSpaceOnUse">
<stop stop-color="white"/>
<stop offset="1" stop-color="white"/>
</linearGradient>
<linearGradient id="paint1_linear_278_3295" x1="1125.36" y1="147.197" x2="1125.36" y2="2128.43" gradientUnits="userSpaceOnUse">
<stop stop-color="white"/>
<stop offset="1" stop-color="white"/>
</linearGradient>
<linearGradient id="paint2_linear_278_3295" x1="1124.16" y1="297.187" x2="1124.16" y2="1992.45" gradientUnits="userSpaceOnUse">
<stop stop-color="white"/>
<stop offset="1" stop-color="white"/>
</linearGradient>
<linearGradient id="paint3_linear_278_3295" x1="1133.5" y1="410.492" x2="1133.5" y2="1879.14" gradientUnits="userSpaceOnUse">
<stop stop-color="white"/>
<stop offset="1" stop-color="white"/>
</linearGradient>
</defs>
</svg>
