<svg width="752" height="752" viewBox="0 0 752 752" fill="none" xmlns="http://www.w3.org/2000/svg">
<g clip-path="url(#clip0_243_6302)">
<g filter="url(#filter0_b_243_6302)">
<path d="M52.0995 517C40.9648 521.862 27.9307 516.796 23.7288 505.396C-2.64308 433.843 -6.63667 355.761 12.577 281.604C31.7907 207.447 73.1979 141.128 130.997 91.3835C140.206 83.4577 154.061 85.358 161.433 95.0159L220.574 172.49C227.946 182.148 226.011 195.882 217.089 204.13C184.32 234.423 160.792 273.59 149.522 317.086C138.253 360.582 139.801 406.246 153.737 448.64C157.532 460.182 152.555 473.129 141.42 477.991L52.0995 517Z" fill="url(#paint0_linear_243_6302)" fill-opacity="0.6"/>
</g>
<g filter="url(#filter1_b_243_6302)">
<path d="M162.945 93.8683C155.625 84.1709 157.518 70.3163 167.628 63.5769C210.723 34.8485 259.372 15.3107 310.534 6.28725C361.696 -2.73619 414.094 -1.01994 464.417 11.2323C476.222 14.1066 482.741 26.4775 479.18 38.0942L450.611 131.28C447.05 142.897 434.756 149.318 422.856 146.865C394.013 140.919 364.238 140.466 335.105 145.604C305.973 150.742 278.149 161.353 253.08 176.808C242.737 183.184 228.989 181.356 221.668 171.659L162.945 93.8683Z" fill="url(#paint1_linear_243_6302)" fill-opacity="0.6"/>
</g>
<g filter="url(#filter2_b_243_6302)">
<path d="M477.781 37.0475C481.289 25.4146 493.591 18.7662 504.998 22.95C550.623 39.684 592.631 65.1512 628.637 97.9978C670.068 135.794 702.497 182.4 723.536 234.385C744.576 286.371 753.691 342.412 750.211 398.385C747.186 447.028 734.716 494.544 713.573 538.301C708.287 549.241 694.824 553.02 684.212 547.102L599.09 499.625C588.479 493.707 584.779 480.34 589.673 469.219C600.737 444.081 607.305 417.133 609.016 389.606C611.184 354.743 605.507 319.838 592.402 287.459C579.297 255.079 559.099 226.051 533.294 202.509C512.918 183.921 489.456 169.128 464.023 158.76C452.771 154.174 446.133 141.997 449.641 130.364L477.781 37.0475Z" fill="url(#paint2_linear_243_6302)" fill-opacity="0.6"/>
</g>
<g filter="url(#filter3_b_243_6302)">
<path d="M257.599 708.899C253.539 720.351 240.933 726.404 229.739 721.679C188.522 704.284 150.693 679.631 118.078 648.838C85.463 618.044 58.6796 581.692 38.9477 541.541C33.5886 530.637 38.9079 517.705 50.1078 512.994L139.952 475.206C151.152 470.496 163.959 475.818 169.702 486.525C181.55 508.616 196.901 528.7 215.197 545.975C233.494 563.25 254.425 577.422 277.16 587.983C288.179 593.102 294.228 605.583 290.168 617.035L257.599 708.899Z" fill="url(#paint3_linear_243_6302)" fill-opacity="0.6"/>
</g>
<g filter="url(#filter4_b_243_6302)">
<path d="M685.065 546.102C695.715 551.952 699.659 565.369 693.195 575.657C649.711 644.869 584.669 698.17 507.801 727.122C430.933 756.075 346.889 758.927 268.55 735.6C256.905 732.132 251.018 719.447 255.162 708.025L288.404 616.402C292.548 604.98 305.151 599.189 316.912 602.241C363.394 614.303 412.664 611.787 457.937 594.735C503.21 577.683 541.897 547.07 568.873 507.34C575.698 497.288 588.99 493.326 599.639 499.176L685.065 546.102Z" fill="url(#paint4_linear_243_6302)" fill-opacity="0.6"/>
</g>
<g clip-path="url(#clip1_243_6302)">
<path d="M539.224 664.204C539.104 663.66 538.633 663.866 537.85 662.997C535.309 660.193 533.89 658.698 533.651 658.595C533.033 658.331 532.724 658.455 532.439 659.121C532.147 659.784 532.538 659.825 533.45 661.127C534.66 662.835 536.505 665.374 536.727 665.625C537.118 666.071 537.373 666.34 537.878 666.097C538.287 665.895 539.143 665.146 539.24 664.9C539.303 664.754 539.296 664.514 539.224 664.204Z" fill="white"/>
<path d="M528.011 672.048C527.992 671.908 527.487 671.808 527.404 671.617C525.734 667.791 524.729 665.604 524.52 665.375C524.284 665.102 524.328 664.791 524.005 664.865C523.882 664.895 523.565 665.046 523.298 665.211L522.802 665.507L522.775 665.955C522.751 666.305 523.099 666.632 523.488 667.906C524.416 670.987 525.108 673.097 525.26 673.294C525.459 673.543 525.523 673.779 525.867 673.746C526.202 673.718 527.234 673.29 527.569 673.04C527.867 672.823 528.058 672.396 528.011 672.048Z" fill="white"/>
<path d="M537.623 648.763C537.988 647.581 538.07 646.821 537.943 645.962C537.711 644.484 536.856 643.543 535.059 642.765C532.442 641.643 529.18 641.623 524.531 642.691C518.939 643.978 513.835 646.107 509.034 649.144C505.361 651.476 503.29 653.337 501.626 655.824C500.011 658.233 499.866 660.608 501.236 662.238C502.715 663.996 505.415 664.686 509.57 664.349C513.588 664.037 517.46 662.964 522.503 660.777C526.02 659.248 528.313 658.008 530.724 656.309C533.417 654.41 535.435 652.51 536.635 650.719C536.973 650.224 537.491 649.198 537.623 648.763ZM532.375 649.319C530.988 651.326 528.088 653.579 524.168 655.681C522.831 656.396 518.749 658.142 517.25 658.632C513.829 659.75 510.329 660.359 508.164 660.218C506.918 660.135 505.492 659.59 505.277 659.12C505.075 658.656 505.509 657.57 506.287 656.599C507.765 654.746 510.009 653.033 513.435 651.113C517.231 648.99 521.135 647.513 525.141 646.678C528.096 646.057 529.816 645.99 531.533 646.406C532.557 646.657 533.1 647.078 533.094 647.625C533.095 647.97 532.75 648.775 532.375 649.319Z" fill="white"/>
<path d="M522.637 651.118C522.674 650.757 522.655 650.158 522.588 649.801L522.542 649.56L521.558 649.893C519.735 650.514 514.992 652.609 514.433 653.034C514.376 653.075 514.461 653.243 514.658 653.516C515.48 654.607 516.46 655.019 518.05 654.921C519.01 654.865 520.225 654.343 521.053 653.64C521.365 653.371 521.744 653 521.893 652.818C522.212 652.421 522.59 651.558 522.637 651.118Z" fill="white"/>
<path d="M530.187 639.451C529.918 639.328 529.625 639.186 529.535 639.139C529.445 639.092 528.965 638.854 528.465 638.607C525.412 637.109 523.178 635.093 521.638 632.431C520.938 631.22 520.329 629.835 519.19 626.86C518.058 623.905 517.802 623.385 517.144 622.774C516.832 622.493 516.624 622.371 516 622.104C515.123 621.728 514.555 621.624 513.128 621.595C511.117 621.553 509.573 621.835 507.784 622.578C505.806 623.396 504.142 624.636 502.508 626.503C501.87 627.223 501.741 627.413 501.441 628.04C501.018 628.934 500.908 629.428 500.939 630.311C500.962 630.953 501.03 631.162 501.94 633.588C502.99 636.385 503.607 638.266 503.843 639.384C504.453 642.198 504.39 645.043 503.668 647.662C503.558 648.067 503.195 649.134 502.854 650.038L502.251 651.683L503.569 650.59C504.29 649.989 505.264 649.167 505.727 648.767L506.573 648.038L506.825 647.432C507.229 646.473 507.572 644.388 507.619 642.627C507.635 642.003 507.573 640.606 507.502 639.984C507.426 639.336 507.565 639.01 508.263 638.226C508.886 637.525 509.612 636.95 510.608 636.351C512.969 634.934 515.494 634.236 517.692 634.391C518.549 634.446 518.78 634.586 519.356 635.424C520.497 637.054 521.992 638.482 523.847 639.696C524.417 640.072 524.661 640.201 524.87 640.225C525.133 640.255 528.72 639.939 530.014 639.763L530.682 639.672L530.187 639.451Z" fill="white"/>
<path d="M514.81 674.619C514.789 674.282 514.708 673.427 514.635 672.715C514.56 672.01 514.445 670.737 514.364 669.899C514.198 668.178 514.057 667.625 513.708 667.394C512.983 666.902 512.958 666.74 512.634 667.496C512.462 667.898 512.332 674.603 512.488 675.155C512.669 675.798 512.248 676.45 513.236 676.382C514.43 676.311 514.888 675.793 514.81 674.619Z" fill="white"/>
<path d="M501.098 639.536C501.187 638.953 501.096 638.572 500.446 636.843C500.124 635.993 499.666 634.787 499.432 634.165L499.005 633.045L497.222 634.298C496.24 634.986 494.599 636.165 493.566 636.912C490.102 639.436 489.392 640.104 488.953 641.286C488.511 642.475 488.613 642.95 489.989 646.207C491.404 649.552 491.698 650.192 492.029 650.586C492.364 650.991 492.618 651.109 493.111 651.086C494.07 651.046 495.438 649.912 495.94 648.74C496.064 648.451 496.185 648.07 496.204 647.907C496.542 645.278 496.516 645.338 497.893 643.848C500.643 640.855 500.956 640.44 501.098 639.536Z" fill="white"/>
</g>
<path d="M441.788 632.022L439.879 627.345L437.326 627.484L436.317 625.011L449.8 624.436L450.919 627.178L440.882 636.199L439.866 633.709L441.788 632.022ZM443.411 630.614L447.63 626.91L442.025 627.215L443.411 630.614ZM445.624 647.821L444.663 645.466L450.545 636.845L442.487 640.132L441.526 637.777L453.286 632.979L454.247 635.334L448.347 643.962L456.422 640.668L457.383 643.023L445.624 647.821ZM450.671 660.192L449.71 657.837L455.593 649.216L447.534 652.504L446.573 650.149L458.333 645.351L459.294 647.706L453.395 656.334L461.47 653.039L462.431 655.394L450.671 660.192ZM453.727 668.019C453.279 666.92 453.125 665.805 453.265 664.675C453.406 663.545 453.821 662.525 454.51 661.616C455.21 660.702 456.137 660.01 457.293 659.539C458.437 659.072 459.573 658.922 460.701 659.09C461.84 659.253 462.855 659.689 463.747 660.399C464.638 661.108 465.308 662.012 465.756 663.111C466.209 664.222 466.363 665.336 466.218 666.455C466.077 667.585 465.654 668.602 464.95 669.504C464.261 670.413 463.344 671.101 462.2 671.568C461.045 672.039 459.898 672.193 458.759 672.03C457.635 671.874 456.628 671.441 455.736 670.732C454.845 670.022 454.175 669.118 453.727 668.019ZM455.83 667.161C456.118 667.868 456.529 668.426 457.063 668.836C457.608 669.242 458.239 669.475 458.957 669.535C459.675 669.595 460.427 669.465 461.212 669.145C461.997 668.825 462.619 668.394 463.079 667.853C463.55 667.308 463.833 666.702 463.927 666.036C464.021 665.369 463.925 664.683 463.636 663.976C463.348 663.269 462.935 662.705 462.396 662.284C461.863 661.874 461.237 661.638 460.519 661.578C459.812 661.513 459.066 661.641 458.281 661.961C457.496 662.282 456.868 662.714 456.397 663.26C455.926 663.805 455.638 664.413 455.532 665.084C455.442 665.762 455.542 666.454 455.83 667.161ZM469.7 673.26L462.433 676.225C461.636 676.55 461.11 677.007 460.853 677.596C460.607 678.18 460.638 678.848 460.944 679.599C461.255 680.362 461.703 680.866 462.287 681.112C462.883 681.353 463.579 681.311 464.375 680.986L471.643 678.021L472.611 680.393L465.36 683.352C464.362 683.759 463.426 683.886 462.552 683.732C461.694 683.585 460.942 683.218 460.297 682.631C459.656 682.055 459.155 681.324 458.794 680.438C458.437 679.563 458.286 678.695 458.341 677.836C458.4 676.987 458.687 676.216 459.202 675.522C459.728 674.823 460.49 674.27 461.488 673.863L468.739 670.905L469.7 673.26ZM465.894 697.504L464.933 695.149L470.816 686.527L462.757 689.815L461.796 687.46L473.556 682.662L474.517 685.017L468.618 693.645L476.693 690.351L477.654 692.706L465.894 697.504ZM472.499 696.857C473.654 696.386 474.791 696.223 475.91 696.368C477.045 696.52 478.048 696.941 478.918 697.633C479.805 698.331 480.477 699.241 480.935 700.362C481.47 701.674 481.603 702.961 481.332 704.223C481.062 705.484 480.413 706.554 479.384 707.432L478.279 704.723C478.73 704.225 478.995 703.672 479.074 703.064C479.158 702.468 479.069 701.85 478.808 701.21C478.529 700.526 478.117 699.981 477.572 699.575C477.043 699.176 476.425 698.945 475.718 698.88C475.016 698.826 474.272 698.959 473.487 699.28C472.713 699.595 472.089 700.02 471.613 700.554C471.153 701.095 470.869 701.696 470.758 702.355C470.664 703.022 470.756 703.697 471.035 704.381C471.296 705.021 471.665 705.524 472.142 705.892C472.635 706.267 473.217 706.474 473.888 706.515L474.993 709.223C473.633 709.32 472.415 709.013 471.339 708.3C470.279 707.594 469.479 706.58 468.939 705.256C468.482 704.135 468.32 703.017 468.454 701.902C468.604 700.794 469.026 699.792 469.719 698.894C470.417 698.007 471.344 697.328 472.499 696.857ZM482.915 711.085L479.971 712.286L481.584 716.24L479.717 717.002L478.104 713.048L474.991 714.318L476.81 718.776L474.892 719.559L472.113 712.745L483.872 707.947L486.652 714.761L484.734 715.543L482.915 711.085Z" fill="white"/>
<path d="M403.8 104.788C403.899 105.977 403.785 107.068 403.458 108.062C403.129 109.041 402.606 109.838 401.887 110.455C401.167 111.073 400.288 111.433 399.247 111.536L398.942 107.873C399.638 107.766 400.171 107.475 400.542 107.002C400.911 106.512 401.063 105.877 400.998 105.095C400.931 104.298 400.692 103.686 400.28 103.262C399.851 102.838 399.327 102.652 398.709 102.704C398.204 102.746 397.802 102.935 397.502 103.272C397.202 103.608 396.982 104.02 396.843 104.507C396.685 104.979 396.526 105.631 396.366 106.464C396.133 107.598 395.89 108.528 395.639 109.254C395.371 109.965 394.94 110.599 394.347 111.157C393.736 111.699 392.894 112.015 391.82 112.105C390.81 112.189 389.91 112.009 389.119 111.567C388.328 111.125 387.7 110.464 387.233 109.585C386.75 108.707 386.46 107.682 386.362 106.51C386.216 104.752 386.529 103.291 387.301 102.129C388.055 100.951 389.193 100.242 390.714 100.001L391.027 103.761C390.443 103.843 389.984 104.135 389.649 104.638C389.296 105.127 389.152 105.753 389.215 106.518C389.271 107.186 389.487 107.709 389.862 108.087C390.237 108.45 390.749 108.604 391.401 108.55C391.857 108.512 392.227 108.333 392.512 108.014C392.779 107.681 392.992 107.286 393.151 106.83C393.292 106.359 393.451 105.707 393.627 104.873C393.861 103.739 394.111 102.808 394.379 102.081C394.646 101.354 395.084 100.711 395.693 100.152C396.302 99.5929 397.136 99.2694 398.194 99.1814C399.106 99.1055 399.972 99.2711 400.793 99.6782C401.614 100.085 402.298 100.725 402.846 101.597C403.378 102.471 403.696 103.535 403.8 104.788ZM384.87 85.6262L387.63 85.3965L388.008 89.9386L402.293 88.7497L402.578 92.1684L388.292 93.3573L388.67 97.8993L385.911 98.129L384.87 85.6262ZM397.59 71.5319L398.155 78.3205L401.496 79.1735L401.795 82.7632L384.215 78.0545L383.884 74.0741L400.443 66.5242L400.744 70.1383L397.59 71.5319ZM394.932 72.6875L388.007 75.7473L395.343 77.6202L394.932 72.6875ZM387.348 53.357C386.664 53.8073 386.164 54.3899 385.846 55.1048C385.529 55.8198 385.408 56.633 385.484 57.5447C385.568 58.554 385.87 59.4305 386.391 60.174C386.912 60.9174 387.614 61.4737 388.497 61.8428C389.38 62.2119 390.375 62.3504 391.482 62.2583C392.622 62.1635 393.597 61.861 394.407 61.351C395.215 60.8247 395.814 60.1438 396.204 59.3081C396.593 58.4725 396.744 57.5256 396.656 56.4674C396.547 55.165 396.117 54.1271 395.364 53.3538C394.595 52.5818 393.581 52.117 392.322 51.9595L392.81 57.8202L390.197 58.0377L389.428 48.8071L392.408 48.5591C393.615 48.6881 394.755 49.0851 395.826 49.7499C396.898 50.4148 397.793 51.3157 398.51 52.4526C399.21 53.5746 399.621 54.8682 399.743 56.3334C399.88 57.9777 399.637 59.4978 399.016 60.8937C398.377 62.2746 397.43 63.4026 396.175 64.2775C394.918 65.1361 393.452 65.6352 391.775 65.7747C390.098 65.9143 388.569 65.6645 387.188 65.0254C385.79 64.3713 384.669 63.4154 383.827 62.1578C382.967 60.8851 382.469 59.4348 382.334 57.8069C382.174 55.8859 382.507 54.1779 383.333 52.683C384.143 51.1894 385.373 50.1036 387.021 49.4254L387.348 53.357ZM384.123 43.2593L388.396 42.9037L387.919 37.1651L390.629 36.9395L391.107 42.6781L395.624 42.3021L395.086 35.8309L397.87 35.5993L398.693 45.4892L381.623 46.9098L380.8 37.0198L383.584 36.7882L384.123 43.2593Z" fill="white"/>
<mask id="path-15-outside-1_243_6302" maskUnits="userSpaceOnUse" x="287.018" y="42.1699" width="76.644" height="76.644" fill="black">
<rect fill="white" x="287.018" y="42.1699" width="76.644" height="76.644"/>
<path d="M291.766 95.6714C291.971 96.43 292.211 96.7638 293.027 97.4307C293.711 97.9997 294.345 99.0354 294.397 99.6571C294.447 100.265 294.728 100.242 295.467 99.5544L296.025 99.0317L295.888 97.3831C295.769 95.9642 295.797 95.6625 296.08 95.2308C296.392 94.7286 302.322 94.235 303.741 94.0761L305.143 93.9186L305.772 95.744C307.677 101.205 310.852 106.207 314.359 109.249L315.045 109.845L308.176 110.416C304.857 110.693 305.143 110.519 305.552 112.036C305.775 112.807 305.958 113.091 306.782 113.853C307.55 114.578 307.791 114.925 308.027 115.64C308.174 116.132 308.366 116.524 308.436 116.518C308.524 116.511 308.858 116.279 309.206 115.991L309.817 115.478L309.672 113.735C309.55 112.262 313.529 111.604 313.796 111.201C314.078 110.769 314.164 110.735 315.077 110.659C316.026 110.58 316.08 110.602 316.979 111.194C318.943 112.487 321.447 113.258 323.84 113.317C327.49 113.408 331.216 111.86 334.097 109.076L335.324 107.885L338.187 107.647L341.049 107.408L340.557 107.871C339.248 109.137 337.391 110.203 335.613 110.718C334.595 111.021 334.544 111.052 335.058 111.064C337.008 111.119 339.951 109.936 342.142 108.216L343.42 107.211L345.932 107.002L348.444 106.807L347.24 107.846C345.953 108.96 344.565 109.701 342.975 110.147C342.077 110.412 342.06 110.413 342.627 110.434C343.407 110.451 344.884 110.137 346.032 109.702C349.049 108.552 352.413 105.415 354.533 101.782C356.594 98.2771 358.053 94.1416 358.861 89.6112C359.03 88.6719 359.159 87.8855 359.157 87.8585C359.155 87.8315 359.463 87.7106 359.843 87.5973C360.221 87.4706 360.531 87.3632 360.53 87.3497C360.515 87.174 359.832 85.979 359.762 85.9848C359.691 85.9907 357.434 86.6957 354.748 87.5723C352.043 88.4369 349.781 89.0878 349.706 89.0396C349.517 88.8921 348.649 86.5287 348.05 84.4422C347.58 82.8213 347.462 82.0419 347.164 78.4609C346.866 74.8798 346.853 74.0916 347.05 72.4152C347.294 70.2585 347.761 67.7841 347.923 67.6073C347.988 67.5474 350.327 67.8154 353.137 68.2211C355.931 68.6417 358.274 68.9637 358.345 68.9579C358.415 68.952 358.891 67.6606 358.876 67.4849C358.875 67.4714 358.552 67.4166 358.158 67.3542C357.765 67.3052 357.441 67.237 357.439 67.2099C357.418 66.9667 356.127 63.5635 355.628 62.4485C351.65 53.5403 345.252 47.8408 338.937 47.6044C338.404 47.5807 337.717 47.6106 337.404 47.6775C336.9 47.7739 336.991 47.8072 338.19 47.9795C339.906 48.2041 341.293 48.7146 342.658 49.6079L343.724 50.3084L341.213 50.5174L338.702 50.7264L337.57 50.0858C334.863 48.583 331.906 47.9038 329.835 48.3074C329.33 48.4039 329.385 48.4265 330.44 48.5565C332.081 48.7328 333.61 49.2587 335.081 50.1432L336.365 50.9073L333.556 51.1546L330.764 51.387L329.341 50.4441C327.617 49.2812 326.2 48.61 324.428 48.1451C321.915 47.4834 319.723 47.489 317.408 48.1443C315.611 48.6476 314.003 49.5162 312.292 50.8424C310.982 51.8903 310.846 51.9561 310.056 52.0218C309.301 52.0847 309.174 52.0544 308.842 51.6738C308.513 51.3338 304.48 51.3429 304.357 49.8699L304.212 48.1267L303.524 47.7213C303.134 47.4953 302.766 47.3218 302.678 47.3291C302.608 47.335 302.483 47.7535 302.42 48.2623C302.305 49.0066 302.124 49.389 301.487 50.2313C300.769 51.1619 300.666 51.4154 300.565 52.3219C300.524 52.8968 300.533 53.4267 300.591 53.4899C300.668 53.5651 301.814 53.5242 303.43 53.3897C304.923 53.2655 310.09 52.8626 310.094 52.9031C310.097 52.9437 309.842 53.2779 309.519 53.6449C306.769 56.9354 304.228 63.1612 303.354 68.8128L303.148 70.1634L301.74 70.2398C300.331 70.3162 294.401 70.8098 294.01 70.366C293.661 69.9869 293.583 69.694 293.465 68.2751L293.328 66.6265L292.691 66.2032C291.849 65.6473 291.568 65.6707 291.619 66.2788C291.672 66.914 291.216 68.0268 290.603 68.731C289.925 69.5086 289.706 70.0711 289.638 71.1653L289.592 72.0945L293.297 71.7861C296.863 71.4894 302.935 70.9976 302.956 71.2544C302.967 71.3895 302.927 72.1821 302.853 72.991C302.332 78.8446 303.023 86.5023 304.574 91.9658L304.901 93.1359L295.212 93.9423L291.471 94.2536L291.519 94.617C291.555 94.8317 291.664 95.2989 291.766 95.6714ZM306.456 76.3379C306.529 74.2363 306.709 71.7312 306.79 71.6428C306.807 71.6279 309.685 72.6402 313.186 73.9136L319.549 76.2143L319.592 76.9455C319.637 77.9079 320.107 83.5565 320.222 84.513L320.301 85.2413L314.423 88.5607C311.179 90.3819 308.51 91.8831 308.475 91.886C308.405 91.8918 307.795 89.4525 307.401 87.485C306.873 84.9573 306.376 78.9843 306.456 76.3379ZM314.936 90.4774C318.146 88.6727 320.818 87.212 320.873 87.2347C320.912 87.2723 321.18 87.9439 321.477 88.7493C322.529 91.6144 323.866 93.8708 325.494 95.5858C326.327 96.4554 326.411 96.6117 326.238 96.8711C326.127 97.0299 324.347 99.6545 322.284 102.697L318.518 108.236L317.971 107.819C315.799 106.163 313.453 103.255 311.719 100.052C310.967 98.6726 309.194 94.5748 309.11 93.9966C309.081 93.8494 310.95 92.7277 314.936 90.4774ZM307.545 67.1169C308.625 62.455 310.179 58.8151 312.366 55.7756C314.048 53.4585 313.312 53.1116 318.621 58.684C321.159 61.3439 323.347 63.6247 323.482 63.7631C323.696 63.9903 323.639 64.1583 322.961 65.1535C321.639 67.1142 320.693 69.5605 320.129 72.5601C319.97 73.4035 319.816 74.1102 319.785 74.1537C319.652 74.2599 307.067 69.6604 307.053 69.4847C307.046 69.4036 307.276 68.3368 307.545 67.1169ZM324.381 103.462L328.223 97.7808L329.102 98.143C331.465 99.1302 334.161 98.5793 336.282 96.661C337.353 95.7147 337.327 95.6215 336.554 98.0127C334.934 102.992 331.962 107.226 328.728 109.155C326.756 110.326 325.553 110.535 322.992 110.149C321.81 109.962 320.389 109.468 320.478 109.257C320.508 109.2 322.254 106.591 324.381 103.462ZM316.435 51.9672C319.681 50.173 322.756 50.3661 326.176 52.5716C328.175 53.8612 329.425 55.0635 331.175 57.3943C332.269 58.8544 334.406 62.4322 334.443 62.8781C334.448 62.9322 333.966 62.6729 333.369 62.3007C330.961 60.773 328.265 60.6709 326.097 62.0351L325.29 62.5377L320.524 57.5459C317.892 54.8123 315.739 52.5286 315.734 52.4745C315.712 52.4219 316.029 52.1915 316.435 51.9672ZM337.161 105.31C337.728 104.474 338.632 102.793 339.332 101.224L339.957 99.8114L342.781 99.5355C344.378 99.389 345.61 99.3137 345.616 99.3813C345.648 99.7732 343.932 103.372 343.056 104.751L342.589 105.511L339.691 105.753C338.093 105.886 336.791 105.967 336.788 105.926C336.785 105.886 336.956 105.613 337.161 105.31ZM338.416 52.8184C339.121 53.4265 342.142 57.6382 342.178 58.0706C342.183 58.1382 340.941 58.296 339.413 58.4232L336.62 58.6556L335.567 57.0424C334.963 56.1673 334.028 54.9117 333.461 54.2649L332.443 53.0842L335.267 52.8083C338.022 52.5518 338.093 52.546 338.416 52.8184ZM341.171 95.9139C342.585 90.5848 342.949 85.3975 342.376 78.7233C341.775 71.5071 340.397 66.2062 337.693 60.7027C337.587 60.4938 337.797 60.4627 340.396 60.2464L343.206 60.0125L343.446 60.564C343.578 60.8796 343.835 61.4161 344.007 61.7828C344.334 62.5176 345.085 64.5369 345.589 66.1278C345.919 67.1209 345.911 67.2305 345.633 68.5734C345.156 70.6951 344.904 73.4102 344.903 76.1589C344.91 80.0636 345.818 84.8185 347.289 88.4652C347.784 89.7439 347.811 89.8505 347.649 90.8845C347.416 92.5368 347.008 94.6526 346.808 95.4313C346.698 95.8078 346.534 96.3929 346.454 96.7125L346.31 97.3097L343.517 97.5421C341.972 97.6707 340.705 97.7489 340.703 97.7219C340.701 97.6948 340.915 96.8741 341.171 95.9139ZM347.852 100.964L348.856 99.0028L350.998 98.8245C352.192 98.7251 353.159 98.6582 353.162 98.6852C353.168 98.7663 352.283 100.881 351.907 101.674C351.681 102.142 351.191 103.054 350.785 103.7L350.07 104.889L347.577 105.096L345.065 105.305L345.938 104.103C346.432 103.45 347.286 102.032 347.852 100.964ZM345.857 52.1311C346.504 52.6896 349.703 57.1314 349.736 57.5232C349.738 57.5503 348.773 57.6442 347.579 57.7436L345.437 57.9219L344.122 56.1535C343.388 55.1941 342.33 53.9487 341.753 53.3979L340.715 52.3958L343.153 52.1521C345.328 51.9438 345.628 51.9325 345.857 52.1311ZM350.001 95.7642C350.2 95.1897 350.613 93.7675 350.886 92.5882C351.177 91.4074 351.463 90.3902 351.529 90.3303C351.612 90.2689 352.351 90.0034 353.212 89.7276C354.056 89.4533 354.864 89.1819 355.001 89.1296C355.19 89.0595 355.219 89.1932 355.167 89.8506C355.103 90.7812 354.65 93.2001 354.167 95.2542L353.844 96.6826L351.754 96.8566C350.595 96.953 349.66 96.9764 349.655 96.9224C349.649 96.8548 349.801 96.3387 350.001 95.7642ZM348.65 59.5594L350.74 59.3855L351.294 60.7273C352.111 62.6868 352.957 64.9975 353.174 65.9048C353.334 66.5446 353.327 66.6812 353.13 66.6433C352.986 66.6144 352.144 66.4804 351.266 66.3493C350.371 66.2197 349.599 66.0798 349.507 66.0331C349.432 65.9849 348.981 65.0291 348.499 63.9126C348.035 62.7947 347.412 61.4722 347.123 60.9791C346.851 60.4711 346.599 59.9887 346.591 59.8941C346.563 59.7739 347.087 59.6895 348.65 59.5594Z"/>
</mask>
<path d="M291.766 95.6714C291.971 96.43 292.211 96.7638 293.027 97.4307C293.711 97.9997 294.345 99.0354 294.397 99.6571C294.447 100.265 294.728 100.242 295.467 99.5544L296.025 99.0317L295.888 97.3831C295.769 95.9642 295.797 95.6625 296.08 95.2308C296.392 94.7286 302.322 94.235 303.741 94.0761L305.143 93.9186L305.772 95.744C307.677 101.205 310.852 106.207 314.359 109.249L315.045 109.845L308.176 110.416C304.857 110.693 305.143 110.519 305.552 112.036C305.775 112.807 305.958 113.091 306.782 113.853C307.55 114.578 307.791 114.925 308.027 115.64C308.174 116.132 308.366 116.524 308.436 116.518C308.524 116.511 308.858 116.279 309.206 115.991L309.817 115.478L309.672 113.735C309.55 112.262 313.529 111.604 313.796 111.201C314.078 110.769 314.164 110.735 315.077 110.659C316.026 110.58 316.08 110.602 316.979 111.194C318.943 112.487 321.447 113.258 323.84 113.317C327.49 113.408 331.216 111.86 334.097 109.076L335.324 107.885L338.187 107.647L341.049 107.408L340.557 107.871C339.248 109.137 337.391 110.203 335.613 110.718C334.595 111.021 334.544 111.052 335.058 111.064C337.008 111.119 339.951 109.936 342.142 108.216L343.42 107.211L345.932 107.002L348.444 106.807L347.24 107.846C345.953 108.96 344.565 109.701 342.975 110.147C342.077 110.412 342.06 110.413 342.627 110.434C343.407 110.451 344.884 110.137 346.032 109.702C349.049 108.552 352.413 105.415 354.533 101.782C356.594 98.2771 358.053 94.1416 358.861 89.6112C359.03 88.6719 359.159 87.8855 359.157 87.8585C359.155 87.8315 359.463 87.7106 359.843 87.5973C360.221 87.4706 360.531 87.3632 360.53 87.3497C360.515 87.174 359.832 85.979 359.762 85.9848C359.691 85.9907 357.434 86.6957 354.748 87.5723C352.043 88.4369 349.781 89.0878 349.706 89.0396C349.517 88.8921 348.649 86.5287 348.05 84.4422C347.58 82.8213 347.462 82.0419 347.164 78.4609C346.866 74.8798 346.853 74.0916 347.05 72.4152C347.294 70.2585 347.761 67.7841 347.923 67.6073C347.988 67.5474 350.327 67.8154 353.137 68.2211C355.931 68.6417 358.274 68.9637 358.345 68.9579C358.415 68.952 358.891 67.6606 358.876 67.4849C358.875 67.4714 358.552 67.4166 358.158 67.3542C357.765 67.3052 357.441 67.237 357.439 67.2099C357.418 66.9667 356.127 63.5635 355.628 62.4485C351.65 53.5403 345.252 47.8408 338.937 47.6044C338.404 47.5807 337.717 47.6106 337.404 47.6775C336.9 47.7739 336.991 47.8072 338.19 47.9795C339.906 48.2041 341.293 48.7146 342.658 49.6079L343.724 50.3084L341.213 50.5174L338.702 50.7264L337.57 50.0858C334.863 48.583 331.906 47.9038 329.835 48.3074C329.33 48.4039 329.385 48.4265 330.44 48.5565C332.081 48.7328 333.61 49.2587 335.081 50.1432L336.365 50.9073L333.556 51.1546L330.764 51.387L329.341 50.4441C327.617 49.2812 326.2 48.61 324.428 48.1451C321.915 47.4834 319.723 47.489 317.408 48.1443C315.611 48.6476 314.003 49.5162 312.292 50.8424C310.982 51.8903 310.846 51.9561 310.056 52.0218C309.301 52.0847 309.174 52.0544 308.842 51.6738C308.513 51.3338 304.48 51.3429 304.357 49.8699L304.212 48.1267L303.524 47.7213C303.134 47.4953 302.766 47.3218 302.678 47.3291C302.608 47.335 302.483 47.7535 302.42 48.2623C302.305 49.0066 302.124 49.389 301.487 50.2313C300.769 51.1619 300.666 51.4154 300.565 52.3219C300.524 52.8968 300.533 53.4267 300.591 53.4899C300.668 53.5651 301.814 53.5242 303.43 53.3897C304.923 53.2655 310.09 52.8626 310.094 52.9031C310.097 52.9437 309.842 53.2779 309.519 53.6449C306.769 56.9354 304.228 63.1612 303.354 68.8128L303.148 70.1634L301.74 70.2398C300.331 70.3162 294.401 70.8098 294.01 70.366C293.661 69.9869 293.583 69.694 293.465 68.2751L293.328 66.6265L292.691 66.2032C291.849 65.6473 291.568 65.6707 291.619 66.2788C291.672 66.914 291.216 68.0268 290.603 68.731C289.925 69.5086 289.706 70.0711 289.638 71.1653L289.592 72.0945L293.297 71.7861C296.863 71.4894 302.935 70.9976 302.956 71.2544C302.967 71.3895 302.927 72.1821 302.853 72.991C302.332 78.8446 303.023 86.5023 304.574 91.9658L304.901 93.1359L295.212 93.9423L291.471 94.2536L291.519 94.617C291.555 94.8317 291.664 95.2989 291.766 95.6714ZM306.456 76.3379C306.529 74.2363 306.709 71.7312 306.79 71.6428C306.807 71.6279 309.685 72.6402 313.186 73.9136L319.549 76.2143L319.592 76.9455C319.637 77.9079 320.107 83.5565 320.222 84.513L320.301 85.2413L314.423 88.5607C311.179 90.3819 308.51 91.8831 308.475 91.886C308.405 91.8918 307.795 89.4525 307.401 87.485C306.873 84.9573 306.376 78.9843 306.456 76.3379ZM314.936 90.4774C318.146 88.6727 320.818 87.212 320.873 87.2347C320.912 87.2723 321.18 87.9439 321.477 88.7493C322.529 91.6144 323.866 93.8708 325.494 95.5858C326.327 96.4554 326.411 96.6117 326.238 96.8711C326.127 97.0299 324.347 99.6545 322.284 102.697L318.518 108.236L317.971 107.819C315.799 106.163 313.453 103.255 311.719 100.052C310.967 98.6726 309.194 94.5748 309.11 93.9966C309.081 93.8494 310.95 92.7277 314.936 90.4774ZM307.545 67.1169C308.625 62.455 310.179 58.8151 312.366 55.7756C314.048 53.4585 313.312 53.1116 318.621 58.684C321.159 61.3439 323.347 63.6247 323.482 63.7631C323.696 63.9903 323.639 64.1583 322.961 65.1535C321.639 67.1142 320.693 69.5605 320.129 72.5601C319.97 73.4035 319.816 74.1102 319.785 74.1537C319.652 74.2599 307.067 69.6604 307.053 69.4847C307.046 69.4036 307.276 68.3368 307.545 67.1169ZM324.381 103.462L328.223 97.7808L329.102 98.143C331.465 99.1302 334.161 98.5793 336.282 96.661C337.353 95.7147 337.327 95.6215 336.554 98.0127C334.934 102.992 331.962 107.226 328.728 109.155C326.756 110.326 325.553 110.535 322.992 110.149C321.81 109.962 320.389 109.468 320.478 109.257C320.508 109.2 322.254 106.591 324.381 103.462ZM316.435 51.9672C319.681 50.173 322.756 50.3661 326.176 52.5716C328.175 53.8612 329.425 55.0635 331.175 57.3943C332.269 58.8544 334.406 62.4322 334.443 62.8781C334.448 62.9322 333.966 62.6729 333.369 62.3007C330.961 60.773 328.265 60.6709 326.097 62.0351L325.29 62.5377L320.524 57.5459C317.892 54.8123 315.739 52.5286 315.734 52.4745C315.712 52.4219 316.029 52.1915 316.435 51.9672ZM337.161 105.31C337.728 104.474 338.632 102.793 339.332 101.224L339.957 99.8114L342.781 99.5355C344.378 99.389 345.61 99.3137 345.616 99.3813C345.648 99.7732 343.932 103.372 343.056 104.751L342.589 105.511L339.691 105.753C338.093 105.886 336.791 105.967 336.788 105.926C336.785 105.886 336.956 105.613 337.161 105.31ZM338.416 52.8184C339.121 53.4265 342.142 57.6382 342.178 58.0706C342.183 58.1382 340.941 58.296 339.413 58.4232L336.62 58.6556L335.567 57.0424C334.963 56.1673 334.028 54.9117 333.461 54.2649L332.443 53.0842L335.267 52.8083C338.022 52.5518 338.093 52.546 338.416 52.8184ZM341.171 95.9139C342.585 90.5848 342.949 85.3975 342.376 78.7233C341.775 71.5071 340.397 66.2062 337.693 60.7027C337.587 60.4938 337.797 60.4627 340.396 60.2464L343.206 60.0125L343.446 60.564C343.578 60.8796 343.835 61.4161 344.007 61.7828C344.334 62.5176 345.085 64.5369 345.589 66.1278C345.919 67.1209 345.911 67.2305 345.633 68.5734C345.156 70.6951 344.904 73.4102 344.903 76.1589C344.91 80.0636 345.818 84.8185 347.289 88.4652C347.784 89.7439 347.811 89.8505 347.649 90.8845C347.416 92.5368 347.008 94.6526 346.808 95.4313C346.698 95.8078 346.534 96.3929 346.454 96.7125L346.31 97.3097L343.517 97.5421C341.972 97.6707 340.705 97.7489 340.703 97.7219C340.701 97.6948 340.915 96.8741 341.171 95.9139ZM347.852 100.964L348.856 99.0028L350.998 98.8245C352.192 98.7251 353.159 98.6582 353.162 98.6852C353.168 98.7663 352.283 100.881 351.907 101.674C351.681 102.142 351.191 103.054 350.785 103.7L350.07 104.889L347.577 105.096L345.065 105.305L345.938 104.103C346.432 103.45 347.286 102.032 347.852 100.964ZM345.857 52.1311C346.504 52.6896 349.703 57.1314 349.736 57.5232C349.738 57.5503 348.773 57.6442 347.579 57.7436L345.437 57.9219L344.122 56.1535C343.388 55.1941 342.33 53.9487 341.753 53.3979L340.715 52.3958L343.153 52.1521C345.328 51.9438 345.628 51.9325 345.857 52.1311ZM350.001 95.7642C350.2 95.1897 350.613 93.7675 350.886 92.5882C351.177 91.4074 351.463 90.3902 351.529 90.3303C351.612 90.2689 352.351 90.0034 353.212 89.7276C354.056 89.4533 354.864 89.1819 355.001 89.1296C355.19 89.0595 355.219 89.1932 355.167 89.8506C355.103 90.7812 354.65 93.2001 354.167 95.2542L353.844 96.6826L351.754 96.8566C350.595 96.953 349.66 96.9764 349.655 96.9224C349.649 96.8548 349.801 96.3387 350.001 95.7642ZM348.65 59.5594L350.74 59.3855L351.294 60.7273C352.111 62.6868 352.957 64.9975 353.174 65.9048C353.334 66.5446 353.327 66.6812 353.13 66.6433C352.986 66.6144 352.144 66.4804 351.266 66.3493C350.371 66.2197 349.599 66.0798 349.507 66.0331C349.432 65.9849 348.981 65.0291 348.499 63.9126C348.035 62.7947 347.412 61.4722 347.123 60.9791C346.851 60.4711 346.599 59.9887 346.591 59.8941C346.563 59.7739 347.087 59.6895 348.65 59.5594Z" fill="white"/>
<path d="M291.766 95.6714C291.971 96.43 292.211 96.7638 293.027 97.4307C293.711 97.9997 294.345 99.0354 294.397 99.6571C294.447 100.265 294.728 100.242 295.467 99.5544L296.025 99.0317L295.888 97.3831C295.769 95.9642 295.797 95.6625 296.08 95.2308C296.392 94.7286 302.322 94.235 303.741 94.0761L305.143 93.9186L305.772 95.744C307.677 101.205 310.852 106.207 314.359 109.249L315.045 109.845L308.176 110.416C304.857 110.693 305.143 110.519 305.552 112.036C305.775 112.807 305.958 113.091 306.782 113.853C307.55 114.578 307.791 114.925 308.027 115.64C308.174 116.132 308.366 116.524 308.436 116.518C308.524 116.511 308.858 116.279 309.206 115.991L309.817 115.478L309.672 113.735C309.55 112.262 313.529 111.604 313.796 111.201C314.078 110.769 314.164 110.735 315.077 110.659C316.026 110.58 316.08 110.602 316.979 111.194C318.943 112.487 321.447 113.258 323.84 113.317C327.49 113.408 331.216 111.86 334.097 109.076L335.324 107.885L338.187 107.647L341.049 107.408L340.557 107.871C339.248 109.137 337.391 110.203 335.613 110.718C334.595 111.021 334.544 111.052 335.058 111.064C337.008 111.119 339.951 109.936 342.142 108.216L343.42 107.211L345.932 107.002L348.444 106.807L347.24 107.846C345.953 108.96 344.565 109.701 342.975 110.147C342.077 110.412 342.06 110.413 342.627 110.434C343.407 110.451 344.884 110.137 346.032 109.702C349.049 108.552 352.413 105.415 354.533 101.782C356.594 98.2771 358.053 94.1416 358.861 89.6112C359.03 88.6719 359.159 87.8855 359.157 87.8585C359.155 87.8315 359.463 87.7106 359.843 87.5973C360.221 87.4706 360.531 87.3632 360.53 87.3497C360.515 87.174 359.832 85.979 359.762 85.9848C359.691 85.9907 357.434 86.6957 354.748 87.5723C352.043 88.4369 349.781 89.0878 349.706 89.0396C349.517 88.8921 348.649 86.5287 348.05 84.4422C347.58 82.8213 347.462 82.0419 347.164 78.4609C346.866 74.8798 346.853 74.0916 347.05 72.4152C347.294 70.2585 347.761 67.7841 347.923 67.6073C347.988 67.5474 350.327 67.8154 353.137 68.2211C355.931 68.6417 358.274 68.9637 358.345 68.9579C358.415 68.952 358.891 67.6606 358.876 67.4849C358.875 67.4714 358.552 67.4166 358.158 67.3542C357.765 67.3052 357.441 67.237 357.439 67.2099C357.418 66.9667 356.127 63.5635 355.628 62.4485C351.65 53.5403 345.252 47.8408 338.937 47.6044C338.404 47.5807 337.717 47.6106 337.404 47.6775C336.9 47.7739 336.991 47.8072 338.19 47.9795C339.906 48.2041 341.293 48.7146 342.658 49.6079L343.724 50.3084L341.213 50.5174L338.702 50.7264L337.57 50.0858C334.863 48.583 331.906 47.9038 329.835 48.3074C329.33 48.4039 329.385 48.4265 330.44 48.5565C332.081 48.7328 333.61 49.2587 335.081 50.1432L336.365 50.9073L333.556 51.1546L330.764 51.387L329.341 50.4441C327.617 49.2812 326.2 48.61 324.428 48.1451C321.915 47.4834 319.723 47.489 317.408 48.1443C315.611 48.6476 314.003 49.5162 312.292 50.8424C310.982 51.8903 310.846 51.9561 310.056 52.0218C309.301 52.0847 309.174 52.0544 308.842 51.6738C308.513 51.3338 304.48 51.3429 304.357 49.8699L304.212 48.1267L303.524 47.7213C303.134 47.4953 302.766 47.3218 302.678 47.3291C302.608 47.335 302.483 47.7535 302.42 48.2623C302.305 49.0066 302.124 49.389 301.487 50.2313C300.769 51.1619 300.666 51.4154 300.565 52.3219C300.524 52.8968 300.533 53.4267 300.591 53.4899C300.668 53.5651 301.814 53.5242 303.43 53.3897C304.923 53.2655 310.09 52.8626 310.094 52.9031C310.097 52.9437 309.842 53.2779 309.519 53.6449C306.769 56.9354 304.228 63.1612 303.354 68.8128L303.148 70.1634L301.74 70.2398C300.331 70.3162 294.401 70.8098 294.01 70.366C293.661 69.9869 293.583 69.694 293.465 68.2751L293.328 66.6265L292.691 66.2032C291.849 65.6473 291.568 65.6707 291.619 66.2788C291.672 66.914 291.216 68.0268 290.603 68.731C289.925 69.5086 289.706 70.0711 289.638 71.1653L289.592 72.0945L293.297 71.7861C296.863 71.4894 302.935 70.9976 302.956 71.2544C302.967 71.3895 302.927 72.1821 302.853 72.991C302.332 78.8446 303.023 86.5023 304.574 91.9658L304.901 93.1359L295.212 93.9423L291.471 94.2536L291.519 94.617C291.555 94.8317 291.664 95.2989 291.766 95.6714ZM306.456 76.3379C306.529 74.2363 306.709 71.7312 306.79 71.6428C306.807 71.6279 309.685 72.6402 313.186 73.9136L319.549 76.2143L319.592 76.9455C319.637 77.9079 320.107 83.5565 320.222 84.513L320.301 85.2413L314.423 88.5607C311.179 90.3819 308.51 91.8831 308.475 91.886C308.405 91.8918 307.795 89.4525 307.401 87.485C306.873 84.9573 306.376 78.9843 306.456 76.3379ZM314.936 90.4774C318.146 88.6727 320.818 87.212 320.873 87.2347C320.912 87.2723 321.18 87.9439 321.477 88.7493C322.529 91.6144 323.866 93.8708 325.494 95.5858C326.327 96.4554 326.411 96.6117 326.238 96.8711C326.127 97.0299 324.347 99.6545 322.284 102.697L318.518 108.236L317.971 107.819C315.799 106.163 313.453 103.255 311.719 100.052C310.967 98.6726 309.194 94.5748 309.11 93.9966C309.081 93.8494 310.95 92.7277 314.936 90.4774ZM307.545 67.1169C308.625 62.455 310.179 58.8151 312.366 55.7756C314.048 53.4585 313.312 53.1116 318.621 58.684C321.159 61.3439 323.347 63.6247 323.482 63.7631C323.696 63.9903 323.639 64.1583 322.961 65.1535C321.639 67.1142 320.693 69.5605 320.129 72.5601C319.97 73.4035 319.816 74.1102 319.785 74.1537C319.652 74.2599 307.067 69.6604 307.053 69.4847C307.046 69.4036 307.276 68.3368 307.545 67.1169ZM324.381 103.462L328.223 97.7808L329.102 98.143C331.465 99.1302 334.161 98.5793 336.282 96.661C337.353 95.7147 337.327 95.6215 336.554 98.0127C334.934 102.992 331.962 107.226 328.728 109.155C326.756 110.326 325.553 110.535 322.992 110.149C321.81 109.962 320.389 109.468 320.478 109.257C320.508 109.2 322.254 106.591 324.381 103.462ZM316.435 51.9672C319.681 50.173 322.756 50.3661 326.176 52.5716C328.175 53.8612 329.425 55.0635 331.175 57.3943C332.269 58.8544 334.406 62.4322 334.443 62.8781C334.448 62.9322 333.966 62.6729 333.369 62.3007C330.961 60.773 328.265 60.6709 326.097 62.0351L325.29 62.5377L320.524 57.5459C317.892 54.8123 315.739 52.5286 315.734 52.4745C315.712 52.4219 316.029 52.1915 316.435 51.9672ZM337.161 105.31C337.728 104.474 338.632 102.793 339.332 101.224L339.957 99.8114L342.781 99.5355C344.378 99.389 345.61 99.3137 345.616 99.3813C345.648 99.7732 343.932 103.372 343.056 104.751L342.589 105.511L339.691 105.753C338.093 105.886 336.791 105.967 336.788 105.926C336.785 105.886 336.956 105.613 337.161 105.31ZM338.416 52.8184C339.121 53.4265 342.142 57.6382 342.178 58.0706C342.183 58.1382 340.941 58.296 339.413 58.4232L336.62 58.6556L335.567 57.0424C334.963 56.1673 334.028 54.9117 333.461 54.2649L332.443 53.0842L335.267 52.8083C338.022 52.5518 338.093 52.546 338.416 52.8184ZM341.171 95.9139C342.585 90.5848 342.949 85.3975 342.376 78.7233C341.775 71.5071 340.397 66.2062 337.693 60.7027C337.587 60.4938 337.797 60.4627 340.396 60.2464L343.206 60.0125L343.446 60.564C343.578 60.8796 343.835 61.4161 344.007 61.7828C344.334 62.5176 345.085 64.5369 345.589 66.1278C345.919 67.1209 345.911 67.2305 345.633 68.5734C345.156 70.6951 344.904 73.4102 344.903 76.1589C344.91 80.0636 345.818 84.8185 347.289 88.4652C347.784 89.7439 347.811 89.8505 347.649 90.8845C347.416 92.5368 347.008 94.6526 346.808 95.4313C346.698 95.8078 346.534 96.3929 346.454 96.7125L346.31 97.3097L343.517 97.5421C341.972 97.6707 340.705 97.7489 340.703 97.7219C340.701 97.6948 340.915 96.8741 341.171 95.9139ZM347.852 100.964L348.856 99.0028L350.998 98.8245C352.192 98.7251 353.159 98.6582 353.162 98.6852C353.168 98.7663 352.283 100.881 351.907 101.674C351.681 102.142 351.191 103.054 350.785 103.7L350.07 104.889L347.577 105.096L345.065 105.305L345.938 104.103C346.432 103.45 347.286 102.032 347.852 100.964ZM345.857 52.1311C346.504 52.6896 349.703 57.1314 349.736 57.5232C349.738 57.5503 348.773 57.6442 347.579 57.7436L345.437 57.9219L344.122 56.1535C343.388 55.1941 342.33 53.9487 341.753 53.3979L340.715 52.3958L343.153 52.1521C345.328 51.9438 345.628 51.9325 345.857 52.1311ZM350.001 95.7642C350.2 95.1897 350.613 93.7675 350.886 92.5882C351.177 91.4074 351.463 90.3902 351.529 90.3303C351.612 90.2689 352.351 90.0034 353.212 89.7276C354.056 89.4533 354.864 89.1819 355.001 89.1296C355.19 89.0595 355.219 89.1932 355.167 89.8506C355.103 90.7812 354.65 93.2001 354.167 95.2542L353.844 96.6826L351.754 96.8566C350.595 96.953 349.66 96.9764 349.655 96.9224C349.649 96.8548 349.801 96.3387 350.001 95.7642ZM348.65 59.5594L350.74 59.3855L351.294 60.7273C352.111 62.6868 352.957 64.9975 353.174 65.9048C353.334 66.5446 353.327 66.6812 353.13 66.6433C352.986 66.6144 352.144 66.4804 351.266 66.3493C350.371 66.2197 349.599 66.0798 349.507 66.0331C349.432 65.9849 348.981 65.0291 348.499 63.9126C348.035 62.7947 347.412 61.4722 347.123 60.9791C346.851 60.4711 346.599 59.9887 346.591 59.8941C346.563 59.7739 347.087 59.6895 348.65 59.5594Z" stroke="white" stroke-width="0.816801" mask="url(#path-15-outside-1_243_6302)"/>
<path d="M653.457 317.496L654.045 334.853L650.564 334.971L650.181 323.682L645.914 335.129L643.278 335.218L638.22 324.088L638.603 335.377L635.122 335.495L634.533 318.138L638.487 318.004L644.445 330.722L649.528 317.629L653.457 317.496ZM660.475 320.071L660.623 324.423L666.466 324.225L666.56 326.985L660.716 327.183L660.872 331.783L667.462 331.56L667.558 334.394L657.487 334.736L656.898 317.355L666.968 317.013L667.065 319.848L660.475 320.071ZM673.71 319.622L673.857 323.974L679.701 323.776L679.794 326.536L673.951 326.734L674.107 331.334L680.697 331.111L680.793 333.945L670.722 334.287L670.132 316.906L680.203 316.564L680.299 319.399L673.71 319.622ZM695.179 316.081L695.274 318.89L690.649 319.047L691.143 333.594L687.662 333.712L687.168 319.166L682.543 319.322L682.447 316.513L695.179 316.081Z" fill="white"/>
<path d="M626.007 244.998C625.935 242.879 626.708 240.817 628.157 239.267C629.605 237.717 631.609 236.806 633.729 236.734C635.849 236.663 637.91 237.436 639.46 238.884C641.01 240.332 641.921 242.336 641.993 244.456C642.065 246.576 641.292 248.637 639.844 250.187C638.395 251.737 636.391 252.648 634.271 252.72C632.151 252.792 630.09 252.019 628.54 250.571C626.99 249.123 626.079 247.118 626.007 244.998ZM625.629 267.545C624.256 269.192 623.472 271.348 623.55 273.66C623.629 275.972 624.557 278.07 626.039 279.62L625.629 267.545ZM646 259.81C641.889 263.707 639.406 269.293 639.613 275.402C639.779 280.297 641.645 284.735 644.619 288.163L644.723 291.232C644.809 293.758 642.837 295.869 640.311 295.954L631.176 296.264C628.65 296.35 626.54 294.378 626.454 291.852L626.324 288.027C620.842 285.641 616.916 280.273 616.699 273.893C616.4 265.058 623.308 257.665 632.143 257.365L636.71 257.21C640.135 257.094 643.34 258.057 646 259.795L646 259.81ZM681.261 289.992L681.157 286.924C683.892 283.301 685.452 278.747 685.286 273.852C685.079 267.743 682.224 262.339 677.857 258.714C680.392 256.799 683.525 255.621 686.95 255.505L691.517 255.35C700.352 255.05 707.746 261.959 708.045 270.793C708.262 277.173 704.709 282.795 699.401 285.547L699.531 289.372C699.616 291.899 697.645 294.009 695.118 294.095L685.984 294.405C683.457 294.49 681.347 292.519 681.261 289.992ZM680.815 243.139C680.743 241.019 681.516 238.957 682.964 237.408C684.412 235.858 686.417 234.947 688.536 234.875C690.656 234.803 692.718 235.576 694.268 237.024C695.817 238.472 696.728 240.477 696.8 242.596C696.872 244.716 696.099 246.778 694.651 248.328C693.203 249.877 691.199 250.788 689.079 250.86C686.959 250.932 684.897 250.159 683.348 248.711C681.798 247.263 680.887 245.259 680.815 243.139ZM698.706 265.066L699.116 277.155C700.489 275.494 701.273 273.352 701.195 271.04C701.116 268.728 700.188 266.63 698.706 265.08L698.706 265.066ZM661.072 234.028C663.495 233.946 665.851 234.83 667.622 236.485C669.393 238.14 670.435 240.43 670.517 242.853C670.599 245.276 669.716 247.632 668.061 249.403C666.406 251.174 664.115 252.215 661.692 252.298C659.27 252.38 656.914 251.496 655.142 249.841C653.371 248.186 652.33 245.896 652.248 243.473C652.166 241.05 653.049 238.694 654.704 236.923C656.359 235.152 658.65 234.111 661.072 234.028ZM651.032 275.014C651.11 277.326 652.038 279.41 653.52 280.974L653.11 268.899C651.738 270.56 650.953 272.702 651.032 275.014ZM671.38 268.279L671.79 280.368C673.162 278.707 673.947 276.566 673.869 274.254C673.79 271.941 672.862 269.844 671.38 268.294L671.38 268.279ZM680.719 274.007C680.936 280.387 677.382 286.009 672.075 288.761L672.282 294.87C672.368 297.396 670.396 299.506 667.869 299.592L658.735 299.902C656.209 299.987 654.098 298.016 654.013 295.489L653.805 289.381C648.323 286.995 644.397 281.626 644.181 275.247C643.881 266.412 650.789 259.018 659.624 258.719L664.191 258.564C673.026 258.264 680.419 265.172 680.719 274.007Z" fill="white"/>
<path d="M147.906 217.304L149.35 214.65L153.718 217.027L161.193 203.289L164.481 205.078L157.005 218.816L161.373 221.193L159.93 223.847L147.906 217.304ZM142.676 197.261L149.204 200.813L151.984 198.278L155.436 200.156L140.609 213.364L136.781 211.281L139.819 191.659L143.295 193.55L142.676 197.261ZM142.137 200.377L140.777 208.525L146.881 202.958L142.137 200.377ZM132.91 191.277L127.508 188.338L128.927 185.732L137.616 190.46L128.696 206.851L125.409 205.062L132.91 191.277ZM117.584 179.56L119.575 190.109L123.549 182.805L126.837 184.594L117.918 200.986L114.63 199.197L118.63 191.847L108.665 195.952L104.696 193.792L115.881 189.347L113.428 177.298L117.584 179.56Z" fill="white"/>
<path fill-rule="evenodd" clip-rule="evenodd" d="M94.9484 285.199C94.5972 285.116 83.2599 278.884 77.6351 275.778C76.6608 275.27 75.0694 273.598 76.4987 270.972L97.7961 231.832C97.8631 231.709 97.9331 231.576 98.0069 231.436C99.1613 229.245 101.251 225.277 107.613 228.738L124.867 238.127C130.176 241.016 130.035 243.484 127.78 248.148C125.526 252.811 120.148 262.39 117.741 266.597L119.118 271.872L109.448 289.644C108.966 290.53 107.346 291.945 104.725 290.519L94.9484 285.199ZM104.408 280.26C105.489 280.848 106.842 280.449 107.43 279.368L112.755 269.583C113.343 268.502 112.943 267.149 111.862 266.561L92.2924 255.912C91.2115 255.324 89.8586 255.724 89.2705 256.805L83.9461 266.59C83.3579 267.67 83.7573 269.023 84.8382 269.611L104.408 280.26ZM115.95 263.712C115.362 264.793 114.009 265.192 112.928 264.604L107.057 261.409C105.976 260.821 105.577 259.468 106.165 258.388L107.23 256.431C107.818 255.35 109.171 254.95 110.251 255.538L116.122 258.733C117.203 259.321 117.603 260.674 117.015 261.755L115.95 263.712ZM99.2285 257.15C100.309 257.738 101.662 257.339 102.25 256.258L103.315 254.301C103.903 253.22 103.504 251.867 102.423 251.279L96.5522 248.084C95.4714 247.496 94.1184 247.896 93.5303 248.976L92.4654 250.933C91.8773 252.014 92.2767 253.367 93.3575 253.955L99.2285 257.15Z" fill="white"/>
<rect x="94.6514" y="302.852" width="6.68391" height="22.2797" rx="3.34195" transform="rotate(-151.448 94.6514 302.852)" fill="white"/>
<rect x="83.2549" y="286.504" width="5.86116" height="9.39647" rx="2.93058" transform="rotate(-151.448 83.2549 286.504)" fill="white"/>
<path d="M123.629 299.417C122.853 299.152 123.231 298.498 122.088 297.211C118.401 293.038 116.446 290.719 116.336 290.353C116.049 289.406 116.282 288.976 117.301 288.667C118.318 288.348 118.314 288.926 120.07 290.472C122.371 292.52 125.783 295.631 126.114 295.997C126.703 296.641 127.054 297.058 126.616 297.757C126.254 298.322 125.019 299.452 124.644 299.554C124.421 299.622 124.07 299.572 123.629 299.417Z" fill="white"/>
<path d="M61.1348 265.412C61.7788 265.919 62.1228 265.247 63.8245 265.508C69.3302 266.337 72.339 266.719 72.7069 266.613C73.6573 266.339 73.8925 265.91 73.598 264.886C73.3137 263.86 72.8301 264.176 70.5785 263.542C67.6095 262.722 63.1442 261.547 62.6566 261.468C61.7961 261.323 61.2557 261.255 60.9063 262.002C60.6284 262.613 60.3508 264.263 60.4684 264.633C60.5328 264.857 60.7648 265.126 61.1348 265.412Z" fill="white"/>
<path d="M130.826 292.157C130.626 292.107 130.562 291.352 130.295 291.2C124.972 288.134 121.938 286.308 121.638 285.966C121.276 285.576 120.814 285.589 120.976 285.129C121.039 284.954 121.312 284.516 121.596 284.152L122.11 283.474L122.77 283.508C123.286 283.529 123.706 284.092 125.507 284.869C129.861 286.728 132.834 288.083 133.097 288.337C133.429 288.67 133.764 288.801 133.66 289.299C133.563 289.784 132.77 291.224 132.35 291.673C131.984 292.073 131.328 292.283 130.826 292.157Z" fill="white"/>
<path d="M63.8731 255.725C64.0244 255.866 64.6922 255.51 64.9651 255.651C70.4303 258.455 73.611 260.011 74.0617 260.078C74.586 260.169 74.8257 260.564 75.1241 260.178C75.2365 260.031 75.4561 259.563 75.6073 259.127L75.8974 258.328L75.511 257.792C75.2125 257.37 74.5119 257.323 72.8816 256.233C68.9556 253.586 66.203 251.826 65.8474 251.744C65.3875 251.645 65.0956 251.435 64.7339 251.793C64.3793 252.138 63.6008 253.586 63.4517 254.183C63.3149 254.707 63.4949 255.371 63.8731 255.725Z" fill="white"/>
<path d="M135.513 282.601C135.023 282.516 133.785 282.257 132.756 282.036C131.737 281.811 129.896 281.435 128.682 281.18C126.193 280.656 125.408 280.361 125.126 279.813C124.526 278.672 124.292 278.609 125.45 278.259C126.066 278.072 135.893 278.974 136.674 279.294C137.585 279.662 138.608 279.153 138.347 280.587C138.049 282.322 137.217 282.907 135.513 282.601Z" fill="white"/>
<path d="M69.0488 246.437C69.3861 246.801 70.2754 247.7 71.0206 248.444C71.7627 249.178 73.0783 250.52 73.9512 251.4C75.7431 253.206 76.4178 253.705 77.0309 253.644C78.3146 253.528 78.4941 253.69 78.1597 252.528C77.9818 251.909 71.8871 244.148 71.1952 243.665C70.3907 243.1 70.2631 241.965 69.2004 242.963C67.9058 244.156 67.8661 245.172 69.0488 246.437Z" fill="white"/>
</g>
<defs>
<filter id="filter0_b_243_6302" x="-15.413" y="70.4434" width="256.522" height="464.398" filterUnits="userSpaceOnUse" color-interpolation-filters="sRGB">
<feFlood flood-opacity="0" result="BackgroundImageFix"/>
<feGaussianBlur in="BackgroundImageFix" stdDeviation="8"/>
<feComposite in2="SourceAlpha" operator="in" result="effect1_backgroundBlur_243_6302"/>
<feBlend mode="normal" in="SourceGraphic" in2="effect1_backgroundBlur_243_6302" result="shape"/>
</filter>
<filter id="filter1_b_243_6302" x="142.518" y="-15.4141" width="353.633" height="211.959" filterUnits="userSpaceOnUse" color-interpolation-filters="sRGB">
<feFlood flood-opacity="0" result="BackgroundImageFix"/>
<feGaussianBlur in="BackgroundImageFix" stdDeviation="8"/>
<feComposite in2="SourceAlpha" operator="in" result="effect1_backgroundBlur_243_6302"/>
<feBlend mode="normal" in="SourceGraphic" in2="effect1_backgroundBlur_243_6302" result="shape"/>
</filter>
<filter id="filter2_b_243_6302" x="432.701" y="5.69141" width="334.233" height="560.195" filterUnits="userSpaceOnUse" color-interpolation-filters="sRGB">
<feFlood flood-opacity="0" result="BackgroundImageFix"/>
<feGaussianBlur in="BackgroundImageFix" stdDeviation="8"/>
<feComposite in2="SourceAlpha" operator="in" result="effect1_backgroundBlur_243_6302"/>
<feBlend mode="normal" in="SourceGraphic" in2="effect1_backgroundBlur_243_6302" result="shape"/>
</filter>
<filter id="filter3_b_243_6302" x="20.8475" y="457.482" width="286.588" height="281.812" filterUnits="userSpaceOnUse" color-interpolation-filters="sRGB">
<feFlood flood-opacity="0" result="BackgroundImageFix"/>
<feGaussianBlur in="BackgroundImageFix" stdDeviation="8"/>
<feComposite in2="SourceAlpha" operator="in" result="effect1_backgroundBlur_243_6302"/>
<feBlend mode="normal" in="SourceGraphic" in2="effect1_backgroundBlur_243_6302" result="shape"/>
</filter>
<filter id="filter4_b_243_6302" x="237.838" y="480.451" width="474.489" height="286.744" filterUnits="userSpaceOnUse" color-interpolation-filters="sRGB">
<feFlood flood-opacity="0" result="BackgroundImageFix"/>
<feGaussianBlur in="BackgroundImageFix" stdDeviation="8"/>
<feComposite in2="SourceAlpha" operator="in" result="effect1_backgroundBlur_243_6302"/>
<feBlend mode="normal" in="SourceGraphic" in2="effect1_backgroundBlur_243_6302" result="shape"/>
</filter>
<linearGradient id="paint0_linear_243_6302" x1="568.415" y1="-78.0001" x2="447.442" y2="538.43" gradientUnits="userSpaceOnUse">
<stop stop-color="#838383" stop-opacity="0.56"/>
<stop offset="1" stop-color="#8E8E8E" stop-opacity="0.64"/>
</linearGradient>
<linearGradient id="paint1_linear_243_6302" x1="568.415" y1="-78.0001" x2="447.442" y2="538.43" gradientUnits="userSpaceOnUse">
<stop stop-color="#838383" stop-opacity="0.56"/>
<stop offset="1" stop-color="#8E8E8E" stop-opacity="0.64"/>
</linearGradient>
<linearGradient id="paint2_linear_243_6302" x1="77.6242" y1="767.591" x2="346.23" y2="199.724" gradientUnits="userSpaceOnUse">
<stop stop-color="#4A70F8"/>
<stop offset="1" stop-color="#1246FF"/>
</linearGradient>
<linearGradient id="paint3_linear_243_6302" x1="53.6836" y1="2.8014" x2="553.294" y2="383.603" gradientUnits="userSpaceOnUse">
<stop stop-color="#838383" stop-opacity="0.56"/>
<stop offset="1" stop-color="#8E8E8E" stop-opacity="0.64"/>
</linearGradient>
<linearGradient id="paint4_linear_243_6302" x1="53.6836" y1="2.8014" x2="553.294" y2="383.603" gradientUnits="userSpaceOnUse">
<stop stop-color="#838383" stop-opacity="0.56"/>
<stop offset="1" stop-color="#8E8E8E" stop-opacity="0.64"/>
</linearGradient>
<clipPath id="clip0_243_6302">
<rect width="752" height="752" fill="white"/>
</clipPath>
<clipPath id="clip1_243_6302">
<rect width="65.7176" height="65.7176" fill="white" transform="translate(559.201 631.25) rotate(113.203)"/>
</clipPath>
</defs>
</svg>
