<svg width="964" height="964" viewBox="0 0 964 964" fill="none" xmlns="http://www.w3.org/2000/svg">
<g filter="url(#filter0_b_243_7605)">
<path d="M273.522 697.364C266.356 704.783 254.488 705.023 247.502 697.434C220.634 668.244 199.418 634.247 185.002 597.168C170.586 560.089 163.266 520.689 163.362 481.016C163.387 470.702 172.3 462.862 182.596 463.492L265.182 468.541C275.477 469.17 283.221 478.039 283.562 488.348C284.301 510.669 288.807 532.752 296.933 553.651C305.058 574.55 316.651 593.877 331.184 610.836C337.895 618.668 338.176 630.438 331.01 637.856L273.522 697.364Z" fill="url(#paint0_linear_243_7605)"/>
</g>
<g filter="url(#filter1_b_243_7605)">
<path d="M184.834 440.93C174.616 439.524 167.417 430.086 169.419 419.967C179.681 368.109 202.718 319.517 236.565 278.656C270.413 237.794 313.868 206.116 362.911 186.382C372.479 182.531 383.093 187.848 386.376 197.626L412.712 276.063C415.995 285.841 410.683 296.349 401.257 300.537C373.364 312.929 348.626 331.631 329.049 355.265C309.471 378.899 295.701 406.685 288.716 436.397C286.356 446.438 277.021 453.613 266.802 452.207L184.834 440.93Z" fill="url(#paint1_linear_243_7605)"/>
</g>
<g filter="url(#filter2_b_243_7605)">
<path d="M417.936 188.399C415.743 178.32 422.131 168.315 432.321 166.717C470.75 160.69 510.013 161.748 548.157 169.894C592.397 179.342 634.117 198.108 670.537 224.943C706.957 251.777 737.241 286.064 759.371 325.519C778.453 359.537 791.095 396.723 796.725 435.213C798.217 445.418 790.554 454.484 780.278 455.376L697.848 462.53C687.572 463.422 678.608 455.789 676.754 445.642C672.826 424.146 665.363 403.403 654.631 384.269C640.847 359.695 621.984 338.339 599.3 321.625C576.616 304.911 550.631 293.223 523.076 287.338C501.621 282.756 479.599 281.775 457.904 284.392C447.663 285.627 437.717 279.327 435.524 269.248L417.936 188.399Z" fill="url(#paint2_linear_243_7605)"/>
</g>
<g filter="url(#filter3_b_243_7605)">
<path d="M571.499 768.168C574.582 778.011 569.113 788.546 559.107 791.048C514.128 802.291 467.159 803.595 421.491 794.773C375.823 785.951 332.718 767.247 295.163 740.06C286.808 734.012 285.657 722.197 292.184 714.211L344.548 650.149C351.076 642.163 362.798 641.063 371.363 646.811C393.356 661.571 418.138 671.813 444.268 676.861C470.398 681.908 497.212 681.634 523.121 676.127C533.21 673.982 543.679 679.369 546.762 689.212L571.499 768.168Z" fill="url(#paint3_linear_243_7605)"/>
</g>
<g filter="url(#filter4_b_243_7605)">
<path d="M781.628 480.709C791.943 480.66 800.401 488.99 799.845 499.289C796.761 556.447 778.314 611.845 746.289 659.566C714.265 707.288 669.991 745.354 618.265 769.869C608.944 774.287 598.031 769.616 594.167 760.053L563.174 683.337C559.31 673.773 563.982 662.966 573.14 658.22C602.65 642.928 627.938 620.411 646.57 592.647C665.202 564.883 676.455 532.947 679.423 499.843C680.344 489.57 688.575 481.151 698.889 481.102L781.628 480.709Z" fill="url(#paint4_linear_243_7605)"/>
</g>
<path d="M740.702 602.848C740.385 602.497 740.124 602.846 739.182 602.533C736.131 601.526 734.457 601.017 734.237 601.042C733.67 601.105 733.495 601.326 733.563 601.937C733.625 602.549 733.931 602.415 735.15 602.995C736.759 603.749 739.184 604.851 739.454 604.943C739.929 605.11 740.23 605.201 740.501 604.81C740.718 604.489 741.036 603.578 741.005 603.356C740.991 603.222 740.885 603.047 740.702 602.848Z" fill="white"/>
<path d="M735.706 613.337C735.634 613.242 735.22 613.38 735.078 613.273C732.242 611.148 730.584 609.954 730.335 609.872C730.045 609.769 729.947 609.521 729.74 609.712C729.662 609.785 729.492 610.03 729.363 610.263L729.121 610.689L729.288 611.031C729.417 611.301 729.811 611.396 730.632 612.174C732.608 614.06 734.003 615.328 734.197 615.41C734.449 615.51 734.594 615.658 734.835 615.49C735.07 615.328 735.653 614.58 735.796 614.255C735.925 613.97 735.887 613.575 735.706 613.337Z" fill="white"/>
<path d="M733.051 592.117C732.826 591.092 732.568 590.496 732.115 589.915C731.325 588.921 730.299 588.585 728.646 588.762C726.244 589.03 723.827 590.382 720.841 593.118C717.251 596.41 714.375 600.119 712.102 604.373C710.366 607.633 709.616 609.875 709.429 612.408C709.246 614.864 710.134 616.678 711.827 617.307C713.656 617.986 715.939 617.364 718.866 615.376C721.702 613.462 724.112 611.048 726.919 607.321C728.876 604.72 730.049 602.843 731.118 600.579C732.311 598.049 733.005 595.801 733.141 593.975C733.183 593.468 733.137 592.494 733.051 592.117ZM729.41 594.726C729.226 596.789 728.028 599.667 726.014 602.861C725.327 603.949 723.044 606.948 722.141 607.938C720.084 610.196 717.755 612.111 716.097 612.915C715.142 613.375 713.861 613.57 713.506 613.313C713.162 613.055 713.028 612.071 713.195 611.028C713.511 609.041 714.451 606.836 716.176 603.984C718.089 600.826 720.354 598.1 722.962 595.806C724.884 594.11 726.126 593.34 727.567 592.928C728.429 592.684 729.006 592.768 729.231 593.174C729.376 593.429 729.459 594.167 729.41 594.726Z" fill="white"/>
<path d="M722.973 600.134C722.848 599.852 722.584 599.417 722.385 599.182L722.25 599.023L721.663 599.681C720.577 600.904 717.952 604.437 717.717 604.985C717.692 605.039 717.825 605.127 718.085 605.246C719.149 605.708 720.045 605.601 721.179 604.863C721.864 604.419 722.542 603.526 722.859 602.659C722.977 602.33 723.101 601.898 723.135 601.701C723.205 601.274 723.122 600.478 722.973 600.134Z" fill="white"/>
<path d="M723.661 588.357C723.41 588.379 723.135 588.397 723.049 588.4C722.962 588.403 722.508 588.428 722.036 588.455C719.154 588.628 716.66 588.075 714.408 586.754C713.384 586.153 712.354 585.385 710.267 583.666C708.194 581.958 707.787 581.681 707.045 581.506C706.697 581.429 706.493 581.426 705.92 581.49C705.115 581.58 704.651 581.741 703.586 582.317C702.084 583.129 701.062 583.984 700.052 585.281C698.934 586.714 698.224 588.326 697.8 590.39C697.63 591.188 697.615 591.383 697.655 591.971C697.718 592.808 697.844 593.219 698.236 593.859C698.522 594.323 698.66 594.449 700.348 595.859C702.295 597.484 703.538 598.614 704.181 599.342C705.81 601.164 706.955 603.291 707.519 605.528C707.606 605.872 707.785 606.812 707.913 607.622L708.157 609.09L708.672 607.731C708.953 606.985 709.327 605.97 709.501 605.481L709.821 604.588L709.754 604.035C709.65 603.158 709.03 601.475 708.327 600.155C708.078 599.687 707.447 598.681 707.134 598.252C706.806 597.806 706.773 597.507 706.96 596.635C707.126 595.857 707.421 595.128 707.906 594.269C709.056 592.234 710.627 590.661 712.315 589.854C712.971 589.536 713.2 589.543 713.977 589.92C715.502 590.646 717.204 591.074 719.082 591.194C719.66 591.232 719.894 591.225 720.059 591.155C720.266 591.068 722.782 589.332 723.664 588.66L724.119 588.313L723.661 588.357Z" fill="white"/>
<path d="M727.035 620.765C726.879 620.524 726.46 619.927 726.109 619.431C725.758 618.942 725.14 618.051 724.729 617.466C723.885 616.265 723.55 615.916 723.196 615.891C722.454 615.832 722.368 615.722 722.445 616.416C722.486 616.785 725.199 621.791 725.546 622.132C725.948 622.532 725.91 623.19 726.612 622.725C727.464 622.173 727.585 621.599 727.035 620.765Z" fill="white"/>
<path d="M702.217 600.603C702.038 600.135 701.812 599.891 700.608 598.887C700.014 598.394 699.171 597.696 698.738 597.334L697.953 596.686L697.161 598.358C696.725 599.277 696.006 600.835 695.557 601.819C694.056 605.134 693.811 605.925 693.982 606.981C694.154 608.044 694.428 608.353 696.809 610.181C699.254 612.059 699.739 612.408 700.149 612.56C700.566 612.719 700.803 612.699 701.158 612.476C701.849 612.045 702.384 610.635 702.264 609.559C702.234 609.293 702.164 608.962 702.11 608.833C701.258 606.75 701.265 606.806 701.657 605.128C702.433 601.767 702.491 601.329 702.217 600.603Z" fill="white"/>
<path d="M655.191 619.778L651.823 617.124L649.996 618.296L648.215 616.892L657.93 610.821L659.905 612.377L656.272 623.242L654.479 621.829L655.191 619.778ZM655.8 618.058L657.365 613.557L653.353 616.13L655.8 618.058ZM664.641 629.837L662.945 628.501L663.678 619.671L659.104 625.474L657.408 624.137L664.082 615.669L665.778 617.006L665.036 625.847L669.619 620.032L671.315 621.369L664.641 629.837ZM673.55 636.858L671.853 635.521L672.586 626.692L668.013 632.495L666.317 631.158L672.991 622.69L674.687 624.027L673.944 632.868L678.527 627.053L680.223 628.39L673.55 636.858ZM679.084 641.357C678.292 640.733 677.712 639.975 677.342 639.081C676.973 638.188 676.852 637.261 676.98 636.302C677.114 635.334 677.509 634.434 678.165 633.602C678.814 632.778 679.59 632.192 680.494 631.843C681.403 631.487 682.336 631.383 683.291 631.534C684.246 631.684 685.119 632.071 685.911 632.695C686.71 633.325 687.291 634.084 687.652 634.971C688.021 635.864 688.135 636.792 687.993 637.753C687.865 638.713 687.476 639.605 686.827 640.429C686.171 641.261 685.389 641.855 684.479 642.212C683.584 642.567 682.659 642.669 681.704 642.519C680.749 642.368 679.875 641.981 679.084 641.357ZM680.277 639.843C680.786 640.244 681.324 640.484 681.89 640.563C682.462 640.635 683.026 640.542 683.581 640.286C684.136 640.03 684.637 639.619 685.082 639.054C685.528 638.488 685.807 637.91 685.92 637.318C686.039 636.718 685.994 636.152 685.785 635.621C685.575 635.089 685.216 634.623 684.708 634.222C684.199 633.821 683.657 633.577 683.083 633.492C682.517 633.412 681.957 633.501 681.401 633.757C680.852 634.005 680.355 634.412 679.909 634.977C679.464 635.542 679.181 636.125 679.062 636.725C678.943 637.325 678.985 637.895 679.188 638.434C679.405 638.972 679.769 639.442 680.277 639.843ZM693.074 638.537L688.949 643.77C688.497 644.344 688.3 644.902 688.357 645.444C688.42 645.979 688.722 646.459 689.263 646.885C689.813 647.318 690.354 647.503 690.889 647.44C691.429 647.368 691.926 647.046 692.378 646.472L696.502 641.239L698.21 642.585L694.095 647.806C693.529 648.525 692.891 649.011 692.181 649.263C691.486 649.514 690.777 649.558 690.055 649.395C689.341 649.238 688.665 648.908 688.027 648.405C687.397 647.908 686.922 647.331 686.602 646.674C686.291 646.022 686.18 645.332 686.269 644.604C686.365 643.868 686.696 643.14 687.263 642.422L691.378 637.2L693.074 638.537ZM700.417 658.033L698.721 656.696L699.454 647.866L694.881 653.669L693.185 652.333L699.859 643.864L701.555 645.201L700.812 654.043L705.395 648.228L707.091 649.564L700.417 658.033ZM705.023 654.789C705.679 653.957 706.45 653.36 707.337 652.999C708.239 652.636 709.156 652.527 710.088 652.673C711.035 652.817 711.913 653.207 712.72 653.844C713.665 654.588 714.302 655.483 714.631 656.528C714.96 657.572 714.928 658.634 714.536 659.713L712.586 658.176C712.71 657.619 712.674 657.1 712.478 656.618C712.29 656.142 711.966 655.723 711.505 655.36C711.013 654.972 710.48 654.742 709.908 654.671C709.35 654.598 708.797 654.686 708.248 654.934C707.707 655.188 707.213 655.598 706.768 656.164C706.329 656.721 706.045 657.296 705.918 657.89C705.805 658.482 705.846 659.044 706.041 659.578C706.251 660.109 706.602 660.569 707.094 660.957C707.555 661.32 708.038 661.538 708.544 661.609C709.065 661.679 709.582 661.589 710.094 661.338L712.044 662.875C711.081 663.516 710.052 663.799 708.96 663.724C707.882 663.647 706.866 663.232 705.913 662.481C705.105 661.845 704.518 661.087 704.15 660.208C703.797 659.327 703.688 658.41 703.824 657.457C703.968 656.51 704.368 655.621 705.023 654.789ZM718.674 660.931L717.003 663.052L719.85 665.295L718.79 666.64L715.943 664.396L714.177 666.638L717.388 669.168L716.299 670.549L711.393 666.682L718.066 658.214L722.973 662.08L721.884 663.462L718.674 660.931Z" fill="white"/>
<path d="M340.367 295.176C341.14 295.831 341.726 296.554 342.127 297.348C342.516 298.132 342.68 298.925 342.619 299.727C342.557 300.53 342.245 301.274 341.682 301.96L339.301 299.943C339.655 299.461 339.801 298.967 339.739 298.461C339.667 297.945 339.377 297.472 338.869 297.042C338.35 296.603 337.84 296.379 337.337 296.372C336.826 296.375 336.4 296.577 336.059 296.98C335.782 297.308 335.654 297.663 335.675 298.045C335.697 298.427 335.812 298.806 336.021 299.182C336.209 299.56 336.506 300.047 336.909 300.643C337.449 301.464 337.862 302.168 338.147 302.755C338.412 303.343 338.534 303.982 338.512 304.673C338.471 305.365 338.155 306.06 337.563 306.759C337.008 307.415 336.36 307.847 335.619 308.056C334.879 308.265 334.105 308.246 333.297 307.998C332.481 307.76 331.691 307.319 330.929 306.674C329.787 305.706 329.098 304.641 328.864 303.48C328.611 302.32 328.868 301.211 329.636 300.154L332.081 302.224C331.779 302.623 331.679 303.074 331.78 303.577C331.861 304.082 332.15 304.545 332.648 304.967C333.082 305.334 333.525 305.519 333.978 305.521C334.42 305.514 334.82 305.298 335.179 304.875C335.43 304.579 335.545 304.249 335.525 303.887C335.485 303.526 335.376 303.161 335.198 302.792C335 302.425 334.704 301.938 334.309 301.331C333.769 300.51 333.361 299.801 333.085 299.204C332.81 298.607 332.687 297.958 332.717 297.257C332.748 296.555 333.054 295.861 333.637 295.173C334.139 294.58 334.758 294.16 335.495 293.912C336.232 293.664 337.027 293.638 337.88 293.833C338.723 294.038 339.553 294.486 340.367 295.176ZM317.502 295.028L319.021 293.235L321.974 295.735L329.839 286.45L332.061 288.332L324.196 297.618L327.148 300.118L325.629 301.912L317.502 295.028ZM316.683 278.933L321.096 282.67L323.614 281.177L325.947 283.154L312.566 290.875L309.978 288.683L315.392 274.213L317.741 276.203L316.683 278.933ZM315.78 281.221L313.458 287.214L318.987 283.937L315.78 281.221ZM299.627 274.164C299.487 274.845 299.536 275.495 299.774 276.115C300.012 276.735 300.428 277.296 301.02 277.798C301.676 278.353 302.384 278.698 303.143 278.832C303.902 278.966 304.657 278.879 305.409 278.571C306.161 278.262 306.841 277.748 307.451 277.029C308.078 276.288 308.482 275.522 308.662 274.729C308.832 273.928 308.783 273.16 308.516 272.424C308.248 271.689 307.77 271.03 307.083 270.447C306.236 269.73 305.355 269.365 304.438 269.353C303.513 269.351 302.626 269.68 301.775 270.341L305.585 273.567L304.146 275.266L298.146 270.184L299.786 268.247C300.589 267.6 301.511 267.155 302.554 266.911C303.596 266.667 304.674 266.671 305.787 266.924C306.881 267.177 307.903 267.708 308.856 268.514C309.925 269.42 310.691 270.478 311.156 271.689C311.601 272.902 311.709 274.147 311.48 275.426C311.241 276.695 310.66 277.875 309.737 278.965C308.813 280.055 307.745 280.822 306.533 281.267C305.3 281.714 304.054 281.812 302.793 281.562C301.513 281.314 300.344 280.742 299.286 279.845C298.037 278.788 297.213 277.562 296.812 276.169C296.402 274.786 296.489 273.396 297.072 272L299.627 274.164ZM291.631 270.036L293.984 267.258L290.254 264.099L291.746 262.337L295.476 265.496L297.963 262.56L293.757 258.997L295.29 257.188L301.718 262.633L292.321 273.728L285.892 268.283L287.425 266.474L291.631 270.036Z" fill="white"/>
<mask id="path-15-outside-1_243_7605" maskUnits="userSpaceOnUse" x="234.996" y="285.119" width="85.9724" height="85.9724" fill="black">
<rect fill="white" x="234.996" y="285.119" width="85.9724" height="85.9724"/>
<path d="M267.23 357.341C267.808 357.674 268.152 357.73 269.042 357.641C269.794 357.572 270.797 357.814 271.201 358.156C271.596 358.491 271.751 358.308 271.782 357.452L271.803 356.803L270.732 355.896C269.809 355.115 269.645 354.917 269.555 354.488C269.441 353.999 272.706 350.144 273.463 349.197L274.21 348.262L275.684 348.98C280.104 351.117 285.012 352.215 288.943 351.937L289.713 351.884L285.931 356.349C284.104 358.506 284.172 358.23 285.328 358.896C285.924 359.224 286.204 359.285 287.156 359.248C288.052 359.223 288.405 359.287 288.976 359.575C289.359 359.781 289.71 359.902 289.749 359.856C289.797 359.799 289.859 359.459 289.895 359.078L289.954 358.403L288.821 357.443C287.863 356.632 289.858 353.849 289.777 353.447C289.687 353.018 289.718 352.946 290.221 352.353C290.743 351.736 290.789 351.717 291.684 351.534C293.639 351.131 295.606 350.091 297.078 348.691C299.324 346.556 300.633 343.39 300.692 339.99L300.714 338.538L302.29 336.677L303.866 334.817L303.849 335.39C303.822 336.935 303.347 338.69 302.588 340.066C302.158 340.859 302.147 340.908 302.462 340.607C303.666 339.47 304.723 336.993 305.007 334.646L305.172 333.276L306.554 331.643L307.946 330.018L307.846 331.365C307.742 332.806 307.353 334.084 306.665 335.305C306.286 336.003 306.276 336.015 306.629 335.687C307.107 335.229 307.806 334.154 308.235 333.204C309.356 330.703 309.494 326.801 308.587 323.347C307.721 320.006 306.116 316.647 303.883 313.442C303.421 312.776 303.026 312.226 303.009 312.212C302.991 312.197 303.104 311.939 303.264 311.643C303.415 311.34 303.536 311.09 303.528 311.083C303.413 310.986 302.286 310.678 302.248 310.724C302.209 310.769 301.276 312.548 300.189 314.686C299.084 316.827 298.116 318.576 298.043 318.592C297.84 318.617 295.901 317.719 294.29 316.825C293.034 316.134 292.496 315.737 290.168 313.765C287.84 311.794 287.36 311.328 286.472 310.203C285.325 308.761 284.12 306.996 284.111 306.792C284.115 306.717 285.68 305.474 287.611 304.032C289.541 302.608 291.141 301.395 291.18 301.35C291.218 301.304 290.729 300.243 290.615 300.146C290.606 300.139 290.38 300.299 290.105 300.498C289.84 300.705 289.604 300.858 289.587 300.843C289.429 300.71 286.611 299.441 285.642 299.071C277.909 296.108 270.646 296.525 266.712 300.173C266.379 300.478 265.984 300.908 265.836 301.136C265.591 301.497 265.666 301.462 266.489 300.846C267.654 299.951 268.793 299.426 270.149 299.143L271.21 298.924L269.827 300.556L268.445 302.189L267.38 302.483C264.853 303.205 262.67 304.571 261.669 306.056C261.424 306.417 261.47 306.398 262.181 305.843C263.273 304.964 264.507 304.362 265.92 304.011L267.15 303.699L265.612 305.533L264.074 307.348L262.654 307.636C260.921 307.972 259.668 308.419 258.325 309.203C256.419 310.314 255.105 311.633 254.108 313.415C253.331 314.796 252.887 316.282 252.655 318.105C252.498 319.521 252.456 319.642 252.02 320.155C251.605 320.646 251.511 320.704 251.083 320.675C250.681 320.668 248.265 323.094 247.307 322.283L246.174 321.323L245.518 321.492C245.148 321.591 244.823 321.707 244.774 321.764C244.736 321.81 244.912 322.136 245.179 322.48C245.557 322.996 245.678 323.334 245.801 324.222C245.928 325.212 246.018 325.425 246.501 326.031C246.822 326.4 247.145 326.713 247.218 326.716C247.309 326.715 247.973 326.003 248.862 324.953C249.684 323.982 252.546 320.639 252.572 320.662C252.598 320.684 252.646 321.038 252.672 321.452C252.995 325.078 255.205 330.342 258.072 334.259L258.758 335.194L257.958 336.085C257.159 336.976 253.894 340.831 253.393 340.799C252.955 340.781 252.733 340.652 251.811 339.87L250.739 338.963L250.103 339.091C249.264 339.262 249.109 339.445 249.504 339.779C249.917 340.129 250.311 341.071 250.366 341.862C250.425 342.735 250.631 343.204 251.247 343.902L251.777 344.488L253.817 342.079C255.78 339.762 259.131 335.823 259.298 335.964C259.385 336.039 259.837 336.539 260.278 337.069C263.477 340.897 268.487 345.081 272.697 347.431L273.595 347.937L268.261 354.235L266.202 356.666L266.449 356.856C266.599 356.964 266.945 357.178 267.23 357.341ZM264.45 336.917C263.232 335.611 261.837 333.999 261.833 333.897C261.834 333.878 264.17 332.759 267.036 331.423L272.238 328.986L272.703 329.399C273.307 329.95 276.979 333.06 277.622 333.565L278.106 333.956L276.568 339.476C275.713 342.516 275.011 345.019 274.992 345.042C274.953 345.087 273.123 343.988 271.706 343.043C269.872 341.843 265.989 338.554 264.45 336.917ZM278.026 340.319C278.871 337.309 279.599 334.829 279.646 334.809C279.691 334.809 280.255 335.051 280.917 335.357C283.268 336.446 285.425 336.998 287.431 337.051C288.453 337.074 288.597 337.117 288.649 337.377C288.678 337.539 289.184 340.183 289.771 343.248L290.833 348.833L290.254 348.911C287.956 349.22 284.803 348.882 281.84 347.999C280.561 347.621 277.037 346.225 276.64 345.928C276.533 345.857 276.983 344.062 278.026 340.319ZM259.571 330.726C257.422 327.279 256.171 324.161 255.66 321.023C255.28 318.622 254.63 318.856 261.161 319.016C264.281 319.091 266.964 319.147 267.128 319.149C267.393 319.158 267.459 319.293 267.65 320.297C268.032 322.268 268.932 324.304 270.394 326.444C270.804 327.046 271.136 327.562 271.143 327.607C271.127 327.751 260.81 332.54 260.696 332.443C260.643 332.399 260.141 331.62 259.571 330.726ZM291.489 342.448L290.387 336.732L291.132 336.422C293.144 335.596 294.432 333.648 294.555 331.223C294.63 330.013 294.559 329.972 295.529 331.872C297.544 335.834 298.3 340.16 297.515 343.259C297.034 345.145 296.437 345.992 294.668 347.298C293.846 347.895 292.696 348.45 292.622 348.27C292.607 348.218 292.09 345.604 291.489 342.448ZM255.818 316.295C256.691 313.27 258.653 311.54 262.03 310.813C264.005 310.387 265.476 310.359 267.926 310.709C269.459 310.929 272.889 311.795 273.179 312.041C273.214 312.071 272.77 312.204 272.188 312.338C269.825 312.866 268.145 314.423 267.661 316.543L267.478 317.329L261.621 317.191C258.4 317.129 255.737 317.049 255.702 317.02C255.657 317.001 255.709 316.673 255.818 316.295ZM300.272 335.89C300.111 335.047 299.645 333.496 299.124 332.133L298.652 330.91L300.182 329.05C301.053 328.003 301.748 327.219 301.792 327.256C302.046 327.472 303.175 330.663 303.477 332.017L303.653 332.754L302.057 334.637C301.177 335.676 300.444 336.506 300.418 336.484C300.392 336.461 300.331 336.194 300.272 335.89ZM269.528 303.616C270.316 303.558 274.658 304.275 274.939 304.513C274.983 304.55 274.331 305.39 273.49 306.384L271.953 308.199L270.352 307.862C269.465 307.699 268.149 307.506 267.421 307.458L266.101 307.36L267.632 305.499C269.132 303.692 269.171 303.647 269.528 303.616ZM297.042 327.841C294.693 323.793 291.799 320.46 287.45 316.796C282.76 312.823 278.751 310.467 273.825 308.785C273.636 308.723 273.743 308.578 275.174 306.889L276.721 305.062L277.197 305.249C277.465 305.359 277.942 305.527 278.265 305.644C278.902 305.889 280.565 306.651 281.822 307.304C282.616 307.702 282.677 307.773 283.316 308.746C284.302 310.307 285.781 312.088 287.429 313.739C289.776 316.08 293.175 318.39 296.246 319.697C297.311 320.168 297.391 320.216 297.914 320.934C298.765 322.066 299.79 323.581 300.137 324.169C300.297 324.461 300.55 324.911 300.694 325.15L300.965 325.596L299.428 327.411C298.577 328.416 297.863 329.223 297.846 329.208C297.828 329.193 297.465 328.571 297.042 327.841ZM304.084 326.865L303.51 325.085L304.69 323.692C305.347 322.916 305.888 322.296 305.905 322.31C305.958 322.355 306.695 324.156 306.946 324.858C307.09 325.275 307.343 326.116 307.487 326.748L307.771 327.89L306.398 329.511L305.016 331.144L304.819 329.899C304.723 329.21 304.385 327.845 304.084 326.865ZM273.584 298.739C274.308 298.685 278.894 299.433 279.149 299.649C279.167 299.664 278.644 300.299 277.986 301.075L276.806 302.468L274.956 302.195C273.94 302.059 272.557 301.946 271.88 301.962L270.655 301.983L271.973 300.374C273.154 298.943 273.327 298.757 273.584 298.739ZM302.254 322.453C302.03 321.988 301.424 320.887 300.88 320.015C300.346 319.131 299.908 318.348 299.912 318.273C299.925 318.186 300.209 317.584 300.56 316.901C300.902 316.23 301.225 315.582 301.276 315.469C301.347 315.313 301.445 315.376 301.808 315.802C302.328 316.399 303.508 318.123 304.45 319.647L305.113 320.699L303.963 322.057C303.324 322.811 302.777 323.386 302.742 323.356C302.698 323.319 302.479 322.918 302.254 322.453ZM279.719 301.523L280.869 300.165L282.007 300.638C283.673 301.324 285.568 302.204 286.243 302.619C286.723 302.907 286.801 302.993 286.659 303.089C286.556 303.158 285.97 303.583 285.364 304.031C284.749 304.49 284.201 304.869 284.118 304.896C284.044 304.912 283.2 304.609 282.24 304.228C281.291 303.835 280.123 303.415 279.654 303.292C279.186 303.15 278.745 303.012 278.683 302.96C278.594 302.904 278.858 302.539 279.719 301.523Z"/>
</mask>
<path d="M267.23 357.341C267.808 357.674 268.152 357.73 269.042 357.641C269.794 357.572 270.797 357.814 271.201 358.156C271.596 358.491 271.751 358.308 271.782 357.452L271.803 356.803L270.732 355.896C269.809 355.115 269.645 354.917 269.555 354.488C269.441 353.999 272.706 350.144 273.463 349.197L274.21 348.262L275.684 348.98C280.104 351.117 285.012 352.215 288.943 351.937L289.713 351.884L285.931 356.349C284.104 358.506 284.172 358.23 285.328 358.896C285.924 359.224 286.204 359.285 287.156 359.248C288.052 359.223 288.405 359.287 288.976 359.575C289.359 359.781 289.71 359.902 289.749 359.856C289.797 359.799 289.859 359.459 289.895 359.078L289.954 358.403L288.821 357.443C287.863 356.632 289.858 353.849 289.777 353.447C289.687 353.018 289.718 352.946 290.221 352.353C290.743 351.736 290.789 351.717 291.684 351.534C293.639 351.131 295.606 350.091 297.078 348.691C299.324 346.556 300.633 343.39 300.692 339.99L300.714 338.538L302.29 336.677L303.866 334.817L303.849 335.39C303.822 336.935 303.347 338.69 302.588 340.066C302.158 340.859 302.147 340.908 302.462 340.607C303.666 339.47 304.723 336.993 305.007 334.646L305.172 333.276L306.554 331.643L307.946 330.018L307.846 331.365C307.742 332.806 307.353 334.084 306.665 335.305C306.286 336.003 306.276 336.015 306.629 335.687C307.107 335.229 307.806 334.154 308.235 333.204C309.356 330.703 309.494 326.801 308.587 323.347C307.721 320.006 306.116 316.647 303.883 313.442C303.421 312.776 303.026 312.226 303.009 312.212C302.991 312.197 303.104 311.939 303.264 311.643C303.415 311.34 303.536 311.09 303.528 311.083C303.413 310.986 302.286 310.678 302.248 310.724C302.209 310.769 301.276 312.548 300.189 314.686C299.084 316.827 298.116 318.576 298.043 318.592C297.84 318.617 295.901 317.719 294.29 316.825C293.034 316.134 292.496 315.737 290.168 313.765C287.84 311.794 287.36 311.328 286.472 310.203C285.325 308.761 284.12 306.996 284.111 306.792C284.115 306.717 285.68 305.474 287.611 304.032C289.541 302.608 291.141 301.395 291.18 301.35C291.218 301.304 290.729 300.243 290.615 300.146C290.606 300.139 290.38 300.299 290.105 300.498C289.84 300.705 289.604 300.858 289.587 300.843C289.429 300.71 286.611 299.441 285.642 299.071C277.909 296.108 270.646 296.525 266.712 300.173C266.379 300.478 265.984 300.908 265.836 301.136C265.591 301.497 265.666 301.462 266.489 300.846C267.654 299.951 268.793 299.426 270.149 299.143L271.21 298.924L269.827 300.556L268.445 302.189L267.38 302.483C264.853 303.205 262.67 304.571 261.669 306.056C261.424 306.417 261.47 306.398 262.181 305.843C263.273 304.964 264.507 304.362 265.92 304.011L267.15 303.699L265.612 305.533L264.074 307.348L262.654 307.636C260.921 307.972 259.668 308.419 258.325 309.203C256.419 310.314 255.105 311.633 254.108 313.415C253.331 314.796 252.887 316.282 252.655 318.105C252.498 319.521 252.456 319.642 252.02 320.155C251.605 320.646 251.511 320.704 251.083 320.675C250.681 320.668 248.265 323.094 247.307 322.283L246.174 321.323L245.518 321.492C245.148 321.591 244.823 321.707 244.774 321.764C244.736 321.81 244.912 322.136 245.179 322.48C245.557 322.996 245.678 323.334 245.801 324.222C245.928 325.212 246.018 325.425 246.501 326.031C246.822 326.4 247.145 326.713 247.218 326.716C247.309 326.715 247.973 326.003 248.862 324.953C249.684 323.982 252.546 320.639 252.572 320.662C252.598 320.684 252.646 321.038 252.672 321.452C252.995 325.078 255.205 330.342 258.072 334.259L258.758 335.194L257.958 336.085C257.159 336.976 253.894 340.831 253.393 340.799C252.955 340.781 252.733 340.652 251.811 339.87L250.739 338.963L250.103 339.091C249.264 339.262 249.109 339.445 249.504 339.779C249.917 340.129 250.311 341.071 250.366 341.862C250.425 342.735 250.631 343.204 251.247 343.902L251.777 344.488L253.817 342.079C255.78 339.762 259.131 335.823 259.298 335.964C259.385 336.039 259.837 336.539 260.278 337.069C263.477 340.897 268.487 345.081 272.697 347.431L273.595 347.937L268.261 354.235L266.202 356.666L266.449 356.856C266.599 356.964 266.945 357.178 267.23 357.341ZM264.45 336.917C263.232 335.611 261.837 333.999 261.833 333.897C261.834 333.878 264.17 332.759 267.036 331.423L272.238 328.986L272.703 329.399C273.307 329.95 276.979 333.06 277.622 333.565L278.106 333.956L276.568 339.476C275.713 342.516 275.011 345.019 274.992 345.042C274.953 345.087 273.123 343.988 271.706 343.043C269.872 341.843 265.989 338.554 264.45 336.917ZM278.026 340.319C278.871 337.309 279.599 334.829 279.646 334.809C279.691 334.809 280.255 335.051 280.917 335.357C283.268 336.446 285.425 336.998 287.431 337.051C288.453 337.074 288.597 337.117 288.649 337.377C288.678 337.539 289.184 340.183 289.771 343.248L290.833 348.833L290.254 348.911C287.956 349.22 284.803 348.882 281.84 347.999C280.561 347.621 277.037 346.225 276.64 345.928C276.533 345.857 276.983 344.062 278.026 340.319ZM259.571 330.726C257.422 327.279 256.171 324.161 255.66 321.023C255.28 318.622 254.63 318.856 261.161 319.016C264.281 319.091 266.964 319.147 267.128 319.149C267.393 319.158 267.459 319.293 267.65 320.297C268.032 322.268 268.932 324.304 270.394 326.444C270.804 327.046 271.136 327.562 271.143 327.607C271.127 327.751 260.81 332.54 260.696 332.443C260.643 332.399 260.141 331.62 259.571 330.726ZM291.489 342.448L290.387 336.732L291.132 336.422C293.144 335.596 294.432 333.648 294.555 331.223C294.63 330.013 294.559 329.972 295.529 331.872C297.544 335.834 298.3 340.16 297.515 343.259C297.034 345.145 296.437 345.992 294.668 347.298C293.846 347.895 292.696 348.45 292.622 348.27C292.607 348.218 292.09 345.604 291.489 342.448ZM255.818 316.295C256.691 313.27 258.653 311.54 262.03 310.813C264.005 310.387 265.476 310.359 267.926 310.709C269.459 310.929 272.889 311.795 273.179 312.041C273.214 312.071 272.77 312.204 272.188 312.338C269.825 312.866 268.145 314.423 267.661 316.543L267.478 317.329L261.621 317.191C258.4 317.129 255.737 317.049 255.702 317.02C255.657 317.001 255.709 316.673 255.818 316.295ZM300.272 335.89C300.111 335.047 299.645 333.496 299.124 332.133L298.652 330.91L300.182 329.05C301.053 328.003 301.748 327.219 301.792 327.256C302.046 327.472 303.175 330.663 303.477 332.017L303.653 332.754L302.057 334.637C301.177 335.676 300.444 336.506 300.418 336.484C300.392 336.461 300.331 336.194 300.272 335.89ZM269.528 303.616C270.316 303.558 274.658 304.275 274.939 304.513C274.983 304.55 274.331 305.39 273.49 306.384L271.953 308.199L270.352 307.862C269.465 307.699 268.149 307.506 267.421 307.458L266.101 307.36L267.632 305.499C269.132 303.692 269.171 303.647 269.528 303.616ZM297.042 327.841C294.693 323.793 291.799 320.46 287.45 316.796C282.76 312.823 278.751 310.467 273.825 308.785C273.636 308.723 273.743 308.578 275.174 306.889L276.721 305.062L277.197 305.249C277.465 305.359 277.942 305.527 278.265 305.644C278.902 305.889 280.565 306.651 281.822 307.304C282.616 307.702 282.677 307.773 283.316 308.746C284.302 310.307 285.781 312.088 287.429 313.739C289.776 316.08 293.175 318.39 296.246 319.697C297.311 320.168 297.391 320.216 297.914 320.934C298.765 322.066 299.79 323.581 300.137 324.169C300.297 324.461 300.55 324.911 300.694 325.15L300.965 325.596L299.428 327.411C298.577 328.416 297.863 329.223 297.846 329.208C297.828 329.193 297.465 328.571 297.042 327.841ZM304.084 326.865L303.51 325.085L304.69 323.692C305.347 322.916 305.888 322.296 305.905 322.31C305.958 322.355 306.695 324.156 306.946 324.858C307.09 325.275 307.343 326.116 307.487 326.748L307.771 327.89L306.398 329.511L305.016 331.144L304.819 329.899C304.723 329.21 304.385 327.845 304.084 326.865ZM273.584 298.739C274.308 298.685 278.894 299.433 279.149 299.649C279.167 299.664 278.644 300.299 277.986 301.075L276.806 302.468L274.956 302.195C273.94 302.059 272.557 301.946 271.88 301.962L270.655 301.983L271.973 300.374C273.154 298.943 273.327 298.757 273.584 298.739ZM302.254 322.453C302.03 321.988 301.424 320.887 300.88 320.015C300.346 319.131 299.908 318.348 299.912 318.273C299.925 318.186 300.209 317.584 300.56 316.901C300.902 316.23 301.225 315.582 301.276 315.469C301.347 315.313 301.445 315.376 301.808 315.802C302.328 316.399 303.508 318.123 304.45 319.647L305.113 320.699L303.963 322.057C303.324 322.811 302.777 323.386 302.742 323.356C302.698 323.319 302.479 322.918 302.254 322.453ZM279.719 301.523L280.869 300.165L282.007 300.638C283.673 301.324 285.568 302.204 286.243 302.619C286.723 302.907 286.801 302.993 286.659 303.089C286.556 303.158 285.97 303.583 285.364 304.031C284.749 304.49 284.201 304.869 284.118 304.896C284.044 304.912 283.2 304.609 282.24 304.228C281.291 303.835 280.123 303.415 279.654 303.292C279.186 303.15 278.745 303.012 278.683 302.96C278.594 302.904 278.858 302.539 279.719 301.523Z" fill="white"/>
<path d="M267.23 357.341C267.808 357.674 268.152 357.73 269.042 357.641C269.794 357.572 270.797 357.814 271.201 358.156C271.596 358.491 271.751 358.308 271.782 357.452L271.803 356.803L270.732 355.896C269.809 355.115 269.645 354.917 269.555 354.488C269.441 353.999 272.706 350.144 273.463 349.197L274.21 348.262L275.684 348.98C280.104 351.117 285.012 352.215 288.943 351.937L289.713 351.884L285.931 356.349C284.104 358.506 284.172 358.23 285.328 358.896C285.924 359.224 286.204 359.285 287.156 359.248C288.052 359.223 288.405 359.287 288.976 359.575C289.359 359.781 289.71 359.902 289.749 359.856C289.797 359.799 289.859 359.459 289.895 359.078L289.954 358.403L288.821 357.443C287.863 356.632 289.858 353.849 289.777 353.447C289.687 353.018 289.718 352.946 290.221 352.353C290.743 351.736 290.789 351.717 291.684 351.534C293.639 351.131 295.606 350.091 297.078 348.691C299.324 346.556 300.633 343.39 300.692 339.99L300.714 338.538L302.29 336.677L303.866 334.817L303.849 335.39C303.822 336.935 303.347 338.69 302.588 340.066C302.158 340.859 302.147 340.908 302.462 340.607C303.666 339.47 304.723 336.993 305.007 334.646L305.172 333.276L306.554 331.643L307.946 330.018L307.846 331.365C307.742 332.806 307.353 334.084 306.665 335.305C306.286 336.003 306.276 336.015 306.629 335.687C307.107 335.229 307.806 334.154 308.235 333.204C309.356 330.703 309.494 326.801 308.587 323.347C307.721 320.006 306.116 316.647 303.883 313.442C303.421 312.776 303.026 312.226 303.009 312.212C302.991 312.197 303.104 311.939 303.264 311.643C303.415 311.34 303.536 311.09 303.528 311.083C303.413 310.986 302.286 310.678 302.248 310.724C302.209 310.769 301.276 312.548 300.189 314.686C299.084 316.827 298.116 318.576 298.043 318.592C297.84 318.617 295.901 317.719 294.29 316.825C293.034 316.134 292.496 315.737 290.168 313.765C287.84 311.794 287.36 311.328 286.472 310.203C285.325 308.761 284.12 306.996 284.111 306.792C284.115 306.717 285.68 305.474 287.611 304.032C289.541 302.608 291.141 301.395 291.18 301.35C291.218 301.304 290.729 300.243 290.615 300.146C290.606 300.139 290.38 300.299 290.105 300.498C289.84 300.705 289.604 300.858 289.587 300.843C289.429 300.71 286.611 299.441 285.642 299.071C277.909 296.108 270.646 296.525 266.712 300.173C266.379 300.478 265.984 300.908 265.836 301.136C265.591 301.497 265.666 301.462 266.489 300.846C267.654 299.951 268.793 299.426 270.149 299.143L271.21 298.924L269.827 300.556L268.445 302.189L267.38 302.483C264.853 303.205 262.67 304.571 261.669 306.056C261.424 306.417 261.47 306.398 262.181 305.843C263.273 304.964 264.507 304.362 265.92 304.011L267.15 303.699L265.612 305.533L264.074 307.348L262.654 307.636C260.921 307.972 259.668 308.419 258.325 309.203C256.419 310.314 255.105 311.633 254.108 313.415C253.331 314.796 252.887 316.282 252.655 318.105C252.498 319.521 252.456 319.642 252.02 320.155C251.605 320.646 251.511 320.704 251.083 320.675C250.681 320.668 248.265 323.094 247.307 322.283L246.174 321.323L245.518 321.492C245.148 321.591 244.823 321.707 244.774 321.764C244.736 321.81 244.912 322.136 245.179 322.48C245.557 322.996 245.678 323.334 245.801 324.222C245.928 325.212 246.018 325.425 246.501 326.031C246.822 326.4 247.145 326.713 247.218 326.716C247.309 326.715 247.973 326.003 248.862 324.953C249.684 323.982 252.546 320.639 252.572 320.662C252.598 320.684 252.646 321.038 252.672 321.452C252.995 325.078 255.205 330.342 258.072 334.259L258.758 335.194L257.958 336.085C257.159 336.976 253.894 340.831 253.393 340.799C252.955 340.781 252.733 340.652 251.811 339.87L250.739 338.963L250.103 339.091C249.264 339.262 249.109 339.445 249.504 339.779C249.917 340.129 250.311 341.071 250.366 341.862C250.425 342.735 250.631 343.204 251.247 343.902L251.777 344.488L253.817 342.079C255.78 339.762 259.131 335.823 259.298 335.964C259.385 336.039 259.837 336.539 260.278 337.069C263.477 340.897 268.487 345.081 272.697 347.431L273.595 347.937L268.261 354.235L266.202 356.666L266.449 356.856C266.599 356.964 266.945 357.178 267.23 357.341ZM264.45 336.917C263.232 335.611 261.837 333.999 261.833 333.897C261.834 333.878 264.17 332.759 267.036 331.423L272.238 328.986L272.703 329.399C273.307 329.95 276.979 333.06 277.622 333.565L278.106 333.956L276.568 339.476C275.713 342.516 275.011 345.019 274.992 345.042C274.953 345.087 273.123 343.988 271.706 343.043C269.872 341.843 265.989 338.554 264.45 336.917ZM278.026 340.319C278.871 337.309 279.599 334.829 279.646 334.809C279.691 334.809 280.255 335.051 280.917 335.357C283.268 336.446 285.425 336.998 287.431 337.051C288.453 337.074 288.597 337.117 288.649 337.377C288.678 337.539 289.184 340.183 289.771 343.248L290.833 348.833L290.254 348.911C287.956 349.22 284.803 348.882 281.84 347.999C280.561 347.621 277.037 346.225 276.64 345.928C276.533 345.857 276.983 344.062 278.026 340.319ZM259.571 330.726C257.422 327.279 256.171 324.161 255.66 321.023C255.28 318.622 254.63 318.856 261.161 319.016C264.281 319.091 266.964 319.147 267.128 319.149C267.393 319.158 267.459 319.293 267.65 320.297C268.032 322.268 268.932 324.304 270.394 326.444C270.804 327.046 271.136 327.562 271.143 327.607C271.127 327.751 260.81 332.54 260.696 332.443C260.643 332.399 260.141 331.62 259.571 330.726ZM291.489 342.448L290.387 336.732L291.132 336.422C293.144 335.596 294.432 333.648 294.555 331.223C294.63 330.013 294.559 329.972 295.529 331.872C297.544 335.834 298.3 340.16 297.515 343.259C297.034 345.145 296.437 345.992 294.668 347.298C293.846 347.895 292.696 348.45 292.622 348.27C292.607 348.218 292.09 345.604 291.489 342.448ZM255.818 316.295C256.691 313.27 258.653 311.54 262.03 310.813C264.005 310.387 265.476 310.359 267.926 310.709C269.459 310.929 272.889 311.795 273.179 312.041C273.214 312.071 272.77 312.204 272.188 312.338C269.825 312.866 268.145 314.423 267.661 316.543L267.478 317.329L261.621 317.191C258.4 317.129 255.737 317.049 255.702 317.02C255.657 317.001 255.709 316.673 255.818 316.295ZM300.272 335.89C300.111 335.047 299.645 333.496 299.124 332.133L298.652 330.91L300.182 329.05C301.053 328.003 301.748 327.219 301.792 327.256C302.046 327.472 303.175 330.663 303.477 332.017L303.653 332.754L302.057 334.637C301.177 335.676 300.444 336.506 300.418 336.484C300.392 336.461 300.331 336.194 300.272 335.89ZM269.528 303.616C270.316 303.558 274.658 304.275 274.939 304.513C274.983 304.55 274.331 305.39 273.49 306.384L271.953 308.199L270.352 307.862C269.465 307.699 268.149 307.506 267.421 307.458L266.101 307.36L267.632 305.499C269.132 303.692 269.171 303.647 269.528 303.616ZM297.042 327.841C294.693 323.793 291.799 320.46 287.45 316.796C282.76 312.823 278.751 310.467 273.825 308.785C273.636 308.723 273.743 308.578 275.174 306.889L276.721 305.062L277.197 305.249C277.465 305.359 277.942 305.527 278.265 305.644C278.902 305.889 280.565 306.651 281.822 307.304C282.616 307.702 282.677 307.773 283.316 308.746C284.302 310.307 285.781 312.088 287.429 313.739C289.776 316.08 293.175 318.39 296.246 319.697C297.311 320.168 297.391 320.216 297.914 320.934C298.765 322.066 299.79 323.581 300.137 324.169C300.297 324.461 300.55 324.911 300.694 325.15L300.965 325.596L299.428 327.411C298.577 328.416 297.863 329.223 297.846 329.208C297.828 329.193 297.465 328.571 297.042 327.841ZM304.084 326.865L303.51 325.085L304.69 323.692C305.347 322.916 305.888 322.296 305.905 322.31C305.958 322.355 306.695 324.156 306.946 324.858C307.09 325.275 307.343 326.116 307.487 326.748L307.771 327.89L306.398 329.511L305.016 331.144L304.819 329.899C304.723 329.21 304.385 327.845 304.084 326.865ZM273.584 298.739C274.308 298.685 278.894 299.433 279.149 299.649C279.167 299.664 278.644 300.299 277.986 301.075L276.806 302.468L274.956 302.195C273.94 302.059 272.557 301.946 271.88 301.962L270.655 301.983L271.973 300.374C273.154 298.943 273.327 298.757 273.584 298.739ZM302.254 322.453C302.03 321.988 301.424 320.887 300.88 320.015C300.346 319.131 299.908 318.348 299.912 318.273C299.925 318.186 300.209 317.584 300.56 316.901C300.902 316.23 301.225 315.582 301.276 315.469C301.347 315.313 301.445 315.376 301.808 315.802C302.328 316.399 303.508 318.123 304.45 319.647L305.113 320.699L303.963 322.057C303.324 322.811 302.777 323.386 302.742 323.356C302.698 323.319 302.479 322.918 302.254 322.453ZM279.719 301.523L280.869 300.165L282.007 300.638C283.673 301.324 285.568 302.204 286.243 302.619C286.723 302.907 286.801 302.993 286.659 303.089C286.556 303.158 285.97 303.583 285.364 304.031C284.749 304.49 284.201 304.869 284.118 304.896C284.044 304.912 283.2 304.609 282.24 304.228C281.291 303.835 280.123 303.415 279.654 303.292C279.186 303.15 278.745 303.012 278.683 302.96C278.594 302.904 278.858 302.539 279.719 301.523Z" stroke="white" stroke-width="0.693387" mask="url(#path-15-outside-1_243_7605)"/>
<path d="M477.526 774.218L462.104 769.114C455.529 765.681 456.607 757.433 457.031 755.045C457.311 753.465 457.867 751.022 457.867 751.022L453.677 747.16L451.858 745.637C445.64 738.957 441.259 741.527 434.912 741.448L439.679 720.469C445.405 723.194 450.412 728.029 459.503 724.903C458.146 723.508 453.537 717.697 452.029 716.467C451.684 716.202 451.286 716.012 450.863 715.91C450.439 715.808 449.998 715.796 449.57 715.875L438.535 719.104C438.206 719.178 437.864 719.182 437.533 719.117C437.201 719.052 436.887 718.918 436.61 718.725C436.332 718.532 436.099 718.284 435.923 717.996C435.748 717.708 435.634 717.387 435.59 717.054C435.512 716.665 435.521 716.968 435.603 716.606C435.838 715.573 436.659 714.773 437.703 714.561L448.491 706.414C449.655 706.167 449.546 705.887 452.024 706.416C454.501 706.945 465.055 715.705 465.055 715.705C466.597 716.97 467.133 717.708 468.442 719.92L468.606 720.234L469.172 721.506C470.148 723.707 469.051 727.715 468.432 730.038L466.103 745.543C465.862 747.923 465.773 750.314 465.832 752.706L465.959 759.646C466.005 760.287 466.179 760.912 466.469 761.487C466.759 762.061 467.16 762.574 467.649 762.994L480.188 770.119C480.473 770.27 480.724 770.478 480.925 770.729C481.126 770.98 481.273 771.27 481.358 771.58C481.442 771.89 481.461 772.214 481.415 772.532C481.368 772.849 481.256 773.154 481.087 773.427C480.699 773.976 480.12 774.362 479.461 774.508C478.803 774.655 478.113 774.551 477.526 774.218Z" fill="white"/>
<path d="M472.52 740.487C471.862 743.383 473.676 746.264 476.572 746.922C479.467 747.58 482.348 745.766 483.006 742.87C483.664 739.974 481.85 737.094 478.954 736.436C476.059 735.778 473.178 737.592 472.52 740.487Z" fill="white"/>
<path d="M472.567 740.504C471.909 743.4 473.712 746.278 476.595 746.933C479.477 747.588 482.347 745.772 483.005 742.876C483.663 739.98 481.86 737.102 478.977 736.447C476.095 735.792 473.225 737.609 472.567 740.504Z" stroke="white" stroke-width="4.16214" stroke-miterlimit="10"/>
<path d="M437.613 715.702L449.31 710.018C450.124 709.823 450.97 709.801 451.792 709.953C452.615 710.105 453.397 710.428 454.087 710.902C456.036 712.22 465.091 718.64 466.414 720.592L467.196 721.779C468.314 723.791 468.795 726.1 468.575 728.397C463.587 743.062 458.322 748.709 463.397 759.237C463.934 760.189 466.817 767.818 467.707 768.449L479.687 772.086" stroke="white" stroke-width="3.56806" stroke-linecap="round" stroke-linejoin="round"/>
<path d="M478.698 733.617L483.546 734.719C485.637 735.194 487.453 736.48 488.595 738.294C489.738 740.108 490.113 742.302 489.638 744.393C489.403 745.428 488.966 746.407 488.352 747.273C487.739 748.14 486.961 748.877 486.063 749.443C485.164 750.009 484.163 750.392 483.117 750.571C482.07 750.75 480.999 750.721 479.963 750.486L475.116 749.384" stroke="white" stroke-width="1.78403" stroke-linecap="round" stroke-linejoin="round"/>
<path d="M439.249 708.5L434.904 727.625M433.749 732.707L429.404 751.83M418.263 758.027L423.264 759.163L436.879 699.24L426.877 696.968L413.261 756.89L418.263 758.027Z" stroke="white" stroke-width="1.78403" stroke-linecap="round" stroke-linejoin="round"/>
<path d="M420.561 744.675C420.373 745.502 420.891 746.325 421.719 746.513C422.546 746.701 423.369 746.183 423.557 745.355C423.745 744.528 423.227 743.705 422.399 743.517C421.572 743.329 420.749 743.847 420.561 744.675Z" fill="white"/>
<path d="M419.543 749.151C419.355 749.979 419.874 750.802 420.701 750.99C421.528 751.178 422.352 750.659 422.539 749.832C422.727 749.005 422.209 748.182 421.382 747.994C420.554 747.806 419.731 748.324 419.543 749.151Z" fill="white"/>
<path d="M478.541 733.236C478.688 732.587 479.088 732.023 479.651 731.668C480.215 731.313 480.896 731.196 481.546 731.344C482.195 731.492 482.759 731.891 483.114 732.455C483.469 733.018 483.585 733.7 483.438 734.349M479.785 750.425C479.638 751.074 479.238 751.638 478.675 751.993C478.111 752.348 477.43 752.464 476.78 752.317C476.131 752.169 475.567 751.77 475.212 751.206C474.857 750.643 474.74 749.961 474.888 749.312" stroke="white" stroke-width="3.95341" stroke-linecap="round" stroke-linejoin="round"/>
<path d="M437.261 741.406C441.69 741.06 448.708 738.72 454.67 745.299M459.401 724.482C450.607 727.634 445.803 722.875 441.991 720.596" stroke="white" stroke-width="3.45031" stroke-linecap="round" stroke-linejoin="round"/>
<path d="M403.109 695.719C402.199 695.512 401.397 695.099 400.701 694.48C400.001 693.877 399.513 693.058 399.236 692.022C398.955 691.002 398.974 689.793 399.291 688.397L399.939 685.547L393.411 684.064L394.186 680.655L411.186 684.517L409.764 690.777C409.465 692.092 408.983 693.161 408.318 693.983C407.653 694.805 406.871 695.353 405.973 695.627C405.07 695.917 404.115 695.948 403.109 695.719ZM402.076 688.876C401.862 689.818 401.915 690.564 402.234 691.115C402.569 691.669 403.126 692.035 403.905 692.212C405.562 692.588 406.6 691.851 407.021 690L407.635 687.296L402.691 686.173L402.076 688.876ZM391.69 706.633L393.228 699.862L390.244 698.005L391.057 694.425L406.693 704.407L405.791 708.377L387.377 710.622L388.196 707.017L391.69 706.633ZM394.628 706.327L402.299 705.483L395.746 701.407L394.628 706.327ZM384.866 721.675L392.343 719.429L392.708 717.822L386.083 716.317L386.858 712.907L403.858 716.769L402.408 723.151C402.109 724.466 401.619 725.533 400.938 726.351C400.273 727.173 399.491 727.721 398.592 727.995C397.706 728.289 396.776 728.325 395.801 728.104C394.681 727.849 393.74 727.294 392.978 726.438C392.233 725.586 391.835 724.479 391.786 723.119L383.969 725.62L384.866 721.675ZM395.265 718.403L394.618 721.252C394.407 722.178 394.47 722.918 394.805 723.472C395.156 724.03 395.73 724.399 396.525 724.58C397.305 724.757 397.957 724.666 398.483 724.308C399.024 723.953 399.4 723.312 399.611 722.387L400.258 719.537L395.265 718.403ZM397.684 743.941L394.932 743.316L395.961 738.786L381.713 735.548L382.488 732.139L396.736 735.376L397.765 730.846L400.518 731.471L397.684 743.941ZM394.047 759.946L384.272 751.681L378.353 750.336L379.128 746.926L385.046 748.271L397.44 745.016L396.565 748.865L387.966 750.753L394.911 756.147L394.047 759.946Z" fill="white"/>
<path d="M662.672 323.048L670.376 335.617L667.855 337.162L662.844 328.987L664.488 339.227L662.579 340.397L654.182 334.296L659.194 342.472L656.672 344.017L648.968 331.448L651.831 329.693L661.558 336.588L659.827 324.792L662.672 323.048ZM668.933 322.009L670.864 325.161L675.096 322.567L676.321 324.566L672.09 327.16L674.132 330.491L678.904 327.566L680.162 329.619L672.869 334.089L665.153 321.502L672.446 317.032L673.705 319.084L668.933 322.009ZM678.517 316.135L680.448 319.286L684.68 316.692L685.906 318.691L681.674 321.285L683.716 324.616L688.488 321.691L689.746 323.744L682.453 328.215L674.737 315.627L682.031 311.157L683.289 313.21L678.517 316.135ZM692.886 304.528L694.134 306.562L690.784 308.615L697.241 319.15L694.72 320.695L688.263 310.161L684.914 312.214L683.666 310.179L692.886 304.528Z" fill="white"/>
<path d="M611.883 280.443C610.942 278.907 610.649 277.061 611.069 275.311C611.489 273.56 612.588 272.047 614.123 271.106C615.658 270.165 617.504 269.873 619.255 270.293C621.006 270.713 622.518 271.812 623.459 273.347C624.4 274.882 624.693 276.728 624.273 278.479C623.852 280.23 622.754 281.742 621.219 282.683C619.684 283.624 617.838 283.916 616.087 283.496C614.336 283.076 612.824 281.978 611.883 280.443ZM621.047 297.249C620.723 299.041 621.047 300.961 622.073 302.635C623.1 304.31 624.664 305.47 626.407 305.994L621.047 297.249ZM632.849 283.005C631.445 287.605 631.952 292.769 634.663 297.193C636.836 300.738 640.072 303.234 643.705 304.52L645.067 306.742C646.188 308.572 645.616 310.956 643.786 312.077L637.171 316.132C635.342 317.253 632.958 316.681 631.837 314.852L630.139 312.082C625.091 312.616 619.944 310.296 617.112 305.676C613.19 299.278 615.194 290.926 621.592 287.004L624.9 284.977C627.381 283.456 630.15 282.825 632.843 282.995L632.849 283.005ZM671.527 290.523L670.165 288.301C670.667 284.481 669.912 280.465 667.739 276.919C665.027 272.496 660.655 269.701 655.913 268.854C656.983 266.378 658.802 264.196 661.283 262.676L664.59 260.648C670.988 256.726 679.341 258.731 683.263 265.129C686.095 269.749 685.826 275.388 683.059 279.644L684.757 282.414C685.878 284.243 685.306 286.627 683.477 287.749L676.862 291.803C675.032 292.925 672.648 292.353 671.527 290.523ZM651.573 256.114C650.632 254.579 650.34 252.733 650.76 250.982C651.18 249.231 652.278 247.719 653.813 246.778C655.349 245.837 657.195 245.544 658.946 245.964C660.696 246.385 662.209 247.483 663.15 249.018C664.091 250.553 664.383 252.399 663.963 254.15C663.543 255.901 662.444 257.413 660.909 258.354C659.374 259.295 657.528 259.588 655.777 259.168C654.026 258.748 652.514 257.649 651.573 256.114ZM673.968 264.811L679.334 273.566C679.652 271.764 679.334 269.855 678.308 268.18C677.281 266.506 675.717 265.346 673.974 264.822L673.968 264.811ZM633.18 257.656C634.934 256.581 637.044 256.246 639.045 256.726C641.046 257.206 642.774 258.462 643.85 260.216C644.925 261.971 645.259 264.08 644.779 266.081C644.299 268.082 643.044 269.811 641.289 270.886C639.535 271.961 637.425 272.296 635.424 271.816C633.423 271.336 631.695 270.08 630.62 268.326C629.544 266.571 629.21 264.462 629.69 262.461C630.17 260.46 631.425 258.731 633.18 257.656ZM642.932 292.125C643.958 293.799 645.516 294.949 647.266 295.483L641.906 286.739C641.588 288.54 641.906 290.45 642.932 292.125ZM655.136 278.629L660.502 287.384C660.82 285.582 660.503 283.673 659.476 281.998C658.45 280.324 656.886 279.164 655.142 278.64L655.136 278.629ZM664.431 278.947C667.263 283.567 666.994 289.206 664.228 293.462L666.939 297.885C668.061 299.715 667.489 302.099 665.659 303.22L659.044 307.275C657.215 308.396 654.83 307.824 653.709 305.995L650.997 301.571C645.95 302.105 640.803 299.786 637.971 295.166C634.049 288.768 636.053 280.415 642.451 276.494L645.759 274.466C652.157 270.544 660.509 272.549 664.431 278.947Z" fill="white"/>
<path d="M245.782 546.134L244.772 543.777L248.653 542.114L243.425 529.91L246.346 528.659L251.574 540.863L255.454 539.201L256.464 541.559L245.782 546.134ZM229.673 539.085L235.473 536.6L235.244 533.415L238.31 532.101L239.321 548.927L235.92 550.384L224.437 538.044L227.525 536.721L229.673 539.085ZM231.466 541.082L236.183 546.271L235.681 539.277L231.466 541.082ZM220.551 542.449L215.752 544.505L214.76 542.189L222.48 538.882L228.717 553.444L225.797 554.695L220.551 542.449ZM204.684 546.505L212.763 550.724L209.983 544.235L212.904 542.984L219.142 557.546L216.221 558.797L213.424 552.267L210.922 561.067L207.396 562.578L210.313 552.785L200.992 548.087L204.684 546.505Z" fill="white"/>
<path fill-rule="evenodd" clip-rule="evenodd" d="M263.069 617.038C262.829 617.228 252.715 621.51 247.689 623.626C246.838 624.009 244.887 624.191 243.887 621.857L228.993 587.087C228.946 586.978 228.894 586.861 228.84 586.739C227.986 584.817 226.44 581.338 232.091 578.917L247.419 572.351C252.135 570.331 253.706 571.723 255.63 575.677C257.553 579.631 261.112 588.251 262.651 592.066L266.891 593.921L273.654 609.709C273.991 610.496 274.083 612.32 271.754 613.317L263.069 617.038ZM264.75 608.136C265.71 607.725 266.155 606.613 265.744 605.653L262.02 596.96C261.609 596 260.497 595.555 259.537 595.967L242.151 603.414C241.191 603.825 240.746 604.937 241.157 605.897L244.881 614.59C245.293 615.55 246.404 615.995 247.364 615.584L264.75 608.136ZM259.786 591.745C260.197 592.705 259.752 593.817 258.792 594.228L253.576 596.462C252.616 596.874 251.504 596.429 251.093 595.469L250.348 593.73C249.937 592.77 250.382 591.658 251.342 591.247L256.558 589.012C257.518 588.601 258.63 589.046 259.041 590.006L259.786 591.745ZM246.622 599.441C247.582 599.03 248.027 597.918 247.616 596.958L246.871 595.219C246.46 594.259 245.348 593.814 244.388 594.225L239.172 596.46C238.212 596.871 237.767 597.983 238.178 598.943L238.923 600.681C239.334 601.642 240.446 602.087 241.406 601.675L246.622 599.441Z" fill="white"/>
<rect x="274.68" y="626.516" width="5.67401" height="18.9134" rx="2.83701" transform="rotate(156.811 274.68 626.516)" fill="white"/>
<rect x="257.793" y="625.52" width="4.97558" height="7.97672" rx="2.48779" transform="rotate(156.811 257.793 625.52)" fill="white"/>
<path d="M287.622 605.394C287.038 605.772 286.801 605.177 285.342 605.262C280.622 605.526 278.049 605.61 277.747 605.492C276.965 605.185 276.8 604.803 277.13 603.962C277.452 603.116 277.836 603.422 279.789 603.065C282.364 602.608 286.231 601.969 286.649 601.941C287.388 601.886 287.85 601.871 288.086 602.531C288.273 603.069 288.376 604.486 288.248 604.79C288.175 604.974 287.958 605.182 287.622 605.394Z" fill="white"/>
<path d="M232.104 629.177C232.781 629.015 232.514 628.432 233.582 627.435C237.029 624.201 238.865 622.396 238.988 622.095C239.305 621.318 239.143 620.935 238.306 620.594C237.472 620.243 237.429 620.732 235.823 621.9C233.715 623.448 230.585 625.807 230.276 626.09C229.727 626.587 229.397 626.912 229.711 627.537C229.973 628.044 230.927 629.096 231.235 629.213C231.418 629.287 231.719 629.274 232.104 629.177Z" fill="white"/>
<path d="M286.567 596.781C286.428 596.888 285.892 596.534 285.65 596.632C280.808 598.568 277.997 599.631 277.61 599.652C277.16 599.687 276.926 600.002 276.704 599.652C276.621 599.519 276.473 599.106 276.379 598.726L276.198 598.027L276.567 597.605C276.853 597.272 277.448 597.287 278.913 596.496C282.441 594.57 284.907 593.301 285.214 593.26C285.611 593.213 285.874 593.059 286.151 593.39C286.424 593.709 286.967 594.995 287.045 595.511C287.12 595.965 286.915 596.512 286.567 596.781Z" fill="white"/>
<path d="M227.087 622.261C227.26 622.234 227.374 621.602 227.612 621.494C232.354 619.325 235.063 618.023 235.344 617.758C235.681 617.456 236.07 617.504 235.97 617.102C235.93 616.95 235.734 616.558 235.523 616.228L235.143 615.614L234.583 615.59C234.144 615.567 233.744 616.009 232.161 616.523C228.333 617.749 225.713 618.659 225.471 618.852C225.164 619.107 224.87 619.191 224.919 619.621C224.962 620.038 225.518 621.318 225.838 621.732C226.115 622.098 226.653 622.327 227.087 622.261Z" fill="white"/>
<path d="M282.661 588.635C282.347 588.917 281.524 589.606 280.835 590.176C280.149 590.737 278.931 591.767 278.123 592.441C276.466 593.825 275.856 594.193 275.342 594.093C274.267 593.894 274.102 594.016 274.477 593.061C274.676 592.552 280.443 586.475 281.067 586.123C281.791 585.709 281.989 584.759 282.808 585.688C283.808 586.798 283.761 587.66 282.661 588.635Z" fill="white"/>
<path d="M223.616 613.927C224.036 613.894 225.103 613.773 225.99 613.668C226.869 613.559 228.455 613.387 229.501 613.268C231.647 613.023 232.334 612.835 232.616 612.395C233.213 611.478 233.416 611.444 232.465 611.056C231.959 610.849 223.582 610.832 222.897 611.039C222.097 611.279 221.273 610.767 221.38 612C221.494 613.49 222.151 614.05 223.616 613.927Z" fill="white"/>
<defs>
<filter id="filter0_b_243_7605" x="149.779" y="449.875" width="200.105" height="266.735" filterUnits="userSpaceOnUse" color-interpolation-filters="sRGB">
<feFlood flood-opacity="0" result="BackgroundImageFix"/>
<feGaussianBlur in="BackgroundImageFix" stdDeviation="6.79125"/>
<feComposite in2="SourceAlpha" operator="in" result="effect1_backgroundBlur_243_7605"/>
<feBlend mode="normal" in="SourceGraphic" in2="effect1_backgroundBlur_243_7605" result="shape"/>
</filter>
<filter id="filter1_b_243_7605" x="155.501" y="171.539" width="271.767" height="294.427" filterUnits="userSpaceOnUse" color-interpolation-filters="sRGB">
<feFlood flood-opacity="0" result="BackgroundImageFix"/>
<feGaussianBlur in="BackgroundImageFix" stdDeviation="6.79125"/>
<feComposite in2="SourceAlpha" operator="in" result="effect1_backgroundBlur_243_7605"/>
<feBlend mode="normal" in="SourceGraphic" in2="effect1_backgroundBlur_243_7605" result="shape"/>
</filter>
<filter id="filter2_b_243_7605" x="403.923" y="149.291" width="406.571" height="326.894" filterUnits="userSpaceOnUse" color-interpolation-filters="sRGB">
<feFlood flood-opacity="0" result="BackgroundImageFix"/>
<feGaussianBlur in="BackgroundImageFix" stdDeviation="6.79125"/>
<feComposite in2="SourceAlpha" operator="in" result="effect1_backgroundBlur_243_7605"/>
<feBlend mode="normal" in="SourceGraphic" in2="effect1_backgroundBlur_243_7605" result="shape"/>
</filter>
<filter id="filter3_b_243_7605" x="274.403" y="629.613" width="311.537" height="184.522" filterUnits="userSpaceOnUse" color-interpolation-filters="sRGB">
<feFlood flood-opacity="0" result="BackgroundImageFix"/>
<feGaussianBlur in="BackgroundImageFix" stdDeviation="6.79125"/>
<feComposite in2="SourceAlpha" operator="in" result="effect1_backgroundBlur_243_7605"/>
<feBlend mode="normal" in="SourceGraphic" in2="effect1_backgroundBlur_243_7605" result="shape"/>
</filter>
<filter id="filter4_b_243_7605" x="548.228" y="467.126" width="265.225" height="318.001" filterUnits="userSpaceOnUse" color-interpolation-filters="sRGB">
<feFlood flood-opacity="0" result="BackgroundImageFix"/>
<feGaussianBlur in="BackgroundImageFix" stdDeviation="6.79125"/>
<feComposite in2="SourceAlpha" operator="in" result="effect1_backgroundBlur_243_7605"/>
<feBlend mode="normal" in="SourceGraphic" in2="effect1_backgroundBlur_243_7605" result="shape"/>
</filter>
<linearGradient id="paint0_linear_243_7605" x1="238.563" y1="356.889" x2="373.729" y2="524.947" gradientUnits="userSpaceOnUse">
<stop stop-color="#FF5252"/>
<stop offset="1" stop-color="#D60000"/>
</linearGradient>
<linearGradient id="paint1_linear_243_7605" x1="422.94" y1="234.213" x2="371.143" y2="444.915" gradientUnits="userSpaceOnUse">
<stop stop-color="#1EFF93"/>
<stop offset="1" stop-color="#00AE5B"/>
</linearGradient>
<linearGradient id="paint2_linear_243_7605" x1="393.072" y1="197.715" x2="761.597" y2="191.321" gradientUnits="userSpaceOnUse">
<stop stop-color="#4A70F8"/>
<stop offset="1" stop-color="#1246FF"/>
</linearGradient>
<linearGradient id="paint3_linear_243_7605" x1="265.667" y1="597.714" x2="499.82" y2="602.575" gradientUnits="userSpaceOnUse">
<stop stop-color="#C15DFF"/>
<stop offset="1" stop-color="#7900C4"/>
</linearGradient>
<linearGradient id="paint4_linear_243_7605" x1="531.82" y1="777.812" x2="606.719" y2="507.714" gradientUnits="userSpaceOnUse">
<stop stop-color="#FE8E50"/>
<stop offset="1" stop-color="#F15600"/>
</linearGradient>
</defs>
</svg>
