<svg xmlns="http://www.w3.org/2000/svg" width="627" height="114" viewBox="0 0 627 114" fill="none">
<style>

</style>
<g  filter="url(#filter0_d_316_6955)">
<path class="t-word" d="M444.062 38.9375H448.562V104H444.062V38.9375ZM426.062 18.5V14H493.562V18.5H426.062ZM426.062 27.5V23H493.562V27.5H426.062ZM426.062 36.5V32H493.562V36.5H426.062ZM471.062 38.9375H475.562V104H471.062V38.9375ZM462.062 38.9375H466.562V104H462.062V38.9375ZM453.062 38.9375H457.562V104H453.062V38.9375Z" fill="white"/>
</g>
<g filter="url(#filter1_d_316_6955)">
<path class="p-word" d="M40.875 55H67C71.2917 55 74.9167 53.5625 77.875 50.6875C80.875 47.7708 82.375 43.6667 82.375 38.375C82.375 34.4167 80.8125 30.875 77.6875 27.75C74.5625 24.5833 71 23 67 23H28.375V104H23.875V18.5H67C72.25 18.5 76.875 20.5208 80.875 24.5625C84.875 28.6042 86.875 33.2083 86.875 38.375C86.875 44.75 84.9375 49.875 81.0625 53.75C77.1875 57.5833 72.5 59.5 67 59.5H40.875V55ZM40.875 64H67C71.3333 64 75.3333 62.9583 79 60.875C82.7083 58.75 85.6875 55.7083 87.9375 51.75C90.2292 47.7917 91.375 43.3333 91.375 38.375C91.375 31.9583 88.9167 26.2917 84 21.375C79.125 16.4583 73.4583 14 67 14H19.375V104H14.875V9.5H67C72.0417 9.5 76.7917 10.8333 81.25 13.5C85.7083 16.1667 89.25 19.7292 91.875 24.1875C94.5417 28.6458 95.875 33.375 95.875 38.375C95.875 44.0417 94.5417 49.2083 91.875 53.875C89.2083 58.5 85.6667 62.1042 81.25 64.6875C76.875 67.2292 72.125 68.5 67 68.5H40.875V64ZM40.875 73H67C71.4583 73 75.7292 72.125 79.8125 70.375C83.8958 68.5833 87.4375 66.1875 90.4375 63.1875C93.4792 60.1458 95.8958 56.4792 97.6875 52.1875C99.4792 47.8542 100.375 43.25 100.375 38.375C100.375 32.5417 98.8542 27.0625 95.8125 21.9375C92.7708 16.7708 88.6667 12.6667 83.5 9.625C78.375 6.54167 72.875 5 67 5H10.375V104H5.875V0.5H67C73.6667 0.5 79.9167 2.25 85.75 5.75C91.5833 9.20833 96.2292 13.8542 99.6875 19.6875C103.146 25.5208 104.875 31.75 104.875 38.375C104.875 44.2917 103.854 49.75 101.812 54.75C99.7708 59.7083 97.0208 63.8333 93.5625 67.125C90.1042 70.4167 86.0833 72.9792 81.5 74.8125C76.9167 76.6042 72.0833 77.5 67 77.5H40.875V73ZM37.375 104H32.875V27.5H67C69.9583 27.5 72.5 28.5833 74.625 30.75C76.7917 32.9167 77.875 35.4583 77.875 38.375C77.875 46.4583 74.25 50.5 67 50.5H40.875V46H67C69 46 70.5625 45.4375 71.6875 44.3125C72.8125 43.1875 73.375 41.2083 73.375 38.375C73.375 36.5417 72.75 35.0208 71.5 33.8125C70.2917 32.6042 68.7917 32 67 32H37.375V104Z" fill="white"/>
</g>
<g filter="url(#filter2_d_316_6955)">
<path class="y-word" d="M618.562 14H623.062L594.75 73.625V104H590.25V73.625L618.562 14ZM609.562 14H614.062L585.75 73.625V104H581.25V73.625L609.562 14ZM600.562 14H605.062L576.75 73.625V104H572.25V73.625L600.562 14ZM591.562 14H596.062L567.75 73.625V104H563.25V73.625L533.062 14H537.562L565.438 69.0625L591.562 14ZM542.125 14H546.625L568.938 56.4375L566.688 61.375L542.125 14ZM551.125 14H555.688L573.438 46.5625L571.125 51.5L551.125 14ZM560.25 14H564.75L577.938 36.75L575.688 41.6875L560.25 14Z" fill="white"/>
</g>
<g filter="url(#filter3_d_316_6955)">
<path class="a-word" d="M212.938 59.625C212.938 54.2917 211.292 50.1667 208 47.25C204.708 44.3333 200.354 42.875 194.938 42.875C190.354 42.875 186.417 44.4583 183.125 47.625C179.833 50.7917 178.188 54.5833 178.188 59C178.188 61.5 178.521 63.75 179.188 65.75C179.854 67.7083 180.75 69.3542 181.875 70.6875C183.042 71.9792 184.417 73.0625 186 73.9375C187.583 74.7708 189.229 75.375 190.938 75.75C192.688 76.125 194.542 76.3125 196.5 76.3125C201.25 76.3125 205.583 75.1458 209.5 72.8125V77.3125C205.458 79.4375 201.104 80.5 196.438 80.5C193.438 80.5 190.604 80.1042 187.938 79.3125C185.312 78.4792 182.917 77.25 180.75 75.625C178.583 73.9583 176.854 71.7083 175.562 68.875C174.312 66 173.688 62.7083 173.688 59C173.688 53.25 175.708 48.375 179.75 44.375C183.792 40.375 188.854 38.375 194.938 38.375C201.646 38.375 207.062 40.2708 211.188 44.0625C215.354 47.8125 217.438 53 217.438 59.625V104H212.938V59.625ZM226.438 59.625V104H221.938V59.625C221.938 51.75 219.417 45.5 214.375 40.875C209.333 36.2083 202.854 33.875 194.938 33.875C187.604 33.875 181.479 36.3125 176.562 41.1875C171.646 46.0625 169.188 52 169.188 59C169.188 63.25 169.917 67.0625 171.375 70.4375C172.875 73.8125 174.896 76.5208 177.438 78.5625C179.979 80.6042 182.812 82.1667 185.938 83.25C189.104 84.2917 192.438 84.8125 195.938 84.8125C200.688 84.8125 205.208 83.7083 209.5 81.5V86.25C205 88.125 200.458 89.0625 195.875 89.0625C191.75 89.0625 187.833 88.4375 184.125 87.1875C180.417 85.8958 177.104 84.0417 174.188 81.625C171.271 79.1667 168.958 76 167.25 72.125C165.542 68.2083 164.688 63.8333 164.688 59C164.688 50.7917 167.583 43.8125 173.375 38.0625C179.208 32.2708 186.396 29.375 194.938 29.375C200.938 29.375 206.312 30.6042 211.062 33.0625C215.812 35.4792 219.562 39 222.312 43.625C225.062 48.25 226.438 53.5833 226.438 59.625ZM235.438 59.625V104H230.938V59.625C230.938 52.75 229.354 46.6667 226.188 41.375C223.062 36.0417 218.771 31.9583 213.312 29.125C207.854 26.2917 201.729 24.875 194.938 24.875C188.479 24.875 182.583 26.4167 177.25 29.5C171.917 32.5417 167.729 36.6667 164.688 41.875C161.688 47.0833 160.188 52.7917 160.188 59C160.188 64.3333 161.167 69.2083 163.125 73.625C165.083 78 167.708 81.6042 171 84.4375C174.333 87.2708 178.104 89.4792 182.312 91.0625C186.562 92.6042 191 93.375 195.625 93.375C200.333 93.375 204.958 92.3958 209.5 90.4375V95C204.75 96.7917 200.083 97.6875 195.5 97.6875C188.292 97.6875 181.667 96.0625 175.625 92.8125C169.583 89.5625 164.75 84.9583 161.125 79C157.5 73.0417 155.688 66.375 155.688 59C155.688 53.75 156.688 48.75 158.688 44C160.729 39.25 163.479 35.1458 166.938 31.6875C170.396 28.2292 174.562 25.4792 179.438 23.4375C184.312 21.3958 189.479 20.375 194.938 20.375C202.562 20.375 209.438 22 215.562 25.25C221.729 28.5 226.583 33.125 230.125 39.125C233.667 45.125 235.438 51.9583 235.438 59.625ZM244.438 59.625V104H239.938V59.625C239.938 51.125 237.958 43.5417 234 36.875C230.042 30.1667 224.646 25 217.812 21.375C210.979 17.7083 203.354 15.875 194.938 15.875C186.854 15.875 179.458 17.8125 172.75 21.6875C166.042 25.5625 160.771 30.8125 156.938 37.4375C153.104 44.0208 151.188 51.2083 151.188 59C151.188 64.125 152 69 153.625 73.625C155.292 78.2083 157.542 82.2292 160.375 85.6875C163.25 89.1042 166.542 92.0625 170.25 94.5625C174 97.0625 178.021 98.9583 182.312 100.25C186.646 101.542 191.042 102.188 195.5 102.188C200.417 102.188 205.083 101.25 209.5 99.375V104C204.875 105.625 200.125 106.438 195.25 106.438C190.208 106.438 185.292 105.729 180.5 104.312C175.75 102.896 171.333 100.812 167.25 98.0625C163.208 95.2708 159.646 92 156.562 88.25C153.479 84.4583 151.062 80.0417 149.312 75C147.562 69.9583 146.688 64.625 146.688 59C146.688 52.5417 147.896 46.3958 150.312 40.5625C152.771 34.6875 156.104 29.625 160.312 25.375C164.562 21.0833 169.688 17.6875 175.688 15.1875C181.729 12.6458 188.146 11.375 194.938 11.375C201.854 11.375 208.354 12.5417 214.438 14.875C220.521 17.2083 225.771 20.4583 230.188 24.625C234.604 28.75 238.083 33.8333 240.625 39.875C243.167 45.9167 244.438 52.5 244.438 59.625Z" fill="white"/>
</g>
<g filter="url(#filter4_d_316_6955)">
<path class="r-word" d="M323.062 61H350.188C353.771 61 356.812 59.875 359.312 57.625C361.812 55.375 363.062 52.2083 363.062 48.125C363.062 45.125 361.75 42.4375 359.125 40.0625C356.542 37.6875 353.562 36.5 350.188 36.5H311.562V104H307.062V32H350.188C354.812 32 358.854 33.625 362.312 36.875C365.812 40.125 367.562 43.875 367.562 48.125C367.562 53.4167 365.875 57.6458 362.5 60.8125C359.125 63.9375 355.021 65.5 350.188 65.5H323.062V61ZM323.062 70H350.188C356.188 70 361.333 67.9583 365.625 63.875C369.917 59.7917 372.062 54.5417 372.062 48.125C372.062 42.6667 369.875 37.875 365.5 33.75C361.125 29.5833 356.021 27.5 350.188 27.5H302.562V104H298.062V23H350.188C357.271 23 363.438 25.5208 368.688 30.5625C373.938 35.5625 376.562 41.4167 376.562 48.125C376.562 55.625 373.958 61.8958 368.75 66.9375C363.583 71.9792 357.396 74.5 350.188 74.5H323.062V70ZM323.062 79H350.188C355.729 79 360.854 77.6667 365.562 75C370.271 72.3333 374.021 68.625 376.812 63.875C379.646 59.125 381.062 53.875 381.062 48.125C381.062 42.9167 379.667 38.0417 376.875 33.5C374.083 28.9167 370.292 25.2708 365.5 22.5625C360.75 19.8542 355.646 18.5 350.188 18.5H293.562V104H289.062V14H350.188C354.896 14 359.417 14.9375 363.75 16.8125C368.125 18.6458 371.896 21.1042 375.062 24.1875C378.229 27.2292 380.771 30.8542 382.688 35.0625C384.604 39.2708 385.562 43.625 385.562 48.125C385.562 55.4167 383.896 61.7917 380.562 67.25C377.229 72.6667 372.75 76.7917 367.125 79.625L376.562 104H371.75L362.812 81.4375C361.688 81.8125 360.375 82.1875 358.875 82.5625L367.312 104H362.5L354.25 83.3125C352.958 83.4375 351.604 83.5 350.188 83.5L358.125 104H353.375L345.5 83.5H341.438L349 104H344.25L336.625 83.5H323.062V79ZM320.562 104H316.062V41H350.188C352.521 41 354.5 41.7083 356.125 43.125C357.75 44.5 358.562 46.1667 358.562 48.125C358.562 53.7083 355.771 56.5 350.188 56.5H323.062V52H350.188C352.771 52 354.062 50.7083 354.062 48.125C354.062 47.4167 353.667 46.8125 352.875 46.3125C352.125 45.7708 351.229 45.5 350.188 45.5H320.562V104Z" fill="white"/>
</g>
<defs>
<filter id="filter0_d_316_6955" x="423.062" y="14" width="73.5" height="97" filterUnits="userSpaceOnUse" color-interpolation-filters="sRGB">
<feFlood flood-opacity="0" result="BackgroundImageFix"/>
<feColorMatrix in="SourceAlpha" type="matrix" values="0 0 0 0 0 0 0 0 0 0 0 0 0 0 0 0 0 0 127 0" result="hardAlpha"/>
<feOffset dy="4"/>
<feGaussianBlur stdDeviation="1.5"/>
<feComposite in2="hardAlpha" operator="out"/>
<feColorMatrix type="matrix" values="0 0 0 0 0 0 0 0 0 0 0 0 0 0 0 0 0 0 0.25 0"/>
<feBlend mode="normal" in2="BackgroundImageFix" result="effect1_dropShadow_316_6955"/>
<feBlend mode="normal" in="SourceGraphic" in2="effect1_dropShadow_316_6955" result="shape"/>
</filter>
<filter id="filter1_d_316_6955" x="2.875" y="0.5" width="105" height="110.5" filterUnits="userSpaceOnUse" color-interpolation-filters="sRGB">
<feFlood flood-opacity="0" result="BackgroundImageFix"/>
<feColorMatrix in="SourceAlpha" type="matrix" values="0 0 0 0 0 0 0 0 0 0 0 0 0 0 0 0 0 0 127 0" result="hardAlpha"/>
<feOffset dy="4"/>
<feGaussianBlur stdDeviation="1.5"/>
<feComposite in2="hardAlpha" operator="out"/>
<feColorMatrix type="matrix" values="0 0 0 0 0 0 0 0 0 0 0 0 0 0 0 0 0 0 0.25 0"/>
<feBlend mode="normal" in2="BackgroundImageFix" result="effect1_dropShadow_316_6955"/>
<feBlend mode="normal" in="SourceGraphic" in2="effect1_dropShadow_316_6955" result="shape"/>
</filter>
<filter id="filter2_d_316_6955" x="530.062" y="14" width="96" height="97" filterUnits="userSpaceOnUse" color-interpolation-filters="sRGB">
<feFlood flood-opacity="0" result="BackgroundImageFix"/>
<feColorMatrix in="SourceAlpha" type="matrix" values="0 0 0 0 0 0 0 0 0 0 0 0 0 0 0 0 0 0 127 0" result="hardAlpha"/>
<feOffset dy="4"/>
<feGaussianBlur stdDeviation="1.5"/>
<feComposite in2="hardAlpha" operator="out"/>
<feColorMatrix type="matrix" values="0 0 0 0 0 0 0 0 0 0 0 0 0 0 0 0 0 0 0.25 0"/>
<feBlend mode="normal" in2="BackgroundImageFix" result="effect1_dropShadow_316_6955"/>
<feBlend mode="normal" in="SourceGraphic" in2="effect1_dropShadow_316_6955" result="shape"/>
</filter>
<filter id="filter3_d_316_6955" x="143.688" y="11.375" width="103.75" height="102.062" filterUnits="userSpaceOnUse" color-interpolation-filters="sRGB">
<feFlood flood-opacity="0" result="BackgroundImageFix"/>
<feColorMatrix in="SourceAlpha" type="matrix" values="0 0 0 0 0 0 0 0 0 0 0 0 0 0 0 0 0 0 127 0" result="hardAlpha"/>
<feOffset dy="4"/>
<feGaussianBlur stdDeviation="1.5"/>
<feComposite in2="hardAlpha" operator="out"/>
<feColorMatrix type="matrix" values="0 0 0 0 0 0 0 0 0 0 0 0 0 0 0 0 0 0 0.25 0"/>
<feBlend mode="normal" in2="BackgroundImageFix" result="effect1_dropShadow_316_6955"/>
<feBlend mode="normal" in="SourceGraphic" in2="effect1_dropShadow_316_6955" result="shape"/>
</filter>
<filter id="filter4_d_316_6955" x="286.062" y="14" width="102.5" height="97" filterUnits="userSpaceOnUse" color-interpolation-filters="sRGB">
<feFlood flood-opacity="0" result="BackgroundImageFix"/>
<feColorMatrix in="SourceAlpha" type="matrix" values="0 0 0 0 0 0 0 0 0 0 0 0 0 0 0 0 0 0 127 0" result="hardAlpha"/>
<feOffset dy="4"/>
<feGaussianBlur stdDeviation="1.5"/>
<feComposite in2="hardAlpha" operator="out"/>
<feColorMatrix type="matrix" values="0 0 0 0 0 0 0 0 0 0 0 0 0 0 0 0 0 0 0.25 0"/>
<feBlend mode="normal" in2="BackgroundImageFix" result="effect1_dropShadow_316_6955"/>
<feBlend mode="normal" in="SourceGraphic" in2="effect1_dropShadow_316_6955" result="shape"/>
</filter>
</defs>
</svg>