<svg width="29" height="36" viewBox="0 0 29 36" fill="none" xmlns="http://www.w3.org/2000/svg">
<path d="M19.3488 6.33725C20.6457 4.90239 21.3713 2.93253 21.2566 0.923584C19.4627 0.923584 17.3828 1.9752 16.066 3.52503C15.0352 4.80658 13.9287 6.81553 14.3294 8.82372C16.1807 9.05366 18.1849 7.88708 19.3488 6.33725Z" fill="#818583"/>
<path d="M27.4537 12.2954C27.0924 12.5115 23.6823 14.5506 23.6823 18.8991C23.6907 19.1689 23.7182 19.4249 23.7495 19.6771H23.748C24.3131 24.2047 28.2841 25.8235 28.356 25.8235C28.3425 25.8406 28.3127 25.9291 28.263 26.0768C28.0329 26.76 27.3757 28.7115 25.9327 30.7397C24.5402 32.8644 22.994 35.0067 20.6465 35.0067C19.57 35.0067 18.8263 34.6775 18.0559 34.3365C17.2283 33.9702 16.3699 33.5902 15.0353 33.5902C13.5594 33.5902 12.6481 33.9931 11.7976 34.3692C11.0533 34.6982 10.3556 35.0067 9.36673 35.0067C7.01917 35.0067 5.35906 32.7494 3.89011 30.6447C2.02201 27.9474 0.438361 23.7479 0.318301 19.6771C0.317201 19.6355 0.313985 19.5936 0.310772 19.5517C0.307287 19.5062 0.303801 19.4608 0.303005 19.4157C0.264006 17.2159 0.684579 15.0537 1.75283 13.2172C3.26001 10.6533 5.95168 8.9126 8.89033 8.85512C10.1758 8.8118 11.3806 9.32293 12.4335 9.76964C13.2251 10.1055 13.9309 10.4049 14.5207 10.4049C15.0571 10.4049 15.7837 10.1477 16.6449 9.8428C17.8974 9.39935 19.4346 8.85512 21.0854 8.85512C22.2875 8.85588 25.4945 9.21919 27.4796 12.2798C27.4746 12.2829 27.4659 12.2881 27.4537 12.2954Z" fill="#818583"/>
</svg>
