<svg width="543" height="121" viewBox="0 0 543 121" fill="none" xmlns="http://www.w3.org/2000/svg">
<style>
   path {
    stroke-dasharray: 1500;
    stroke-dashoffset: 1500;
    animation: dash 8s cubic-bezier(0.4, 0.0, 0.2, 1) infinite, colorChange 8s ease-in-out alternate infinite;
  }

  @keyframes dash {
    to {
      stroke-dashoffset: 0;
    }
  }
  @keyframes fadeInLeft {
   0% {
      opacity: 0;
      transform: translateY(-20px);
   }
   100% {
      opacity: 1;
      transform: translateY(0);
   }
} 
.show-hide{
    -webkit-animation: fadeInLeft 3s ease-in-out infinite;
    animation: fadeInLeft 3s ease-in-out;
    -webkit-transition: -webkit-transform 300ms cubic-bezier(0,0,0.3,1);
    transition: -webkit-transform 300ms cubic-bezier(0,0,0.3,1);
    -o-transition: transform 300ms cubic-bezier(0,0,0.3,1);
    transition: transform 300ms cubic-bezier(0,0,0.3,1);
    transition: transform 300ms cubic-bezier(0,0,0.3,1), 
    -webkit-transform 300ms cubic-bezier(0,0,0.3,1);
}  
  @keyframes fadeInout {
   0% {
      opacity: 0;
      transform: scale(0);
   }
   100% {
      opacity: 1;
      transform: scale(1);
   }
} 
.fade-out{
    -webkit-animation: fadeInout 3s ease-in-out infinite;
    animation: fadeInout 3s ease-in-out;
}  
.scale-effect {
   animation: zoomIn 0.5s cubic-bezier(0,0,0.3,1);
}

@keyframes zoomIn {
   from {
         opacity:0
   }
   to {
         opacity:1
   }
}
</style>
<path d="M71.462 11.192H75.1139L52.1372 59.58V84.2305H48.4853V59.58L71.462 11.192ZM64.1581 11.192H67.81L44.8334 59.58V84.2305H41.1814V59.58L64.1581 11.192ZM56.8543 11.192H60.5062L37.5295 59.58V84.2305H33.8776V59.58L56.8543 11.192ZM49.5504 11.192H53.2023L30.2257 59.58V84.2305H26.5737V59.58L2.07544 11.192H5.72736L28.349 55.8774L49.5504 11.192ZM9.43 11.192H13.0819L31.1894 45.6317L29.3634 49.6387L9.43 11.192ZM16.7338 11.192H20.4365L34.8413 37.6177L32.9646 41.6247L16.7338 11.192ZM24.1391 11.192H27.7911L38.4932 29.6545L36.6673 33.6615L24.1391 11.192ZM230.625 51.8704V11.192H234.277V51.8704C234.277 55.7252 232.789 59.039 229.813 61.8117C226.872 64.5845 223.321 65.9709 219.162 65.9709C215.003 65.9709 211.435 64.5845 208.46 61.8117C205.518 59.039 204.047 55.7252 204.047 51.8704V11.192H207.699V51.8704C207.699 54.7446 208.815 57.213 211.047 59.2757C213.312 61.3045 216.017 62.3189 219.162 62.3189C222.307 62.3189 224.995 61.3045 227.227 59.2757C229.492 57.213 230.625 54.7446 230.625 51.8704ZM237.929 51.8704V11.192H241.581V51.8704C241.581 57.7879 239.383 62.8431 234.987 67.036C230.591 71.1951 225.316 73.2747 219.162 73.2747C213.008 73.2747 207.733 71.1951 203.337 67.036C198.941 62.8431 196.743 57.7879 196.743 51.8704V11.192H200.395V51.8704C200.395 56.7734 202.221 60.9664 205.873 64.4492C209.559 67.8983 213.988 69.6228 219.162 69.6228C224.302 69.6228 228.714 67.8983 232.4 64.4492C236.086 60.9664 237.929 56.7734 237.929 51.8704ZM245.233 51.8704V11.192H248.884V51.8704C248.884 57.0439 247.549 61.8455 244.878 66.2752C242.206 70.671 238.588 74.1539 234.023 76.7237C229.458 79.2936 224.505 80.5785 219.162 80.5785C213.819 80.5785 208.866 79.2936 204.301 76.7237C199.736 74.1539 196.118 70.671 193.446 66.2752C190.775 61.8455 189.439 57.0439 189.439 51.8704V11.192H193.091V51.8704C193.091 56.3677 194.258 60.5437 196.591 64.3985C198.924 68.2533 202.086 71.3135 206.076 73.579C210.1 75.8108 214.462 76.9266 219.162 76.9266C223.862 76.9266 228.207 75.8108 232.197 73.579C236.221 71.3135 239.4 68.2533 241.733 64.3985C244.066 60.5437 245.233 56.3677 245.233 51.8704ZM252.536 51.8704V11.192H256.188V51.8704C256.188 56.7396 255.208 61.406 253.246 65.8694C251.285 70.2991 248.648 74.1201 245.334 77.3324C242.02 80.5447 238.081 83.0977 233.516 84.9913C228.951 86.9187 224.166 87.8824 219.162 87.8824C214.157 87.8824 209.373 86.9187 204.808 84.9913C200.243 83.0977 196.304 80.5447 192.99 77.3324C189.676 74.1201 187.039 70.2991 185.077 65.8694C183.116 61.406 182.135 56.7396 182.135 51.8704V11.192H185.787V51.8704C185.787 57.6864 187.275 63.0798 190.251 68.0504C193.26 73.0211 197.318 76.9604 202.424 79.8685C207.564 82.7765 213.143 84.2305 219.162 84.2305C225.181 84.2305 230.743 82.7765 235.849 79.8685C240.989 76.9604 245.047 73.0211 248.022 68.0504C251.032 63.0798 252.536 57.6864 252.536 51.8704ZM322.988 54.7615L319.336 48.117V11.192H322.988V54.7615ZM330.292 67.3911L326.64 61.2031V11.192H330.292V67.3911ZM279.977 40.661L283.628 47.3055V84.2305H279.977V40.661ZM272.673 27.5242L276.325 34.2194V84.2305H272.673V27.5242ZM273.941 11.192H278.201L320.503 84.2305H316.242L273.941 11.192ZM282.563 11.192H286.875L329.125 84.2305H324.763L282.563 11.192ZM291.135 11.192H295.396L333.944 77.8903V11.192H337.596V84.2305H333.284L291.135 11.192ZM269.021 17.4815V84.2305H265.369V11.192H269.731L311.88 84.2305H307.67L269.021 17.4815ZM369.043 11.192H372.695V84.2305H369.043V11.192ZM361.739 11.192H365.391V84.2305H361.739V11.192ZM354.435 11.192H358.087V84.2305H354.435V11.192ZM347.131 11.192H350.783V84.2305H347.131V11.192ZM395.164 31.4298H398.816V84.2305H395.164V31.4298ZM380.557 14.844V11.192H435.335V14.844H380.557ZM380.557 22.1478V18.4959H435.335V22.1478H380.557ZM380.557 29.4516V25.7997H435.335V29.4516H380.557ZM417.076 31.4298H420.728V84.2305H417.076V31.4298ZM409.772 31.4298H413.424V84.2305H409.772V31.4298ZM402.468 31.4298H406.12V84.2305H402.468V31.4298ZM461.66 84.2305H458.008V11.192H461.66V84.2305ZM454.356 84.2305H450.704V11.192H454.356V84.2305ZM447.052 84.2305H443.4V11.192H447.052V84.2305ZM468.963 65.9709H503.91V69.6228H468.963V73.2747H503.91V76.9266H468.963V80.5785H503.91V84.2305H465.312V11.192H503.91V14.844H468.963V18.4959H503.91V22.1478H468.963V25.7997H503.91V29.4516H468.963V38.5307H501.881V42.1826H468.963V45.8346H501.881V49.4865H468.963V53.1384H501.881V56.7903H468.963V65.9709ZM512.736 73.2747V69.6228H538.299V73.2747H512.736ZM512.736 80.5785V76.9266H538.299V80.5785H512.736ZM512.736 87.8824V84.2305H538.299V87.8824H512.736ZM534.647 0.236269H538.299V62.3189H534.647V0.236269ZM527.344 0.236269H530.995V62.3189H527.344V0.236269ZM520.04 0.236269H523.692V62.3189H520.04V0.236269ZM512.736 0.236269H516.388V62.3189H512.736V0.236269Z" fill="#1F1F1F"/>
<path class="show-hide" d="M78.576 118.082C78.024 118.082 77.528 117.986 77.088 117.794C76.656 117.594 76.316 117.322 76.068 116.978C75.82 116.626 75.692 116.222 75.684 115.766H76.848C76.888 116.158 77.048 116.49 77.328 116.762C77.616 117.026 78.032 117.158 78.576 117.158C79.096 117.158 79.504 117.03 79.8 116.774C80.104 116.51 80.256 116.174 80.256 115.766C80.256 115.446 80.168 115.186 79.992 114.986C79.816 114.786 79.596 114.634 79.332 114.53C79.068 114.426 78.712 114.314 78.264 114.194C77.712 114.05 77.268 113.906 76.932 113.762C76.604 113.618 76.32 113.394 76.08 113.09C75.848 112.778 75.732 112.362 75.732 111.842C75.732 111.386 75.848 110.982 76.08 110.63C76.312 110.278 76.636 110.006 77.052 109.814C77.476 109.622 77.96 109.526 78.504 109.526C79.288 109.526 79.928 109.722 80.424 110.114C80.928 110.506 81.212 111.026 81.276 111.674H80.076C80.036 111.354 79.868 111.074 79.572 110.834C79.276 110.586 78.884 110.462 78.396 110.462C77.94 110.462 77.568 110.582 77.28 110.822C76.992 111.054 76.848 111.382 76.848 111.806C76.848 112.11 76.932 112.358 77.1 112.55C77.276 112.742 77.488 112.89 77.736 112.994C77.992 113.09 78.348 113.202 78.804 113.33C79.356 113.482 79.8 113.634 80.136 113.786C80.472 113.93 80.76 114.158 81 114.47C81.24 114.774 81.36 115.19 81.36 115.718C81.36 116.126 81.252 116.51 81.036 116.87C80.82 117.23 80.5 117.522 80.076 117.746C79.652 117.97 79.152 118.082 78.576 118.082ZM82.7936 114.698C82.7936 114.018 82.9296 113.426 83.2016 112.922C83.4736 112.41 83.8496 112.014 84.3296 111.734C84.8176 111.454 85.3736 111.314 85.9976 111.314C86.8056 111.314 87.4696 111.51 87.9896 111.902C88.5176 112.294 88.8656 112.838 89.0336 113.534H87.8576C87.7456 113.134 87.5256 112.818 87.1976 112.586C86.8776 112.354 86.4776 112.238 85.9976 112.238C85.3736 112.238 84.8696 112.454 84.4856 112.886C84.1016 113.31 83.9096 113.914 83.9096 114.698C83.9096 115.49 84.1016 116.102 84.4856 116.534C84.8696 116.966 85.3736 117.182 85.9976 117.182C86.4776 117.182 86.8776 117.07 87.1976 116.846C87.5176 116.622 87.7376 116.302 87.8576 115.886H89.0336C88.8576 116.558 88.5056 117.098 87.9776 117.506C87.4496 117.906 86.7896 118.106 85.9976 118.106C85.3736 118.106 84.8176 117.966 84.3296 117.686C83.8496 117.406 83.4736 117.01 83.2016 116.498C82.9296 115.986 82.7936 115.386 82.7936 114.698ZM90.3172 114.686C90.3172 114.014 90.4532 113.426 90.7252 112.922C90.9972 112.41 91.3692 112.014 91.8412 111.734C92.3212 111.454 92.8532 111.314 93.4372 111.314C94.0132 111.314 94.5132 111.438 94.9372 111.686C95.3612 111.934 95.6772 112.246 95.8852 112.622V111.422H96.9892V117.998H95.8852V116.774C95.6692 117.158 95.3452 117.478 94.9132 117.734C94.4892 117.982 93.9932 118.106 93.4252 118.106C92.8412 118.106 92.3132 117.962 91.8412 117.674C91.3692 117.386 90.9972 116.982 90.7252 116.462C90.4532 115.942 90.3172 115.35 90.3172 114.686ZM95.8852 114.698C95.8852 114.202 95.7852 113.77 95.5852 113.402C95.3852 113.034 95.1132 112.754 94.7692 112.562C94.4332 112.362 94.0612 112.262 93.6532 112.262C93.2452 112.262 92.8732 112.358 92.5372 112.55C92.2012 112.742 91.9332 113.022 91.7332 113.39C91.5332 113.758 91.4332 114.19 91.4332 114.686C91.4332 115.19 91.5332 115.63 91.7332 116.006C91.9332 116.374 92.2012 116.658 92.5372 116.858C92.8732 117.05 93.2452 117.146 93.6532 117.146C94.0612 117.146 94.4332 117.05 94.7692 116.858C95.1132 116.658 95.3852 116.374 95.5852 116.006C95.7852 115.63 95.8852 115.194 95.8852 114.698ZM102.273 111.302C103.073 111.302 103.721 111.546 104.217 112.034C104.713 112.514 104.961 113.21 104.961 114.122V117.998H103.881V114.278C103.881 113.622 103.717 113.122 103.389 112.778C103.061 112.426 102.613 112.25 102.045 112.25C101.469 112.25 101.009 112.43 100.665 112.79C100.329 113.15 100.161 113.674 100.161 114.362V117.998H99.0692V111.422H100.161V112.358C100.377 112.022 100.669 111.762 101.037 111.578C101.413 111.394 101.825 111.302 102.273 111.302ZM117.121 119.582L115.453 117.914C115.045 118.026 114.629 118.082 114.205 118.082C113.429 118.082 112.721 117.902 112.081 117.542C111.441 117.174 110.933 116.666 110.557 116.018C110.189 115.362 110.005 114.626 110.005 113.81C110.005 112.994 110.189 112.262 110.557 111.614C110.933 110.958 111.441 110.45 112.081 110.09C112.721 109.722 113.429 109.538 114.205 109.538C114.989 109.538 115.701 109.722 116.341 110.09C116.981 110.45 117.485 110.954 117.853 111.602C118.221 112.25 118.405 112.986 118.405 113.81C118.405 114.61 118.229 115.33 117.877 115.97C117.525 116.61 117.041 117.114 116.425 117.482L118.537 119.582H117.121ZM111.121 113.81C111.121 114.474 111.253 115.058 111.517 115.562C111.789 116.066 112.157 116.454 112.621 116.726C113.093 116.998 113.621 117.134 114.205 117.134C114.789 117.134 115.313 116.998 115.777 116.726C116.249 116.454 116.617 116.066 116.881 115.562C117.153 115.058 117.289 114.474 117.289 113.81C117.289 113.138 117.153 112.554 116.881 112.058C116.617 111.554 116.253 111.166 115.789 110.894C115.325 110.622 114.797 110.486 114.205 110.486C113.613 110.486 113.085 110.622 112.621 110.894C112.157 111.166 111.789 111.554 111.517 112.058C111.253 112.554 111.121 113.138 111.121 113.81ZM124.509 117.998L122.517 114.578H121.197V117.998H120.105V109.634H122.805C123.437 109.634 123.969 109.742 124.401 109.958C124.841 110.174 125.169 110.466 125.385 110.834C125.601 111.202 125.709 111.622 125.709 112.094C125.709 112.67 125.541 113.178 125.205 113.618C124.877 114.058 124.381 114.35 123.717 114.494L125.817 117.998H124.509ZM121.197 113.702H122.805C123.397 113.702 123.841 113.558 124.137 113.27C124.433 112.974 124.581 112.582 124.581 112.094C124.581 111.598 124.433 111.214 124.137 110.942C123.849 110.67 123.405 110.534 122.805 110.534H121.197V113.702ZM132.406 112.322V116.198C132.406 116.518 132.474 116.746 132.61 116.882C132.746 117.01 132.982 117.074 133.318 117.074H134.122V117.998H133.138C132.53 117.998 132.074 117.858 131.77 117.578C131.466 117.298 131.314 116.838 131.314 116.198V112.322H130.462V111.422H131.314V109.766H132.406V111.422H134.122V112.322H132.406ZM138.548 118.106C137.932 118.106 137.372 117.966 136.868 117.686C136.372 117.406 135.98 117.01 135.692 116.498C135.412 115.978 135.272 115.378 135.272 114.698C135.272 114.026 135.416 113.434 135.704 112.922C136 112.402 136.4 112.006 136.904 111.734C137.408 111.454 137.972 111.314 138.596 111.314C139.22 111.314 139.784 111.454 140.288 111.734C140.792 112.006 141.188 112.398 141.476 112.91C141.772 113.422 141.92 114.018 141.92 114.698C141.92 115.378 141.768 115.978 141.464 116.498C141.168 117.01 140.764 117.406 140.252 117.686C139.74 117.966 139.172 118.106 138.548 118.106ZM138.548 117.146C138.94 117.146 139.308 117.054 139.652 116.87C139.996 116.686 140.272 116.41 140.48 116.042C140.696 115.674 140.804 115.226 140.804 114.698C140.804 114.17 140.7 113.722 140.492 113.354C140.284 112.986 140.012 112.714 139.676 112.538C139.34 112.354 138.976 112.262 138.584 112.262C138.184 112.262 137.816 112.354 137.48 112.538C137.152 112.714 136.888 112.986 136.688 113.354C136.488 113.722 136.388 114.17 136.388 114.698C136.388 115.234 136.484 115.686 136.676 116.054C136.876 116.422 137.14 116.698 137.468 116.882C137.796 117.058 138.156 117.146 138.548 117.146ZM148.116 109.634V117.998H147.024V109.634H148.116ZM153.416 111.302C154.216 111.302 154.864 111.546 155.36 112.034C155.856 112.514 156.104 113.21 156.104 114.122V117.998H155.024V114.278C155.024 113.622 154.86 113.122 154.532 112.778C154.204 112.426 153.756 112.25 153.188 112.25C152.612 112.25 152.152 112.43 151.808 112.79C151.472 113.15 151.304 113.674 151.304 114.362V117.998H150.212V111.422H151.304V112.358C151.52 112.022 151.812 111.762 152.18 111.578C152.556 111.394 152.968 111.302 153.416 111.302ZM160.45 118.106C159.946 118.106 159.494 118.022 159.094 117.854C158.694 117.678 158.378 117.438 158.146 117.134C157.914 116.822 157.786 116.466 157.762 116.066H158.89C158.922 116.394 159.074 116.662 159.346 116.87C159.626 117.078 159.99 117.182 160.438 117.182C160.854 117.182 161.182 117.09 161.422 116.906C161.662 116.722 161.782 116.49 161.782 116.21C161.782 115.922 161.654 115.71 161.398 115.574C161.142 115.43 160.746 115.29 160.21 115.154C159.722 115.026 159.322 114.898 159.01 114.77C158.706 114.634 158.442 114.438 158.218 114.182C158.002 113.918 157.894 113.574 157.894 113.15C157.894 112.814 157.994 112.506 158.194 112.226C158.394 111.946 158.678 111.726 159.046 111.566C159.414 111.398 159.834 111.314 160.306 111.314C161.034 111.314 161.622 111.498 162.07 111.866C162.518 112.234 162.758 112.738 162.79 113.378H161.698C161.674 113.034 161.534 112.758 161.278 112.55C161.03 112.342 160.694 112.238 160.27 112.238C159.878 112.238 159.566 112.322 159.334 112.49C159.102 112.658 158.986 112.878 158.986 113.15C158.986 113.366 159.054 113.546 159.19 113.69C159.334 113.826 159.51 113.938 159.718 114.026C159.934 114.106 160.23 114.198 160.606 114.302C161.078 114.43 161.462 114.558 161.758 114.686C162.054 114.806 162.306 114.99 162.514 115.238C162.73 115.486 162.842 115.81 162.85 116.21C162.85 116.57 162.75 116.894 162.55 117.182C162.35 117.47 162.066 117.698 161.698 117.866C161.338 118.026 160.922 118.106 160.45 118.106ZM165.958 112.322V116.198C165.958 116.518 166.026 116.746 166.162 116.882C166.298 117.01 166.534 117.074 166.87 117.074H167.674V117.998H166.69C166.082 117.998 165.626 117.858 165.322 117.578C165.018 117.298 164.866 116.838 164.866 116.198V112.322H164.014V111.422H164.866V109.766H165.958V111.422H167.674V112.322H165.958ZM168.824 114.686C168.824 114.014 168.96 113.426 169.232 112.922C169.504 112.41 169.876 112.014 170.348 111.734C170.828 111.454 171.36 111.314 171.944 111.314C172.52 111.314 173.02 111.438 173.444 111.686C173.868 111.934 174.184 112.246 174.392 112.622V111.422H175.496V117.998H174.392V116.774C174.176 117.158 173.852 117.478 173.42 117.734C172.996 117.982 172.5 118.106 171.932 118.106C171.348 118.106 170.82 117.962 170.348 117.674C169.876 117.386 169.504 116.982 169.232 116.462C168.96 115.942 168.824 115.35 168.824 114.686ZM174.392 114.698C174.392 114.202 174.292 113.77 174.092 113.402C173.892 113.034 173.62 112.754 173.276 112.562C172.94 112.362 172.568 112.262 172.16 112.262C171.752 112.262 171.38 112.358 171.044 112.55C170.708 112.742 170.44 113.022 170.24 113.39C170.04 113.758 169.94 114.19 169.94 114.686C169.94 115.19 170.04 115.63 170.24 116.006C170.44 116.374 170.708 116.658 171.044 116.858C171.38 117.05 171.752 117.146 172.16 117.146C172.568 117.146 172.94 117.05 173.276 116.858C173.62 116.658 173.892 116.374 174.092 116.006C174.292 115.63 174.392 115.194 174.392 114.698ZM178.668 109.118V117.998H177.576V109.118H178.668ZM181.856 109.118V117.998H180.764V109.118H181.856Z" fill="black"/>
<g filter="url(#filter0_d_48_4858)">
<g style="mix-blend-mode:soft-light">
<path d="M158.899 3.67773H175.938C176.208 3.67773 176.428 3.89725 176.428 4.16804V20.0386" stroke="black" stroke-width="1.20817"/>
<path d="M97.2002 3.67773H80.1619C79.8912 3.67773 79.6716 3.89725 79.6716 4.16804V20.0386" stroke="black" stroke-width="1.20817"/>
<path d="M97.2002 98.459H80.1619C79.8912 98.459 79.6716 98.2395 79.6716 97.9687V82.0982" stroke="black" stroke-width="1.20817"/>
<path d="M158.722 98.459H175.76C176.031 98.459 176.25 98.2395 176.25 97.9687V82.0982" stroke="black" stroke-width="1.20817"/>
</g>
</g>
<g class="scale-effect"  filter="url(#filter1_b_48_4858)">
<rect x="83.7266" y="3.67773" width="89.1387" height="94.6833" rx="44.5694" fill="#161617"/>
<rect x="83.0868" y="3.03798" width="90.4182" height="95.9628" rx="45.2091" stroke="#1F1F1F" stroke-opacity="0.12" stroke-width="1.2795"/>
</g>
<path d="M99.9346 22.8691H102.204V25.1381H99.9346V22.8691ZM102.204 22.8691H104.473V25.1381H102.204V22.8691ZM104.473 22.8691H106.742V25.1381H104.473V22.8691ZM106.742 22.8691H109.011V25.1381H106.742V22.8691ZM109.011 22.8691H111.28V25.1381H109.011V22.8691ZM111.28 22.8691H113.548V25.1381H111.28V22.8691ZM113.548 22.8691H115.817V25.1381H113.548V22.8691ZM118.086 22.8691H120.355V25.1381H118.086V22.8691ZM124.893 22.8691H127.162V25.1381H124.893V22.8691ZM127.162 22.8691H129.431V25.1381H127.162V22.8691ZM131.7 22.8691H133.969V25.1381H131.7V22.8691ZM140.776 22.8691H143.045V25.1381H140.776V22.8691ZM143.045 22.8691H145.314V25.1381H143.045V22.8691ZM145.314 22.8691H147.583V25.1381H145.314V22.8691ZM147.583 22.8691H149.852V25.1381H147.583V22.8691ZM149.852 22.8691H152.121V25.1381H149.852V22.8691ZM152.121 22.8691H154.39V25.1381H152.121V22.8691ZM154.39 22.8691H156.659V25.1381H154.39V22.8691ZM99.9346 25.1381H102.204V27.4071H99.9346V25.1381ZM113.548 25.1381H115.817V27.4071H113.548V25.1381ZM118.086 25.1381H120.355V27.4071H118.086V25.1381ZM120.355 25.1381H122.624V27.4071H120.355V25.1381ZM122.624 25.1381H124.893V27.4071H122.624V25.1381ZM127.162 25.1381H129.431V27.4071H127.162V25.1381ZM129.431 25.1381H131.7V27.4071H129.431V25.1381ZM131.7 25.1381H133.969V27.4071H131.7V25.1381ZM140.776 25.1381H143.045V27.4071H140.776V25.1381ZM154.39 25.1381H156.659V27.4071H154.39V25.1381ZM99.9346 27.4071H102.204V29.6761H99.9346V27.4071ZM104.473 27.4071H106.742V29.6761H104.473V27.4071ZM106.742 27.4071H109.011V29.6761H106.742V27.4071ZM109.011 27.4071H111.28V29.6761H109.011V27.4071ZM113.548 27.4071H115.817V29.6761H113.548V27.4071ZM122.624 27.4071H124.893V29.6761H122.624V27.4071ZM124.893 27.4071H127.162V29.6761H124.893V27.4071ZM127.162 27.4071H129.431V29.6761H127.162V27.4071ZM129.431 27.4071H131.7V29.6761H129.431V27.4071ZM133.969 27.4071H136.238V29.6761H133.969V27.4071ZM140.776 27.4071H143.045V29.6761H140.776V27.4071ZM145.314 27.4071H147.583V29.6761H145.314V27.4071ZM147.583 27.4071H149.852V29.6761H147.583V27.4071ZM149.852 27.4071H152.121V29.6761H149.852V27.4071ZM154.39 27.4071H156.659V29.6761H154.39V27.4071ZM99.9346 29.6761H102.204V31.9451H99.9346V29.6761ZM104.473 29.6761H106.742V31.9451H104.473V29.6761ZM106.742 29.6761H109.011V31.9451H106.742V29.6761ZM109.011 29.6761H111.28V31.9451H109.011V29.6761ZM113.548 29.6761H115.817V31.9451H113.548V29.6761ZM122.624 29.6761H124.893V31.9451H122.624V29.6761ZM129.431 29.6761H131.7V31.9451H129.431V29.6761ZM136.238 29.6761H138.507V31.9451H136.238V29.6761ZM140.776 29.6761H143.045V31.9451H140.776V29.6761ZM145.314 29.6761H147.583V31.9451H145.314V29.6761ZM147.583 29.6761H149.852V31.9451H147.583V29.6761ZM149.852 29.6761H152.121V31.9451H149.852V29.6761ZM154.39 29.6761H156.659V31.9451H154.39V29.6761ZM99.9346 31.9451H102.204V34.2141H99.9346V31.9451ZM104.473 31.9451H106.742V34.2141H104.473V31.9451ZM106.742 31.9451H109.011V34.2141H106.742V31.9451ZM109.011 31.9451H111.28V34.2141H109.011V31.9451ZM113.548 31.9451H115.817V34.2141H113.548V31.9451ZM118.086 31.9451H120.355V34.2141H118.086V31.9451ZM120.355 31.9451H122.624V34.2141H120.355V31.9451ZM122.624 31.9451H124.893V34.2141H122.624V31.9451ZM124.893 31.9451H127.162V34.2141H124.893V31.9451ZM131.7 31.9451H133.969V34.2141H131.7V31.9451ZM140.776 31.9451H143.045V34.2141H140.776V31.9451ZM145.314 31.9451H147.583V34.2141H145.314V31.9451ZM147.583 31.9451H149.852V34.2141H147.583V31.9451ZM149.852 31.9451H152.121V34.2141H149.852V31.9451ZM154.39 31.9451H156.659V34.2141H154.39V31.9451ZM99.9346 34.2141H102.204V36.4831H99.9346V34.2141ZM113.548 34.2141H115.817V36.4831H113.548V34.2141ZM118.086 34.2141H120.355V36.4831H118.086V34.2141ZM124.893 34.2141H127.162V36.4831H124.893V34.2141ZM129.431 34.2141H131.7V36.4831H129.431V34.2141ZM131.7 34.2141H133.969V36.4831H131.7V34.2141ZM140.776 34.2141H143.045V36.4831H140.776V34.2141ZM154.39 34.2141H156.659V36.4831H154.39V34.2141ZM99.9346 36.4831H102.204V38.752H99.9346V36.4831ZM102.204 36.4831H104.473V38.752H102.204V36.4831ZM104.473 36.4831H106.742V38.752H104.473V36.4831ZM106.742 36.4831H109.011V38.752H106.742V36.4831ZM109.011 36.4831H111.28V38.752H109.011V36.4831ZM111.28 36.4831H113.548V38.752H111.28V36.4831ZM113.548 36.4831H115.817V38.752H113.548V36.4831ZM118.086 36.4831H120.355V38.752H118.086V36.4831ZM122.624 36.4831H124.893V38.752H122.624V36.4831ZM127.162 36.4831H129.431V38.752H127.162V36.4831ZM131.7 36.4831H133.969V38.752H131.7V36.4831ZM136.238 36.4831H138.507V38.752H136.238V36.4831ZM140.776 36.4831H143.045V38.752H140.776V36.4831ZM143.045 36.4831H145.314V38.752H143.045V36.4831ZM145.314 36.4831H147.583V38.752H145.314V36.4831ZM147.583 36.4831H149.852V38.752H147.583V36.4831ZM149.852 36.4831H152.121V38.752H149.852V36.4831ZM152.121 36.4831H154.39V38.752H152.121V36.4831ZM154.39 36.4831H156.659V38.752H154.39V36.4831ZM118.086 38.752H120.355V41.021H118.086V38.752ZM122.624 38.752H124.893V41.021H122.624V38.752ZM124.893 38.752H127.162V41.021H124.893V38.752ZM127.162 38.752H129.431V41.021H127.162V38.752ZM131.7 38.752H133.969V41.021H131.7V38.752ZM133.969 38.752H136.238V41.021H133.969V38.752ZM136.238 38.752H138.507V41.021H136.238V38.752ZM99.9346 41.021H102.204V43.29H99.9346V41.021ZM102.204 41.021H104.473V43.29H102.204V41.021ZM104.473 41.021H106.742V43.29H104.473V41.021ZM111.28 41.021H113.548V43.29H111.28V41.021ZM113.548 41.021H115.817V43.29H113.548V41.021ZM118.086 41.021H120.355V43.29H118.086V41.021ZM120.355 41.021H122.624V43.29H120.355V41.021ZM122.624 41.021H124.893V43.29H122.624V41.021ZM136.238 41.021H138.507V43.29H136.238V41.021ZM138.507 41.021H140.776V43.29H138.507V41.021ZM140.776 41.021H143.045V43.29H140.776V41.021ZM143.045 41.021H145.314V43.29H143.045V41.021ZM145.314 41.021H147.583V43.29H145.314V41.021ZM152.121 41.021H154.39V43.29H152.121V41.021ZM154.39 41.021H156.659V43.29H154.39V41.021ZM99.9346 43.29H102.204V45.559H99.9346V43.29ZM102.204 43.29H104.473V45.559H102.204V43.29ZM106.742 43.29H109.011V45.559H106.742V43.29ZM118.086 43.29H120.355V45.559H118.086V43.29ZM120.355 43.29H122.624V45.559H120.355V43.29ZM122.624 43.29H124.893V45.559H122.624V43.29ZM133.969 43.29H136.238V45.559H133.969V43.29ZM140.776 43.29H143.045V45.559H140.776V43.29ZM143.045 43.29H145.314V45.559H143.045V43.29ZM147.583 43.29H149.852V45.559H147.583V43.29ZM152.121 43.29H154.39V45.559H152.121V43.29ZM154.39 43.29H156.659V45.559H154.39V43.29ZM99.9346 45.559H102.204V47.828H99.9346V45.559ZM102.204 45.559H104.473V47.828H102.204V45.559ZM104.473 45.559H106.742V47.828H104.473V45.559ZM109.011 45.559H111.28V47.828H109.011V45.559ZM111.28 45.559H113.548V47.828H111.28V45.559ZM113.548 45.559H115.817V47.828H113.548V45.559ZM115.817 45.559H118.086V47.828H115.817V45.559ZM124.893 45.559H127.162V47.828H124.893V45.559ZM129.431 45.559H131.7V47.828H129.431V45.559ZM131.7 45.559H133.969V47.828H131.7V45.559ZM133.969 45.559H136.238V47.828H133.969V45.559ZM147.583 45.559H149.852V47.828H147.583V45.559ZM149.852 45.559H152.121V47.828H149.852V45.559ZM154.39 45.559H156.659V47.828H154.39V45.559ZM99.9346 47.828H102.204V50.097H99.9346V47.828ZM104.473 47.828H106.742V50.097H104.473V47.828ZM109.011 47.828H111.28V50.097H109.011V47.828ZM111.28 47.828H113.548V50.097H111.28V47.828ZM115.817 47.828H118.086V50.097H115.817V47.828ZM120.355 47.828H122.624V50.097H120.355V47.828ZM131.7 47.828H133.969V50.097H131.7V47.828ZM133.969 47.828H136.238V50.097H133.969V47.828ZM140.776 47.828H143.045V50.097H140.776V47.828ZM143.045 47.828H145.314V50.097H143.045V47.828ZM145.314 47.828H147.583V50.097H145.314V47.828ZM147.583 47.828H149.852V50.097H147.583V47.828ZM99.9346 50.097H102.204V52.366H99.9346V50.097ZM102.204 50.097H104.473V52.366H102.204V50.097ZM113.548 50.097H115.817V52.366H113.548V50.097ZM115.817 50.097H118.086V52.366H115.817V50.097ZM118.086 50.097H120.355V52.366H118.086V50.097ZM120.355 50.097H122.624V52.366H120.355V50.097ZM124.893 50.097H127.162V52.366H124.893V50.097ZM127.162 50.097H129.431V52.366H127.162V50.097ZM136.238 50.097H138.507V52.366H136.238V50.097ZM140.776 50.097H143.045V52.366H140.776V50.097ZM143.045 50.097H145.314V52.366H143.045V50.097ZM154.39 50.097H156.659V52.366H154.39V50.097ZM102.204 52.366H104.473V54.6349H102.204V52.366ZM106.742 52.366H109.011V54.6349H106.742V52.366ZM109.011 52.366H111.28V54.6349H109.011V52.366ZM118.086 52.366H120.355V54.6349H118.086V52.366ZM120.355 52.366H122.624V54.6349H120.355V52.366ZM127.162 52.366H129.431V54.6349H127.162V52.366ZM131.7 52.366H133.969V54.6349H131.7V52.366ZM133.969 52.366H136.238V54.6349H133.969V52.366ZM136.238 52.366H138.507V54.6349H136.238V52.366ZM140.776 52.366H143.045V54.6349H140.776V52.366ZM143.045 52.366H145.314V54.6349H143.045V52.366ZM152.121 52.366H154.39V54.6349H152.121V52.366ZM154.39 52.366H156.659V54.6349H154.39V52.366ZM99.9346 54.6349H102.204V56.9039H99.9346V54.6349ZM102.204 54.6349H104.473V56.9039H102.204V54.6349ZM104.473 54.6349H106.742V56.9039H104.473V54.6349ZM111.28 54.6349H113.548V56.9039H111.28V54.6349ZM113.548 54.6349H115.817V56.9039H113.548V54.6349ZM118.086 54.6349H120.355V56.9039H118.086V54.6349ZM127.162 54.6349H129.431V56.9039H127.162V54.6349ZM129.431 54.6349H131.7V56.9039H129.431V54.6349ZM133.969 54.6349H136.238V56.9039H133.969V54.6349ZM136.238 54.6349H138.507V56.9039H136.238V54.6349ZM140.776 54.6349H143.045V56.9039H140.776V54.6349ZM147.583 54.6349H149.852V56.9039H147.583V54.6349ZM149.852 54.6349H152.121V56.9039H149.852V54.6349ZM154.39 54.6349H156.659V56.9039H154.39V54.6349ZM106.742 56.9039H109.011V59.1729H106.742V56.9039ZM109.011 56.9039H111.28V59.1729H109.011V56.9039ZM115.817 56.9039H118.086V59.1729H115.817V56.9039ZM118.086 56.9039H120.355V59.1729H118.086V56.9039ZM122.624 56.9039H124.893V59.1729H122.624V56.9039ZM124.893 56.9039H127.162V59.1729H124.893V56.9039ZM127.162 56.9039H129.431V59.1729H127.162V56.9039ZM133.969 56.9039H136.238V59.1729H133.969V56.9039ZM136.238 56.9039H138.507V59.1729H136.238V56.9039ZM138.507 56.9039H140.776V59.1729H138.507V56.9039ZM143.045 56.9039H145.314V59.1729H143.045V56.9039ZM145.314 56.9039H147.583V59.1729H145.314V56.9039ZM147.583 56.9039H149.852V59.1729H147.583V56.9039ZM99.9346 59.1729H102.204V61.4419H99.9346V59.1729ZM102.204 59.1729H104.473V61.4419H102.204V59.1729ZM104.473 59.1729H106.742V61.4419H104.473V59.1729ZM109.011 59.1729H111.28V61.4419H109.011V59.1729ZM113.548 59.1729H115.817V61.4419H113.548V59.1729ZM115.817 59.1729H118.086V61.4419H115.817V59.1729ZM118.086 59.1729H120.355V61.4419H118.086V59.1729ZM127.162 59.1729H129.431V61.4419H127.162V59.1729ZM136.238 59.1729H138.507V61.4419H136.238V59.1729ZM138.507 59.1729H140.776V61.4419H138.507V59.1729ZM140.776 59.1729H143.045V61.4419H140.776V59.1729ZM143.045 59.1729H145.314V61.4419H143.045V59.1729ZM145.314 59.1729H147.583V61.4419H145.314V59.1729ZM152.121 59.1729H154.39V61.4419H152.121V59.1729ZM118.086 61.4419H120.355V63.7109H118.086V61.4419ZM120.355 61.4419H122.624V63.7109H120.355V61.4419ZM122.624 61.4419H124.893V63.7109H122.624V61.4419ZM131.7 61.4419H133.969V63.7109H131.7V61.4419ZM136.238 61.4419H138.507V63.7109H136.238V61.4419ZM145.314 61.4419H147.583V63.7109H145.314V61.4419ZM154.39 61.4419H156.659V63.7109H154.39V61.4419ZM99.9346 63.7109H102.204V65.9799H99.9346V63.7109ZM102.204 63.7109H104.473V65.9799H102.204V63.7109ZM104.473 63.7109H106.742V65.9799H104.473V63.7109ZM106.742 63.7109H109.011V65.9799H106.742V63.7109ZM109.011 63.7109H111.28V65.9799H109.011V63.7109ZM111.28 63.7109H113.548V65.9799H111.28V63.7109ZM113.548 63.7109H115.817V65.9799H113.548V63.7109ZM122.624 63.7109H124.893V65.9799H122.624V63.7109ZM124.893 63.7109H127.162V65.9799H124.893V63.7109ZM129.431 63.7109H131.7V65.9799H129.431V63.7109ZM136.238 63.7109H138.507V65.9799H136.238V63.7109ZM140.776 63.7109H143.045V65.9799H140.776V63.7109ZM145.314 63.7109H147.583V65.9799H145.314V63.7109ZM154.39 63.7109H156.659V65.9799H154.39V63.7109ZM99.9346 65.9799H102.204V68.2489H99.9346V65.9799ZM113.548 65.9799H115.817V68.2489H113.548V65.9799ZM118.086 65.9799H120.355V68.2489H118.086V65.9799ZM120.355 65.9799H122.624V68.2489H120.355V65.9799ZM122.624 65.9799H124.893V68.2489H122.624V65.9799ZM127.162 65.9799H129.431V68.2489H127.162V65.9799ZM131.7 65.9799H133.969V68.2489H131.7V65.9799ZM133.969 65.9799H136.238V68.2489H133.969V65.9799ZM136.238 65.9799H138.507V68.2489H136.238V65.9799ZM145.314 65.9799H147.583V68.2489H145.314V65.9799ZM152.121 65.9799H154.39V68.2489H152.121V65.9799ZM99.9346 68.2489H102.204V70.5178H99.9346V68.2489ZM104.473 68.2489H106.742V70.5178H104.473V68.2489ZM106.742 68.2489H109.011V70.5178H106.742V68.2489ZM109.011 68.2489H111.28V70.5178H109.011V68.2489ZM113.548 68.2489H115.817V70.5178H113.548V68.2489ZM120.355 68.2489H122.624V70.5178H120.355V68.2489ZM124.893 68.2489H127.162V70.5178H124.893V68.2489ZM127.162 68.2489H129.431V70.5178H127.162V68.2489ZM133.969 68.2489H136.238V70.5178H133.969V68.2489ZM136.238 68.2489H138.507V70.5178H136.238V68.2489ZM138.507 68.2489H140.776V70.5178H138.507V68.2489ZM140.776 68.2489H143.045V70.5178H140.776V68.2489ZM143.045 68.2489H145.314V70.5178H143.045V68.2489ZM145.314 68.2489H147.583V70.5178H145.314V68.2489ZM152.121 68.2489H154.39V70.5178H152.121V68.2489ZM99.9346 70.5178H102.204V72.7868H99.9346V70.5178ZM104.473 70.5178H106.742V72.7868H104.473V70.5178ZM106.742 70.5178H109.011V72.7868H106.742V70.5178ZM109.011 70.5178H111.28V72.7868H109.011V70.5178ZM113.548 70.5178H115.817V72.7868H113.548V70.5178ZM120.355 70.5178H122.624V72.7868H120.355V70.5178ZM124.893 70.5178H127.162V72.7868H124.893V70.5178ZM127.162 70.5178H129.431V72.7868H127.162V70.5178ZM133.969 70.5178H136.238V72.7868H133.969V70.5178ZM138.507 70.5178H140.776V72.7868H138.507V70.5178ZM145.314 70.5178H147.583V72.7868H145.314V70.5178ZM149.852 70.5178H152.121V72.7868H149.852V70.5178ZM152.121 70.5178H154.39V72.7868H152.121V70.5178ZM99.9346 72.7868H102.204V75.0558H99.9346V72.7868ZM104.473 72.7868H106.742V75.0558H104.473V72.7868ZM106.742 72.7868H109.011V75.0558H106.742V72.7868ZM109.011 72.7868H111.28V75.0558H109.011V72.7868ZM113.548 72.7868H115.817V75.0558H113.548V72.7868ZM118.086 72.7868H120.355V75.0558H118.086V72.7868ZM120.355 72.7868H122.624V75.0558H120.355V72.7868ZM122.624 72.7868H124.893V75.0558H122.624V72.7868ZM124.893 72.7868H127.162V75.0558H124.893V72.7868ZM129.431 72.7868H131.7V75.0558H129.431V72.7868ZM133.969 72.7868H136.238V75.0558H133.969V72.7868ZM138.507 72.7868H140.776V75.0558H138.507V72.7868ZM143.045 72.7868H145.314V75.0558H143.045V72.7868ZM145.314 72.7868H147.583V75.0558H145.314V72.7868ZM147.583 72.7868H149.852V75.0558H147.583V72.7868ZM152.121 72.7868H154.39V75.0558H152.121V72.7868ZM154.39 72.7868H156.659V75.0558H154.39V72.7868ZM99.9346 75.0558H102.204V77.3248H99.9346V75.0558ZM113.548 75.0558H115.817V77.3248H113.548V75.0558ZM118.086 75.0558H120.355V77.3248H118.086V75.0558ZM120.355 75.0558H122.624V77.3248H120.355V75.0558ZM124.893 75.0558H127.162V77.3248H124.893V75.0558ZM127.162 75.0558H129.431V77.3248H127.162V75.0558ZM131.7 75.0558H133.969V77.3248H131.7V75.0558ZM136.238 75.0558H138.507V77.3248H136.238V75.0558ZM138.507 75.0558H140.776V77.3248H138.507V75.0558ZM140.776 75.0558H143.045V77.3248H140.776V75.0558ZM143.045 75.0558H145.314V77.3248H143.045V75.0558ZM145.314 75.0558H147.583V77.3248H145.314V75.0558ZM99.9346 77.3248H102.204V79.5938H99.9346V77.3248ZM102.204 77.3248H104.473V79.5938H102.204V77.3248ZM104.473 77.3248H106.742V79.5938H104.473V77.3248ZM106.742 77.3248H109.011V79.5938H106.742V77.3248ZM109.011 77.3248H111.28V79.5938H109.011V77.3248ZM111.28 77.3248H113.548V79.5938H111.28V77.3248ZM113.548 77.3248H115.817V79.5938H113.548V77.3248ZM118.086 77.3248H120.355V79.5938H118.086V77.3248ZM122.624 77.3248H124.893V79.5938H122.624V77.3248ZM124.893 77.3248H127.162V79.5938H124.893V77.3248ZM136.238 77.3248H138.507V79.5938H136.238V77.3248ZM138.507 77.3248H140.776V79.5938H138.507V77.3248ZM140.776 77.3248H143.045V79.5938H140.776V77.3248ZM147.583 77.3248H149.852V79.5938H147.583V77.3248ZM154.39 77.3248H156.659V79.5938H154.39V77.3248Z" fill="white"/>
<defs>
<filter id="filter0_d_48_4858" x="79.0674" y="3.07422" width="107.23" height="106.577" filterUnits="userSpaceOnUse" color-interpolation-filters="sRGB">
<feFlood flood-opacity="0" result="BackgroundImageFix"/>
<feColorMatrix in="SourceAlpha" type="matrix" values="0 0 0 0 0 0 0 0 0 0 0 0 0 0 0 0 0 0 127 0" result="hardAlpha"/>
<feOffset dx="4.63259" dy="5.95619"/>
<feGaussianBlur stdDeviation="2.3163"/>
<feComposite in2="hardAlpha" operator="out"/>
<feColorMatrix type="matrix" values="0 0 0 0 0 0 0 0 0 0 0 0 0 0 0 0 0 0 0.25 0"/>
<feBlend mode="normal" in2="BackgroundImageFix" result="effect1_dropShadow_48_4858"/>
<feBlend mode="normal" in="SourceGraphic" in2="effect1_dropShadow_48_4858" result="shape"/>
</filter>
<filter id="filter1_b_48_4858" x="75.1967" y="-4.85208" width="106.198" height="111.743" filterUnits="userSpaceOnUse" color-interpolation-filters="sRGB">
<feFlood flood-opacity="0" result="BackgroundImageFix"/>
<feGaussianBlur in="BackgroundImageFix" stdDeviation="3.62526"/>
<feComposite in2="SourceAlpha" operator="in" result="effect1_backgroundBlur_48_4858"/>
<feBlend mode="normal" in="SourceGraphic" in2="effect1_backgroundBlur_48_4858" result="shape"/>
</filter>
</defs>
</svg>
