<svg width="544" height="163" viewBox="0 0 544 163" fill="none" xmlns="http://www.w3.org/2000/svg">
<path d="M71.462 47.1926H75.1139L52.1372 95.5806V120.231H48.4853V95.5806L71.462 47.1926ZM64.1581 47.1926H67.81L44.8334 95.5806V120.231H41.1814V95.5806L64.1581 47.1926ZM56.8543 47.1926H60.5062L37.5295 95.5806V120.231H33.8776V95.5806L56.8543 47.1926ZM49.5504 47.1926H53.2023L30.2257 95.5806V120.231H26.5737V95.5806L2.07544 47.1926H5.72736L28.349 91.878L49.5504 47.1926ZM9.43 47.1926H13.0819L31.1894 81.6323L29.3634 85.6393L9.43 47.1926ZM16.7338 47.1926H20.4365L34.8413 73.6184L32.9646 77.6253L16.7338 47.1926ZM24.1391 47.1926H27.7911L38.4932 65.6551L36.6673 69.6621L24.1391 47.1926ZM230.625 87.871V47.1926H234.277V87.871C234.277 91.7258 232.789 95.0396 229.813 97.8123C226.872 100.585 223.321 101.971 219.162 101.971C215.003 101.971 211.435 100.585 208.46 97.8123C205.518 95.0396 204.047 91.7258 204.047 87.871V47.1926H207.699V87.871C207.699 90.7452 208.815 93.2136 211.047 95.2763C213.312 97.3051 216.017 98.3195 219.162 98.3195C222.307 98.3195 224.995 97.3051 227.227 95.2763C229.492 93.2136 230.625 90.7452 230.625 87.871ZM237.929 87.871V47.1926H241.581V87.871C241.581 93.7885 239.383 98.8437 234.987 103.037C230.591 107.196 225.316 109.275 219.162 109.275C213.008 109.275 207.733 107.196 203.337 103.037C198.941 98.8437 196.743 93.7885 196.743 87.871V47.1926H200.395V87.871C200.395 92.774 202.221 96.967 205.873 100.45C209.559 103.899 213.988 105.623 219.162 105.623C224.302 105.623 228.714 103.899 232.4 100.45C236.086 96.967 237.929 92.774 237.929 87.871ZM245.233 87.871V47.1926H248.884V87.871C248.884 93.0446 247.549 97.8462 244.878 102.276C242.206 106.672 238.588 110.154 234.023 112.724C229.458 115.294 224.505 116.579 219.162 116.579C213.819 116.579 208.866 115.294 204.301 112.724C199.736 110.154 196.118 106.672 193.446 102.276C190.775 97.8462 189.439 93.0446 189.439 87.871V47.1926H193.091V87.871C193.091 92.3683 194.258 96.5443 196.591 100.399C198.924 104.254 202.086 107.314 206.076 109.58C210.1 111.811 214.462 112.927 219.162 112.927C223.862 112.927 228.207 111.811 232.197 109.58C236.221 107.314 239.4 104.254 241.733 100.399C244.066 96.5443 245.233 92.3683 245.233 87.871ZM252.536 87.871V47.1926H256.188V87.871C256.188 92.7402 255.208 97.4066 253.246 101.87C251.285 106.3 248.648 110.121 245.334 113.333C242.02 116.545 238.081 119.098 233.516 120.992C228.951 122.919 224.166 123.883 219.162 123.883C214.157 123.883 209.373 122.919 204.808 120.992C200.243 119.098 196.304 116.545 192.99 113.333C189.676 110.121 187.039 106.3 185.077 101.87C183.116 97.4066 182.135 92.7402 182.135 87.871V47.1926H185.787V87.871C185.787 93.687 187.275 99.0804 190.251 104.051C193.26 109.022 197.318 112.961 202.424 115.869C207.564 118.777 213.143 120.231 219.162 120.231C225.181 120.231 230.743 118.777 235.849 115.869C240.989 112.961 245.047 109.022 248.022 104.051C251.032 99.0804 252.536 93.687 252.536 87.871ZM322.988 90.7621L319.336 84.1176V47.1926H322.988V90.7621ZM330.292 103.392L326.64 97.2037V47.1926H330.292V103.392ZM279.977 76.6616L283.628 83.3061V120.231H279.977V76.6616ZM272.673 63.5249L276.325 70.22V120.231H272.673V63.5249ZM273.941 47.1926H278.201L320.503 120.231H316.242L273.941 47.1926ZM282.563 47.1926H286.875L329.125 120.231H324.763L282.563 47.1926ZM291.135 47.1926H295.396L333.944 113.891V47.1926H337.596V120.231H333.284L291.135 47.1926ZM269.021 53.4821V120.231H265.369V47.1926H269.731L311.88 120.231H307.67L269.021 53.4821ZM369.043 47.1926H372.695V120.231H369.043V47.1926ZM361.739 47.1926H365.391V120.231H361.739V47.1926ZM354.435 47.1926H358.087V120.231H354.435V47.1926ZM347.131 47.1926H350.783V120.231H347.131V47.1926ZM395.164 67.4304H398.816V120.231H395.164V67.4304ZM380.557 50.8446V47.1926H435.335V50.8446H380.557ZM380.557 58.1484V54.4965H435.335V58.1484H380.557ZM380.557 65.4523V61.8003H435.335V65.4523H380.557ZM417.076 67.4304H420.728V120.231H417.076V67.4304ZM409.772 67.4304H413.424V120.231H409.772V67.4304ZM402.468 67.4304H406.12V120.231H402.468V67.4304ZM461.66 120.231H458.008V47.1926H461.66V120.231ZM454.356 120.231H450.704V47.1926H454.356V120.231ZM447.052 120.231H443.4V47.1926H447.052V120.231ZM468.963 101.971H503.91V105.623H468.963V109.275H503.91V112.927H468.963V116.579H503.91V120.231H465.312V47.1926H503.91V50.8446H468.963V54.4965H503.91V58.1484H468.963V61.8003H503.91V65.4523H468.963V74.5313H501.881V78.1833H468.963V81.8352H501.881V85.4871H468.963V89.139H501.881V92.7909H468.963V101.971ZM512.736 109.275V105.623H538.299V109.275H512.736ZM512.736 116.579V112.927H538.299V116.579H512.736ZM512.736 123.883V120.231H538.299V123.883H512.736ZM534.647 36.2369H538.299V98.3195H534.647V36.2369ZM527.344 36.2369H530.995V98.3195H527.344V36.2369ZM520.04 36.2369H523.692V98.3195H520.04V36.2369ZM512.736 36.2369H516.388V98.3195H512.736V36.2369Z" fill="#1F1F1F"/>
<path d="M78.576 154.084C78.024 154.084 77.528 153.988 77.088 153.796C76.656 153.596 76.316 153.324 76.068 152.98C75.82 152.628 75.692 152.224 75.684 151.768H76.848C76.888 152.16 77.048 152.492 77.328 152.764C77.616 153.028 78.032 153.16 78.576 153.16C79.096 153.16 79.504 153.032 79.8 152.776C80.104 152.512 80.256 152.176 80.256 151.768C80.256 151.448 80.168 151.188 79.992 150.988C79.816 150.788 79.596 150.636 79.332 150.532C79.068 150.428 78.712 150.316 78.264 150.196C77.712 150.052 77.268 149.908 76.932 149.764C76.604 149.62 76.32 149.396 76.08 149.092C75.848 148.78 75.732 148.364 75.732 147.844C75.732 147.388 75.848 146.984 76.08 146.632C76.312 146.28 76.636 146.008 77.052 145.816C77.476 145.624 77.96 145.528 78.504 145.528C79.288 145.528 79.928 145.724 80.424 146.116C80.928 146.508 81.212 147.028 81.276 147.676H80.076C80.036 147.356 79.868 147.076 79.572 146.836C79.276 146.588 78.884 146.464 78.396 146.464C77.94 146.464 77.568 146.584 77.28 146.824C76.992 147.056 76.848 147.384 76.848 147.808C76.848 148.112 76.932 148.36 77.1 148.552C77.276 148.744 77.488 148.892 77.736 148.996C77.992 149.092 78.348 149.204 78.804 149.332C79.356 149.484 79.8 149.636 80.136 149.788C80.472 149.932 80.76 150.16 81 150.472C81.24 150.776 81.36 151.192 81.36 151.72C81.36 152.128 81.252 152.512 81.036 152.872C80.82 153.232 80.5 153.524 80.076 153.748C79.652 153.972 79.152 154.084 78.576 154.084ZM82.7936 150.7C82.7936 150.02 82.9296 149.428 83.2016 148.924C83.4736 148.412 83.8496 148.016 84.3296 147.736C84.8176 147.456 85.3736 147.316 85.9976 147.316C86.8056 147.316 87.4696 147.512 87.9896 147.904C88.5176 148.296 88.8656 148.84 89.0336 149.536H87.8576C87.7456 149.136 87.5256 148.82 87.1976 148.588C86.8776 148.356 86.4776 148.24 85.9976 148.24C85.3736 148.24 84.8696 148.456 84.4856 148.888C84.1016 149.312 83.9096 149.916 83.9096 150.7C83.9096 151.492 84.1016 152.104 84.4856 152.536C84.8696 152.968 85.3736 153.184 85.9976 153.184C86.4776 153.184 86.8776 153.072 87.1976 152.848C87.5176 152.624 87.7376 152.304 87.8576 151.888H89.0336C88.8576 152.56 88.5056 153.1 87.9776 153.508C87.4496 153.908 86.7896 154.108 85.9976 154.108C85.3736 154.108 84.8176 153.968 84.3296 153.688C83.8496 153.408 83.4736 153.012 83.2016 152.5C82.9296 151.988 82.7936 151.388 82.7936 150.7ZM90.3172 150.688C90.3172 150.016 90.4532 149.428 90.7252 148.924C90.9972 148.412 91.3692 148.016 91.8412 147.736C92.3212 147.456 92.8532 147.316 93.4372 147.316C94.0132 147.316 94.5132 147.44 94.9372 147.688C95.3612 147.936 95.6772 148.248 95.8852 148.624V147.424H96.9892V154H95.8852V152.776C95.6692 153.16 95.3452 153.48 94.9132 153.736C94.4892 153.984 93.9932 154.108 93.4252 154.108C92.8412 154.108 92.3132 153.964 91.8412 153.676C91.3692 153.388 90.9972 152.984 90.7252 152.464C90.4532 151.944 90.3172 151.352 90.3172 150.688ZM95.8852 150.7C95.8852 150.204 95.7852 149.772 95.5852 149.404C95.3852 149.036 95.1132 148.756 94.7692 148.564C94.4332 148.364 94.0612 148.264 93.6532 148.264C93.2452 148.264 92.8732 148.36 92.5372 148.552C92.2012 148.744 91.9332 149.024 91.7332 149.392C91.5332 149.76 91.4332 150.192 91.4332 150.688C91.4332 151.192 91.5332 151.632 91.7332 152.008C91.9332 152.376 92.2012 152.66 92.5372 152.86C92.8732 153.052 93.2452 153.148 93.6532 153.148C94.0612 153.148 94.4332 153.052 94.7692 152.86C95.1132 152.66 95.3852 152.376 95.5852 152.008C95.7852 151.632 95.8852 151.196 95.8852 150.7ZM102.273 147.304C103.073 147.304 103.721 147.548 104.217 148.036C104.713 148.516 104.961 149.212 104.961 150.124V154H103.881V150.28C103.881 149.624 103.717 149.124 103.389 148.78C103.061 148.428 102.613 148.252 102.045 148.252C101.469 148.252 101.009 148.432 100.665 148.792C100.329 149.152 100.161 149.676 100.161 150.364V154H99.0692V147.424H100.161V148.36C100.377 148.024 100.669 147.764 101.037 147.58C101.413 147.396 101.825 147.304 102.273 147.304ZM117.121 155.584L115.453 153.916C115.045 154.028 114.629 154.084 114.205 154.084C113.429 154.084 112.721 153.904 112.081 153.544C111.441 153.176 110.933 152.668 110.557 152.02C110.189 151.364 110.005 150.628 110.005 149.812C110.005 148.996 110.189 148.264 110.557 147.616C110.933 146.96 111.441 146.452 112.081 146.092C112.721 145.724 113.429 145.54 114.205 145.54C114.989 145.54 115.701 145.724 116.341 146.092C116.981 146.452 117.485 146.956 117.853 147.604C118.221 148.252 118.405 148.988 118.405 149.812C118.405 150.612 118.229 151.332 117.877 151.972C117.525 152.612 117.041 153.116 116.425 153.484L118.537 155.584H117.121ZM111.121 149.812C111.121 150.476 111.253 151.06 111.517 151.564C111.789 152.068 112.157 152.456 112.621 152.728C113.093 153 113.621 153.136 114.205 153.136C114.789 153.136 115.313 153 115.777 152.728C116.249 152.456 116.617 152.068 116.881 151.564C117.153 151.06 117.289 150.476 117.289 149.812C117.289 149.14 117.153 148.556 116.881 148.06C116.617 147.556 116.253 147.168 115.789 146.896C115.325 146.624 114.797 146.488 114.205 146.488C113.613 146.488 113.085 146.624 112.621 146.896C112.157 147.168 111.789 147.556 111.517 148.06C111.253 148.556 111.121 149.14 111.121 149.812ZM124.509 154L122.517 150.58H121.197V154H120.105V145.636H122.805C123.437 145.636 123.969 145.744 124.401 145.96C124.841 146.176 125.169 146.468 125.385 146.836C125.601 147.204 125.709 147.624 125.709 148.096C125.709 148.672 125.541 149.18 125.205 149.62C124.877 150.06 124.381 150.352 123.717 150.496L125.817 154H124.509ZM121.197 149.704H122.805C123.397 149.704 123.841 149.56 124.137 149.272C124.433 148.976 124.581 148.584 124.581 148.096C124.581 147.6 124.433 147.216 124.137 146.944C123.849 146.672 123.405 146.536 122.805 146.536H121.197V149.704ZM132.406 148.324V152.2C132.406 152.52 132.474 152.748 132.61 152.884C132.746 153.012 132.982 153.076 133.318 153.076H134.122V154H133.138C132.53 154 132.074 153.86 131.77 153.58C131.466 153.3 131.314 152.84 131.314 152.2V148.324H130.462V147.424H131.314V145.768H132.406V147.424H134.122V148.324H132.406ZM138.548 154.108C137.932 154.108 137.372 153.968 136.868 153.688C136.372 153.408 135.98 153.012 135.692 152.5C135.412 151.98 135.272 151.38 135.272 150.7C135.272 150.028 135.416 149.436 135.704 148.924C136 148.404 136.4 148.008 136.904 147.736C137.408 147.456 137.972 147.316 138.596 147.316C139.22 147.316 139.784 147.456 140.288 147.736C140.792 148.008 141.188 148.4 141.476 148.912C141.772 149.424 141.92 150.02 141.92 150.7C141.92 151.38 141.768 151.98 141.464 152.5C141.168 153.012 140.764 153.408 140.252 153.688C139.74 153.968 139.172 154.108 138.548 154.108ZM138.548 153.148C138.94 153.148 139.308 153.056 139.652 152.872C139.996 152.688 140.272 152.412 140.48 152.044C140.696 151.676 140.804 151.228 140.804 150.7C140.804 150.172 140.7 149.724 140.492 149.356C140.284 148.988 140.012 148.716 139.676 148.54C139.34 148.356 138.976 148.264 138.584 148.264C138.184 148.264 137.816 148.356 137.48 148.54C137.152 148.716 136.888 148.988 136.688 149.356C136.488 149.724 136.388 150.172 136.388 150.7C136.388 151.236 136.484 151.688 136.676 152.056C136.876 152.424 137.14 152.7 137.468 152.884C137.796 153.06 138.156 153.148 138.548 153.148ZM148.116 145.636V154H147.024V145.636H148.116ZM153.416 147.304C154.216 147.304 154.864 147.548 155.36 148.036C155.856 148.516 156.104 149.212 156.104 150.124V154H155.024V150.28C155.024 149.624 154.86 149.124 154.532 148.78C154.204 148.428 153.756 148.252 153.188 148.252C152.612 148.252 152.152 148.432 151.808 148.792C151.472 149.152 151.304 149.676 151.304 150.364V154H150.212V147.424H151.304V148.36C151.52 148.024 151.812 147.764 152.18 147.58C152.556 147.396 152.968 147.304 153.416 147.304ZM160.45 154.108C159.946 154.108 159.494 154.024 159.094 153.856C158.694 153.68 158.378 153.44 158.146 153.136C157.914 152.824 157.786 152.468 157.762 152.068H158.89C158.922 152.396 159.074 152.664 159.346 152.872C159.626 153.08 159.99 153.184 160.438 153.184C160.854 153.184 161.182 153.092 161.422 152.908C161.662 152.724 161.782 152.492 161.782 152.212C161.782 151.924 161.654 151.712 161.398 151.576C161.142 151.432 160.746 151.292 160.21 151.156C159.722 151.028 159.322 150.9 159.01 150.772C158.706 150.636 158.442 150.44 158.218 150.184C158.002 149.92 157.894 149.576 157.894 149.152C157.894 148.816 157.994 148.508 158.194 148.228C158.394 147.948 158.678 147.728 159.046 147.568C159.414 147.4 159.834 147.316 160.306 147.316C161.034 147.316 161.622 147.5 162.07 147.868C162.518 148.236 162.758 148.74 162.79 149.38H161.698C161.674 149.036 161.534 148.76 161.278 148.552C161.03 148.344 160.694 148.24 160.27 148.24C159.878 148.24 159.566 148.324 159.334 148.492C159.102 148.66 158.986 148.88 158.986 149.152C158.986 149.368 159.054 149.548 159.19 149.692C159.334 149.828 159.51 149.94 159.718 150.028C159.934 150.108 160.23 150.2 160.606 150.304C161.078 150.432 161.462 150.56 161.758 150.688C162.054 150.808 162.306 150.992 162.514 151.24C162.73 151.488 162.842 151.812 162.85 152.212C162.85 152.572 162.75 152.896 162.55 153.184C162.35 153.472 162.066 153.7 161.698 153.868C161.338 154.028 160.922 154.108 160.45 154.108ZM165.958 148.324V152.2C165.958 152.52 166.026 152.748 166.162 152.884C166.298 153.012 166.534 153.076 166.87 153.076H167.674V154H166.69C166.082 154 165.626 153.86 165.322 153.58C165.018 153.3 164.866 152.84 164.866 152.2V148.324H164.014V147.424H164.866V145.768H165.958V147.424H167.674V148.324H165.958ZM168.824 150.688C168.824 150.016 168.96 149.428 169.232 148.924C169.504 148.412 169.876 148.016 170.348 147.736C170.828 147.456 171.36 147.316 171.944 147.316C172.52 147.316 173.02 147.44 173.444 147.688C173.868 147.936 174.184 148.248 174.392 148.624V147.424H175.496V154H174.392V152.776C174.176 153.16 173.852 153.48 173.42 153.736C172.996 153.984 172.5 154.108 171.932 154.108C171.348 154.108 170.82 153.964 170.348 153.676C169.876 153.388 169.504 152.984 169.232 152.464C168.96 151.944 168.824 151.352 168.824 150.688ZM174.392 150.7C174.392 150.204 174.292 149.772 174.092 149.404C173.892 149.036 173.62 148.756 173.276 148.564C172.94 148.364 172.568 148.264 172.16 148.264C171.752 148.264 171.38 148.36 171.044 148.552C170.708 148.744 170.44 149.024 170.24 149.392C170.04 149.76 169.94 150.192 169.94 150.688C169.94 151.192 170.04 151.632 170.24 152.008C170.44 152.376 170.708 152.66 171.044 152.86C171.38 153.052 171.752 153.148 172.16 153.148C172.568 153.148 172.94 153.052 173.276 152.86C173.62 152.66 173.892 152.376 174.092 152.008C174.292 151.632 174.392 151.196 174.392 150.7ZM178.668 145.12V154H177.576V145.12H178.668ZM181.856 145.12V154H180.764V145.12H181.856Z" fill="black"/>
<g filter="url(#filter0_d_1_14059)">
<g style="mix-blend-mode:soft-light">
<path d="M158.9 39.679H175.938C176.209 39.679 176.429 39.8985 176.429 40.1693V56.0398" stroke="black" stroke-width="1.20817"/>
<path d="M97.2012 39.679H80.1629C79.8921 39.679 79.6726 39.8985 79.6726 40.1693V56.0398" stroke="black" stroke-width="1.20817"/>
<path d="M97.2012 134.461H80.1629C79.8921 134.461 79.6726 134.241 79.6726 133.971V118.1" stroke="black" stroke-width="1.20817"/>
<path d="M158.722 134.461H175.76C176.031 134.461 176.251 134.241 176.251 133.971V118.1" stroke="black" stroke-width="1.20817"/>
</g>
</g>
<g filter="url(#filter1_b_1_14059)">
<rect x="83.7266" y="39.6788" width="89.1387" height="94.6833" rx="44.5694" fill="#161617"/>
<rect x="83.0868" y="39.0391" width="90.4182" height="95.9628" rx="45.2091" stroke="#1F1F1F" stroke-opacity="0.12" stroke-width="1.2795"/>
</g>
<path d="M99.9341 58.8711H102.203V61.1401H99.9341V58.8711ZM102.203 58.8711H104.472V61.1401H102.203V58.8711ZM104.472 58.8711H106.741V61.1401H104.472V58.8711ZM106.741 58.8711H109.01V61.1401H106.741V58.8711ZM109.01 58.8711H111.279V61.1401H109.01V58.8711ZM111.279 58.8711H113.548V61.1401H111.279V58.8711ZM113.548 58.8711H115.817V61.1401H113.548V58.8711ZM118.086 58.8711H120.355V61.1401H118.086V58.8711ZM124.893 58.8711H127.162V61.1401H124.893V58.8711ZM127.162 58.8711H129.431V61.1401H127.162V58.8711ZM131.7 58.8711H133.969V61.1401H131.7V58.8711ZM140.776 58.8711H143.045V61.1401H140.776V58.8711ZM143.045 58.8711H145.314V61.1401H143.045V58.8711ZM145.314 58.8711H147.583V61.1401H145.314V58.8711ZM147.583 58.8711H149.852V61.1401H147.583V58.8711ZM149.852 58.8711H152.121V61.1401H149.852V58.8711ZM152.121 58.8711H154.39V61.1401H152.121V58.8711ZM154.39 58.8711H156.659V61.1401H154.39V58.8711ZM99.9341 61.1401H102.203V63.4091H99.9341V61.1401ZM113.548 61.1401H115.817V63.4091H113.548V61.1401ZM118.086 61.1401H120.355V63.4091H118.086V61.1401ZM120.355 61.1401H122.624V63.4091H120.355V61.1401ZM122.624 61.1401H124.893V63.4091H122.624V61.1401ZM127.162 61.1401H129.431V63.4091H127.162V61.1401ZM129.431 61.1401H131.7V63.4091H129.431V61.1401ZM131.7 61.1401H133.969V63.4091H131.7V61.1401ZM140.776 61.1401H143.045V63.4091H140.776V61.1401ZM154.39 61.1401H156.659V63.4091H154.39V61.1401ZM99.9341 63.4091H102.203V65.6781H99.9341V63.4091ZM104.472 63.4091H106.741V65.6781H104.472V63.4091ZM106.741 63.4091H109.01V65.6781H106.741V63.4091ZM109.01 63.4091H111.279V65.6781H109.01V63.4091ZM113.548 63.4091H115.817V65.6781H113.548V63.4091ZM122.624 63.4091H124.893V65.6781H122.624V63.4091ZM124.893 63.4091H127.162V65.6781H124.893V63.4091ZM127.162 63.4091H129.431V65.6781H127.162V63.4091ZM129.431 63.4091H131.7V65.6781H129.431V63.4091ZM133.969 63.4091H136.238V65.6781H133.969V63.4091ZM140.776 63.4091H143.045V65.6781H140.776V63.4091ZM145.314 63.4091H147.583V65.6781H145.314V63.4091ZM147.583 63.4091H149.852V65.6781H147.583V63.4091ZM149.852 63.4091H152.121V65.6781H149.852V63.4091ZM154.39 63.4091H156.659V65.6781H154.39V63.4091ZM99.9341 65.6781H102.203V67.947H99.9341V65.6781ZM104.472 65.6781H106.741V67.947H104.472V65.6781ZM106.741 65.6781H109.01V67.947H106.741V65.6781ZM109.01 65.6781H111.279V67.947H109.01V65.6781ZM113.548 65.6781H115.817V67.947H113.548V65.6781ZM122.624 65.6781H124.893V67.947H122.624V65.6781ZM129.431 65.6781H131.7V67.947H129.431V65.6781ZM136.238 65.6781H138.507V67.947H136.238V65.6781ZM140.776 65.6781H143.045V67.947H140.776V65.6781ZM145.314 65.6781H147.583V67.947H145.314V65.6781ZM147.583 65.6781H149.852V67.947H147.583V65.6781ZM149.852 65.6781H152.121V67.947H149.852V65.6781ZM154.39 65.6781H156.659V67.947H154.39V65.6781ZM99.9341 67.947H102.203V70.216H99.9341V67.947ZM104.472 67.947H106.741V70.216H104.472V67.947ZM106.741 67.947H109.01V70.216H106.741V67.947ZM109.01 67.947H111.279V70.216H109.01V67.947ZM113.548 67.947H115.817V70.216H113.548V67.947ZM118.086 67.947H120.355V70.216H118.086V67.947ZM120.355 67.947H122.624V70.216H120.355V67.947ZM122.624 67.947H124.893V70.216H122.624V67.947ZM124.893 67.947H127.162V70.216H124.893V67.947ZM131.7 67.947H133.969V70.216H131.7V67.947ZM140.776 67.947H143.045V70.216H140.776V67.947ZM145.314 67.947H147.583V70.216H145.314V67.947ZM147.583 67.947H149.852V70.216H147.583V67.947ZM149.852 67.947H152.121V70.216H149.852V67.947ZM154.39 67.947H156.659V70.216H154.39V67.947ZM99.9341 70.216H102.203V72.485H99.9341V70.216ZM113.548 70.216H115.817V72.485H113.548V70.216ZM118.086 70.216H120.355V72.485H118.086V70.216ZM124.893 70.216H127.162V72.485H124.893V70.216ZM129.431 70.216H131.7V72.485H129.431V70.216ZM131.7 70.216H133.969V72.485H131.7V70.216ZM140.776 70.216H143.045V72.485H140.776V70.216ZM154.39 70.216H156.659V72.485H154.39V70.216ZM99.9341 72.485H102.203V74.754H99.9341V72.485ZM102.203 72.485H104.472V74.754H102.203V72.485ZM104.472 72.485H106.741V74.754H104.472V72.485ZM106.741 72.485H109.01V74.754H106.741V72.485ZM109.01 72.485H111.279V74.754H109.01V72.485ZM111.279 72.485H113.548V74.754H111.279V72.485ZM113.548 72.485H115.817V74.754H113.548V72.485ZM118.086 72.485H120.355V74.754H118.086V72.485ZM122.624 72.485H124.893V74.754H122.624V72.485ZM127.162 72.485H129.431V74.754H127.162V72.485ZM131.7 72.485H133.969V74.754H131.7V72.485ZM136.238 72.485H138.507V74.754H136.238V72.485ZM140.776 72.485H143.045V74.754H140.776V72.485ZM143.045 72.485H145.314V74.754H143.045V72.485ZM145.314 72.485H147.583V74.754H145.314V72.485ZM147.583 72.485H149.852V74.754H147.583V72.485ZM149.852 72.485H152.121V74.754H149.852V72.485ZM152.121 72.485H154.39V74.754H152.121V72.485ZM154.39 72.485H156.659V74.754H154.39V72.485ZM118.086 74.754H120.355V77.023H118.086V74.754ZM122.624 74.754H124.893V77.023H122.624V74.754ZM124.893 74.754H127.162V77.023H124.893V74.754ZM127.162 74.754H129.431V77.023H127.162V74.754ZM131.7 74.754H133.969V77.023H131.7V74.754ZM133.969 74.754H136.238V77.023H133.969V74.754ZM136.238 74.754H138.507V77.023H136.238V74.754ZM99.9341 77.023H102.203V79.292H99.9341V77.023ZM102.203 77.023H104.472V79.292H102.203V77.023ZM104.472 77.023H106.741V79.292H104.472V77.023ZM111.279 77.023H113.548V79.292H111.279V77.023ZM113.548 77.023H115.817V79.292H113.548V77.023ZM118.086 77.023H120.355V79.292H118.086V77.023ZM120.355 77.023H122.624V79.292H120.355V77.023ZM122.624 77.023H124.893V79.292H122.624V77.023ZM136.238 77.023H138.507V79.292H136.238V77.023ZM138.507 77.023H140.776V79.292H138.507V77.023ZM140.776 77.023H143.045V79.292H140.776V77.023ZM143.045 77.023H145.314V79.292H143.045V77.023ZM145.314 77.023H147.583V79.292H145.314V77.023ZM152.121 77.023H154.39V79.292H152.121V77.023ZM154.39 77.023H156.659V79.292H154.39V77.023ZM99.9341 79.292H102.203V81.561H99.9341V79.292ZM102.203 79.292H104.472V81.561H102.203V79.292ZM106.741 79.292H109.01V81.561H106.741V79.292ZM118.086 79.292H120.355V81.561H118.086V79.292ZM120.355 79.292H122.624V81.561H120.355V79.292ZM122.624 79.292H124.893V81.561H122.624V79.292ZM133.969 79.292H136.238V81.561H133.969V79.292ZM140.776 79.292H143.045V81.561H140.776V79.292ZM143.045 79.292H145.314V81.561H143.045V79.292ZM147.583 79.292H149.852V81.561H147.583V79.292ZM152.121 79.292H154.39V81.561H152.121V79.292ZM154.39 79.292H156.659V81.561H154.39V79.292ZM99.9341 81.561H102.203V83.8299H99.9341V81.561ZM102.203 81.561H104.472V83.8299H102.203V81.561ZM104.472 81.561H106.741V83.8299H104.472V81.561ZM109.01 81.561H111.279V83.8299H109.01V81.561ZM111.279 81.561H113.548V83.8299H111.279V81.561ZM113.548 81.561H115.817V83.8299H113.548V81.561ZM115.817 81.561H118.086V83.8299H115.817V81.561ZM124.893 81.561H127.162V83.8299H124.893V81.561ZM129.431 81.561H131.7V83.8299H129.431V81.561ZM131.7 81.561H133.969V83.8299H131.7V81.561ZM133.969 81.561H136.238V83.8299H133.969V81.561ZM147.583 81.561H149.852V83.8299H147.583V81.561ZM149.852 81.561H152.121V83.8299H149.852V81.561ZM154.39 81.561H156.659V83.8299H154.39V81.561ZM99.9341 83.8299H102.203V86.0989H99.9341V83.8299ZM104.472 83.8299H106.741V86.0989H104.472V83.8299ZM109.01 83.8299H111.279V86.0989H109.01V83.8299ZM111.279 83.8299H113.548V86.0989H111.279V83.8299ZM115.817 83.8299H118.086V86.0989H115.817V83.8299ZM120.355 83.8299H122.624V86.0989H120.355V83.8299ZM131.7 83.8299H133.969V86.0989H131.7V83.8299ZM133.969 83.8299H136.238V86.0989H133.969V83.8299ZM140.776 83.8299H143.045V86.0989H140.776V83.8299ZM143.045 83.8299H145.314V86.0989H143.045V83.8299ZM145.314 83.8299H147.583V86.0989H145.314V83.8299ZM147.583 83.8299H149.852V86.0989H147.583V83.8299ZM99.9341 86.0989H102.203V88.3679H99.9341V86.0989ZM102.203 86.0989H104.472V88.3679H102.203V86.0989ZM113.548 86.0989H115.817V88.3679H113.548V86.0989ZM115.817 86.0989H118.086V88.3679H115.817V86.0989ZM118.086 86.0989H120.355V88.3679H118.086V86.0989ZM120.355 86.0989H122.624V88.3679H120.355V86.0989ZM124.893 86.0989H127.162V88.3679H124.893V86.0989ZM127.162 86.0989H129.431V88.3679H127.162V86.0989ZM136.238 86.0989H138.507V88.3679H136.238V86.0989ZM140.776 86.0989H143.045V88.3679H140.776V86.0989ZM143.045 86.0989H145.314V88.3679H143.045V86.0989ZM154.39 86.0989H156.659V88.3679H154.39V86.0989ZM102.203 88.3679H104.472V90.6369H102.203V88.3679ZM106.741 88.3679H109.01V90.6369H106.741V88.3679ZM109.01 88.3679H111.279V90.6369H109.01V88.3679ZM118.086 88.3679H120.355V90.6369H118.086V88.3679ZM120.355 88.3679H122.624V90.6369H120.355V88.3679ZM127.162 88.3679H129.431V90.6369H127.162V88.3679ZM131.7 88.3679H133.969V90.6369H131.7V88.3679ZM133.969 88.3679H136.238V90.6369H133.969V88.3679ZM136.238 88.3679H138.507V90.6369H136.238V88.3679ZM140.776 88.3679H143.045V90.6369H140.776V88.3679ZM143.045 88.3679H145.314V90.6369H143.045V88.3679ZM152.121 88.3679H154.39V90.6369H152.121V88.3679ZM154.39 88.3679H156.659V90.6369H154.39V88.3679ZM99.9341 90.6369H102.203V92.9059H99.9341V90.6369ZM102.203 90.6369H104.472V92.9059H102.203V90.6369ZM104.472 90.6369H106.741V92.9059H104.472V90.6369ZM111.279 90.6369H113.548V92.9059H111.279V90.6369ZM113.548 90.6369H115.817V92.9059H113.548V90.6369ZM118.086 90.6369H120.355V92.9059H118.086V90.6369ZM127.162 90.6369H129.431V92.9059H127.162V90.6369ZM129.431 90.6369H131.7V92.9059H129.431V90.6369ZM133.969 90.6369H136.238V92.9059H133.969V90.6369ZM136.238 90.6369H138.507V92.9059H136.238V90.6369ZM140.776 90.6369H143.045V92.9059H140.776V90.6369ZM147.583 90.6369H149.852V92.9059H147.583V90.6369ZM149.852 90.6369H152.121V92.9059H149.852V90.6369ZM154.39 90.6369H156.659V92.9059H154.39V90.6369ZM106.741 92.9059H109.01V95.1749H106.741V92.9059ZM109.01 92.9059H111.279V95.1749H109.01V92.9059ZM115.817 92.9059H118.086V95.1749H115.817V92.9059ZM118.086 92.9059H120.355V95.1749H118.086V92.9059ZM122.624 92.9059H124.893V95.1749H122.624V92.9059ZM124.893 92.9059H127.162V95.1749H124.893V92.9059ZM127.162 92.9059H129.431V95.1749H127.162V92.9059ZM133.969 92.9059H136.238V95.1749H133.969V92.9059ZM136.238 92.9059H138.507V95.1749H136.238V92.9059ZM138.507 92.9059H140.776V95.1749H138.507V92.9059ZM143.045 92.9059H145.314V95.1749H143.045V92.9059ZM145.314 92.9059H147.583V95.1749H145.314V92.9059ZM147.583 92.9059H149.852V95.1749H147.583V92.9059ZM99.9341 95.1749H102.203V97.4439H99.9341V95.1749ZM102.203 95.1749H104.472V97.4439H102.203V95.1749ZM104.472 95.1749H106.741V97.4439H104.472V95.1749ZM109.01 95.1749H111.279V97.4439H109.01V95.1749ZM113.548 95.1749H115.817V97.4439H113.548V95.1749ZM115.817 95.1749H118.086V97.4439H115.817V95.1749ZM118.086 95.1749H120.355V97.4439H118.086V95.1749ZM127.162 95.1749H129.431V97.4439H127.162V95.1749ZM136.238 95.1749H138.507V97.4439H136.238V95.1749ZM138.507 95.1749H140.776V97.4439H138.507V95.1749ZM140.776 95.1749H143.045V97.4439H140.776V95.1749ZM143.045 95.1749H145.314V97.4439H143.045V95.1749ZM145.314 95.1749H147.583V97.4439H145.314V95.1749ZM152.121 95.1749H154.39V97.4439H152.121V95.1749ZM118.086 97.4439H120.355V99.7128H118.086V97.4439ZM120.355 97.4439H122.624V99.7128H120.355V97.4439ZM122.624 97.4439H124.893V99.7128H122.624V97.4439ZM131.7 97.4439H133.969V99.7128H131.7V97.4439ZM136.238 97.4439H138.507V99.7128H136.238V97.4439ZM145.314 97.4439H147.583V99.7128H145.314V97.4439ZM154.39 97.4439H156.659V99.7128H154.39V97.4439ZM99.9341 99.7128H102.203V101.982H99.9341V99.7128ZM102.203 99.7128H104.472V101.982H102.203V99.7128ZM104.472 99.7128H106.741V101.982H104.472V99.7128ZM106.741 99.7128H109.01V101.982H106.741V99.7128ZM109.01 99.7128H111.279V101.982H109.01V99.7128ZM111.279 99.7128H113.548V101.982H111.279V99.7128ZM113.548 99.7128H115.817V101.982H113.548V99.7128ZM122.624 99.7128H124.893V101.982H122.624V99.7128ZM124.893 99.7128H127.162V101.982H124.893V99.7128ZM129.431 99.7128H131.7V101.982H129.431V99.7128ZM136.238 99.7128H138.507V101.982H136.238V99.7128ZM140.776 99.7128H143.045V101.982H140.776V99.7128ZM145.314 99.7128H147.583V101.982H145.314V99.7128ZM154.39 99.7128H156.659V101.982H154.39V99.7128ZM99.9341 101.982H102.203V104.251H99.9341V101.982ZM113.548 101.982H115.817V104.251H113.548V101.982ZM118.086 101.982H120.355V104.251H118.086V101.982ZM120.355 101.982H122.624V104.251H120.355V101.982ZM122.624 101.982H124.893V104.251H122.624V101.982ZM127.162 101.982H129.431V104.251H127.162V101.982ZM131.7 101.982H133.969V104.251H131.7V101.982ZM133.969 101.982H136.238V104.251H133.969V101.982ZM136.238 101.982H138.507V104.251H136.238V101.982ZM145.314 101.982H147.583V104.251H145.314V101.982ZM152.121 101.982H154.39V104.251H152.121V101.982ZM99.9341 104.251H102.203V106.52H99.9341V104.251ZM104.472 104.251H106.741V106.52H104.472V104.251ZM106.741 104.251H109.01V106.52H106.741V104.251ZM109.01 104.251H111.279V106.52H109.01V104.251ZM113.548 104.251H115.817V106.52H113.548V104.251ZM120.355 104.251H122.624V106.52H120.355V104.251ZM124.893 104.251H127.162V106.52H124.893V104.251ZM127.162 104.251H129.431V106.52H127.162V104.251ZM133.969 104.251H136.238V106.52H133.969V104.251ZM136.238 104.251H138.507V106.52H136.238V104.251ZM138.507 104.251H140.776V106.52H138.507V104.251ZM140.776 104.251H143.045V106.52H140.776V104.251ZM143.045 104.251H145.314V106.52H143.045V104.251ZM145.314 104.251H147.583V106.52H145.314V104.251ZM152.121 104.251H154.39V106.52H152.121V104.251ZM99.9341 106.52H102.203V108.789H99.9341V106.52ZM104.472 106.52H106.741V108.789H104.472V106.52ZM106.741 106.52H109.01V108.789H106.741V106.52ZM109.01 106.52H111.279V108.789H109.01V106.52ZM113.548 106.52H115.817V108.789H113.548V106.52ZM120.355 106.52H122.624V108.789H120.355V106.52ZM124.893 106.52H127.162V108.789H124.893V106.52ZM127.162 106.52H129.431V108.789H127.162V106.52ZM133.969 106.52H136.238V108.789H133.969V106.52ZM138.507 106.52H140.776V108.789H138.507V106.52ZM145.314 106.52H147.583V108.789H145.314V106.52ZM149.852 106.52H152.121V108.789H149.852V106.52ZM152.121 106.52H154.39V108.789H152.121V106.52ZM99.9341 108.789H102.203V111.058H99.9341V108.789ZM104.472 108.789H106.741V111.058H104.472V108.789ZM106.741 108.789H109.01V111.058H106.741V108.789ZM109.01 108.789H111.279V111.058H109.01V108.789ZM113.548 108.789H115.817V111.058H113.548V108.789ZM118.086 108.789H120.355V111.058H118.086V108.789ZM120.355 108.789H122.624V111.058H120.355V108.789ZM122.624 108.789H124.893V111.058H122.624V108.789ZM124.893 108.789H127.162V111.058H124.893V108.789ZM129.431 108.789H131.7V111.058H129.431V108.789ZM133.969 108.789H136.238V111.058H133.969V108.789ZM138.507 108.789H140.776V111.058H138.507V108.789ZM143.045 108.789H145.314V111.058H143.045V108.789ZM145.314 108.789H147.583V111.058H145.314V108.789ZM147.583 108.789H149.852V111.058H147.583V108.789ZM152.121 108.789H154.39V111.058H152.121V108.789ZM154.39 108.789H156.659V111.058H154.39V108.789ZM99.9341 111.058H102.203V113.327H99.9341V111.058ZM113.548 111.058H115.817V113.327H113.548V111.058ZM118.086 111.058H120.355V113.327H118.086V111.058ZM120.355 111.058H122.624V113.327H120.355V111.058ZM124.893 111.058H127.162V113.327H124.893V111.058ZM127.162 111.058H129.431V113.327H127.162V111.058ZM131.7 111.058H133.969V113.327H131.7V111.058ZM136.238 111.058H138.507V113.327H136.238V111.058ZM138.507 111.058H140.776V113.327H138.507V111.058ZM140.776 111.058H143.045V113.327H140.776V111.058ZM143.045 111.058H145.314V113.327H143.045V111.058ZM145.314 111.058H147.583V113.327H145.314V111.058ZM99.9341 113.327H102.203V115.596H99.9341V113.327ZM102.203 113.327H104.472V115.596H102.203V113.327ZM104.472 113.327H106.741V115.596H104.472V113.327ZM106.741 113.327H109.01V115.596H106.741V113.327ZM109.01 113.327H111.279V115.596H109.01V113.327ZM111.279 113.327H113.548V115.596H111.279V113.327ZM113.548 113.327H115.817V115.596H113.548V113.327ZM118.086 113.327H120.355V115.596H118.086V113.327ZM122.624 113.327H124.893V115.596H122.624V113.327ZM124.893 113.327H127.162V115.596H124.893V113.327ZM136.238 113.327H138.507V115.596H136.238V113.327ZM138.507 113.327H140.776V115.596H138.507V113.327ZM140.776 113.327H143.045V115.596H140.776V113.327ZM147.583 113.327H149.852V115.596H147.583V113.327ZM154.39 113.327H156.659V115.596H154.39V113.327Z" fill="white"/>
<defs>
<filter id="filter0_d_1_14059" x="79.0684" y="39.0748" width="107.23" height="106.579" filterUnits="userSpaceOnUse" color-interpolation-filters="sRGB">
<feFlood flood-opacity="0" result="BackgroundImageFix"/>
<feColorMatrix in="SourceAlpha" type="matrix" values="0 0 0 0 0 0 0 0 0 0 0 0 0 0 0 0 0 0 127 0" result="hardAlpha"/>
<feOffset dx="4.63259" dy="5.95619"/>
<feGaussianBlur stdDeviation="2.3163"/>
<feComposite in2="hardAlpha" operator="out"/>
<feColorMatrix type="matrix" values="0 0 0 0 0 0 0 0 0 0 0 0 0 0 0 0 0 0 0.25 0"/>
<feBlend mode="normal" in2="BackgroundImageFix" result="effect1_dropShadow_1_14059"/>
<feBlend mode="normal" in="SourceGraphic" in2="effect1_dropShadow_1_14059" result="shape"/>
</filter>
<filter id="filter1_b_1_14059" x="75.1967" y="31.1488" width="106.199" height="111.743" filterUnits="userSpaceOnUse" color-interpolation-filters="sRGB">
<feFlood flood-opacity="0" result="BackgroundImageFix"/>
<feGaussianBlur in="BackgroundImageFix" stdDeviation="3.62526"/>
<feComposite in2="SourceAlpha" operator="in" result="effect1_backgroundBlur_1_14059"/>
<feBlend mode="normal" in="SourceGraphic" in2="effect1_backgroundBlur_1_14059" result="shape"/>
</filter>
</defs>
</svg>
