<svg width="687" height="209" viewBox="0 0 687 209" fill="none" xmlns="http://www.w3.org/2000/svg">
<g style="mix-blend-mode:overlay" opacity="0.2">
<path d="M0 108.412C0 89.0392 4.19883 71.8088 12.5965 56.7206C20.9941 41.4461 32.6575 29.6176 47.5867 21.2353C62.7025 12.6667 79.7777 8.38235 98.8124 8.38235C122.139 8.38235 142.107 14.5294 158.716 26.8235C175.324 39.1176 186.428 55.8824 192.026 77.1176H139.401C135.482 68.9216 129.884 62.6814 122.606 58.3971C115.514 54.1127 107.397 51.9706 98.2525 51.9706C83.51 51.9706 71.5666 57.0931 62.4225 67.3382C53.2784 77.5833 48.7064 91.2745 48.7064 108.412C48.7064 125.549 53.2784 139.24 62.4225 149.485C71.5666 159.73 83.51 164.853 98.2525 164.853C107.397 164.853 115.514 162.711 122.606 158.426C129.884 154.142 135.482 147.902 139.401 139.706H192.026C186.428 160.941 175.324 177.706 158.716 190C142.107 202.108 122.139 208.162 98.8124 208.162C79.7777 208.162 62.7025 203.971 47.5867 195.588C32.6575 187.02 20.9941 175.191 12.5965 160.103C4.19883 145.015 0 127.784 0 108.412Z" fill="white"/>
<path d="M317.352 49.1765C335.267 49.1765 349.637 55.1373 360.46 67.0588C371.284 78.7941 376.696 95 376.696 115.676V206.765H329.109V122.103C329.109 111.672 326.403 103.569 320.991 97.7941C315.58 92.0196 308.302 89.1323 299.158 89.1323C290.013 89.1323 282.735 92.0196 277.324 97.7941C271.912 103.569 269.206 111.672 269.206 122.103V206.765H221.339V0H269.206V71.8088C274.058 64.9167 280.683 59.4216 289.08 55.3235C297.478 51.2255 306.902 49.1765 317.352 49.1765Z" fill="white"/>
<path d="M400.441 128.529C400.441 112.51 403.427 98.4461 409.399 86.3382C415.557 74.2304 423.861 64.9167 434.312 58.3971C444.762 51.8774 456.425 48.6176 469.302 48.6176C480.312 48.6176 489.923 50.8529 498.134 55.3235C506.531 59.7941 512.97 65.6618 517.448 72.9265V50.8529H565.315V206.765H517.448V184.691C512.783 191.956 506.252 197.824 497.854 202.294C489.643 206.765 480.032 209 469.022 209C456.332 209 444.762 205.74 434.312 199.221C423.861 192.515 415.557 183.108 409.399 171C403.427 158.706 400.441 144.549 400.441 128.529ZM517.448 128.809C517.448 116.887 514.089 107.48 507.371 100.588C500.84 93.6961 492.815 90.25 483.298 90.25C473.781 90.25 465.663 93.6961 458.945 100.588C452.413 107.294 449.147 116.608 449.147 128.529C449.147 140.451 452.413 149.951 458.945 157.029C465.663 163.922 473.781 167.368 483.298 167.368C492.815 167.368 500.84 163.922 507.371 157.029C514.089 150.137 517.448 140.73 517.448 128.809Z" fill="white"/>
<path d="M687 166.25V206.765H662.647C645.292 206.765 631.762 202.574 622.058 194.191C612.354 185.623 607.502 171.745 607.502 152.559V90.5294H588.468V50.8529H607.502V12.8529H655.369V50.8529H686.72V90.5294H655.369V153.118C655.369 157.775 656.489 161.127 658.728 163.176C660.967 165.225 664.7 166.25 669.925 166.25H687Z" fill="white"/>
</g>
</svg>
