<svg width="438" height="438" viewBox="0 0 438 438" fill="none" xmlns="http://www.w3.org/2000/svg">
<style>
  @keyframes dash {
    to {
      stroke-dashoffset: 0;
    }
  }
   path {
    stroke-dasharray: 1500;
    stroke-dashoffset: 1500;
    animation: dash 8s cubic-bezier(0.4, 0.0, 0.2, 1) infinite, colorChange 8s ease-in-out alternate infinite;
  }
</style>
<path d="M337.075 307.147L344.193 364.817C346.018 379.965 329.775 390.55 316.818 382.702L240.35 337.26C231.955 337.26 223.743 336.712 215.713 335.617C229.546 319.582 237.185 299.125 237.248 277.947C237.248 226.117 192.353 184.143 136.873 184.143C115.703 184.143 96.1751 190.165 79.9326 200.75C79.3851 196.188 79.2026 191.625 79.2026 186.88C79.2026 103.842 151.29 36.5 240.35 36.5C329.41 36.5 401.498 103.842 401.498 186.88C401.498 236.155 376.13 279.772 337.075 307.147Z" fill="white" stroke="white" stroke-width="27.375" stroke-linecap="round" stroke-linejoin="round"/>
<path d="M237.25 277.948C237.25 299.665 229.22 319.74 215.715 335.618C197.647 357.518 168.995 371.57 136.875 371.57L89.2425 399.858C81.2125 404.785 70.9925 398.033 72.0875 388.725L76.65 352.773C52.195 335.8 36.5 308.608 36.5 277.948C36.5 245.828 53.655 217.54 79.935 200.75C96.1775 190.165 115.705 184.143 136.875 184.143C192.355 184.143 237.25 226.118 237.25 277.948Z" fill="#F8F8F8"/>
</svg>
