<svg width="655" height="173" viewBox="0 0 655 173" fill="none" xmlns="http://www.w3.org/2000/svg">
<style>
  @keyframes dash {
    to {
      stroke-dashoffset: 0;
    }
  }
   path {
    stroke-dasharray: 1500;
    stroke-dashoffset: 1500;
    animation: dash 8s cubic-bezier(0.4, 0.0, 0.2, 1) infinite, colorChange 8s ease-in-out alternate infinite;
  }
</style>
<g style="mix-blend-mode:overlay" opacity="0.2">
<path d="M56.3519 21.1706C72.2075 21.1706 86.0634 24.307 97.9194 30.5797C109.775 36.8525 118.917 45.6914 125.345 57.0964C131.916 68.3589 135.202 81.4034 135.202 96.2299C135.202 110.914 131.916 123.958 125.345 135.363C118.917 146.768 109.704 155.607 97.7051 161.88C85.8491 168.153 72.0647 171.289 56.3519 171.289H0V21.1706H56.3519ZM53.9949 139.64C67.8508 139.64 78.6355 135.862 86.3491 128.307C94.0626 120.751 97.9194 110.059 97.9194 96.2299C97.9194 82.4013 94.0626 71.6378 86.3491 63.9394C78.6355 56.241 67.8508 52.3918 53.9949 52.3918H36.6394V139.64H53.9949Z" fill="white"/>
<path d="M148.392 111.413C148.392 99.1525 150.678 88.389 155.249 79.1224C159.963 69.8558 166.319 62.7276 174.318 57.738C182.318 52.7482 191.245 50.2534 201.102 50.2534C209.529 50.2534 216.886 51.9642 223.171 55.3857C229.599 58.8072 234.527 63.2979 237.955 68.8578V51.9642H274.595V171.289H237.955V154.396C234.384 159.956 229.385 164.446 222.957 167.868C216.672 171.289 209.315 173 200.887 173C191.174 173 182.318 170.505 174.318 165.515C166.319 160.383 159.963 153.184 155.249 143.917C150.678 134.508 148.392 123.673 148.392 111.413ZM237.955 111.627C237.955 102.503 235.384 95.3033 230.242 90.0284C225.242 84.7536 219.1 82.1162 211.815 82.1162C204.53 82.1162 198.316 84.7536 193.174 90.0284C188.174 95.1607 185.675 102.289 185.675 111.413C185.675 120.537 188.174 127.808 193.174 133.225C198.316 138.5 204.53 141.137 211.815 141.137C219.1 141.137 225.242 138.5 230.242 133.225C235.384 127.95 237.955 120.751 237.955 111.627Z" fill="white"/>
<path d="M319.529 39.5612C313.101 39.5612 307.815 37.7079 303.673 34.0012C299.673 30.152 297.674 25.4475 297.674 19.8875C297.674 14.185 299.673 9.48043 303.673 5.7738C307.815 1.9246 313.101 0 319.529 0C325.814 0 330.956 1.9246 334.956 5.7738C339.098 9.48043 341.169 14.185 341.169 19.8875C341.169 25.4475 339.098 30.152 334.956 34.0012C330.956 37.7079 325.814 39.5612 319.529 39.5612ZM337.741 51.9642V171.289H301.102V51.9642H337.741Z" fill="white"/>
<path d="M400.933 13.0445V171.289H364.293V13.0445H400.933Z" fill="white"/>
<path d="M509.53 21.1706V171.289H472.891V21.1706H509.53Z" fill="white"/>
<path d="M608.933 50.6811C622.932 50.6811 634.073 55.2431 642.358 64.3671C650.786 73.3486 655 85.7515 655 101.576V171.289H618.575V106.494C618.575 98.5109 616.504 92.3094 612.361 87.89C608.219 83.4705 602.648 81.2608 595.648 81.2608C588.649 81.2608 583.078 83.4705 578.936 87.89C574.793 92.3094 572.722 98.5109 572.722 106.494V171.289H536.083V51.9642H572.722V67.7886C576.436 62.5138 581.435 58.3795 587.721 55.3857C594.006 52.2493 601.076 50.6811 608.933 50.6811Z" fill="white"/>
</g>
</svg>
