<svg width="401" height="401" viewBox="0 0 401 401" fill="none" xmlns="http://www.w3.org/2000/svg">
<style>
   path {
    stroke-dasharray: 1500;
    stroke-dashoffset: 1500;
    animation: dash 3s cubic-bezier(0.4, 0.0, 0.2, 1) infinite, colorChange 8s ease-in-out alternate infinite;
  }

  @keyframes dash {
    to {
      stroke-dashoffset: 0;
    }
  }
</style><path d="M188.618 142.868L197.679 109.051C202.209 92.1428 196.021 81.4234 179.112 76.8928L145.296 67.8317C128.387 63.3012 117.668 69.49 113.137 86.3983L104.076 120.215C99.5458 137.123 105.735 147.843 122.643 152.373L156.459 161.434C173.368 165.965 184.087 159.776 188.618 142.868Z" fill="white" fill-opacity="0.59"/>
<path d="M323.884 179.112L332.945 145.296C337.476 128.387 331.287 117.668 314.378 113.137L280.562 104.076C263.654 99.5456 252.934 105.734 248.404 122.643L239.343 156.459C234.812 173.368 241.001 184.087 257.909 188.618L291.726 197.679C308.634 202.209 319.353 196.02 323.884 179.112Z" fill="white" fill-opacity="0.59"/>
<path d="M152.373 278.134L161.434 244.317C165.965 227.409 159.776 216.69 142.868 212.159L109.051 203.098C92.143 198.567 81.4236 204.756 76.893 221.664L67.8319 255.481C63.3014 272.389 69.4902 283.109 86.3985 287.639L120.215 296.7C137.123 301.231 147.843 295.042 152.373 278.134Z" fill="white" fill-opacity="0.59"/>
<path d="M287.639 314.378L296.701 280.562C301.231 263.653 295.042 252.934 278.134 248.403L244.317 239.342C227.409 234.812 216.69 241.001 212.159 257.909L203.098 291.725C198.568 308.634 204.756 319.353 221.665 323.884L255.481 332.945C272.389 337.475 283.109 331.286 287.639 314.378Z" fill="white" fill-opacity="0.59"/>
<path d="M56.2238 62.0872C67.5049 19.9856 110.597 -4.89358 152.699 6.38751L194.969 17.7139M296.419 44.8972L338.69 56.2236C380.791 67.5047 405.67 110.597 394.389 152.698L383.063 194.969M344.553 338.689C333.272 380.791 290.18 405.67 248.078 394.389L222.716 387.593M104.358 355.879L62.0874 344.553C19.9858 333.272 -4.8934 290.18 6.38769 248.078L17.7141 205.807M197.679 109.051L188.618 142.868C184.087 159.776 173.368 165.965 156.459 161.434L122.643 152.373C105.735 147.843 99.5458 137.123 104.076 120.215L113.137 86.3983C117.668 69.49 128.387 63.3012 145.296 67.8317L179.112 76.8928C196.021 81.4234 202.209 92.1428 197.679 109.051ZM332.945 145.296L323.884 179.112C319.353 196.02 308.634 202.209 291.726 197.679L257.909 188.618C241.001 184.087 234.812 173.368 239.343 156.459L248.404 122.643C252.934 105.734 263.654 99.5456 280.562 104.076L314.378 113.137C331.287 117.668 337.476 128.387 332.945 145.296ZM161.434 244.317L152.373 278.134C147.843 295.042 137.123 301.231 120.215 296.7L86.3985 287.639C69.4902 283.109 63.3014 272.389 67.8319 255.481L76.893 221.664C81.4236 204.756 92.143 198.567 109.051 203.098L142.868 212.159C159.776 216.69 165.965 227.409 161.434 244.317ZM296.701 280.562L287.639 314.378C283.109 331.286 272.389 337.475 255.481 332.945L221.665 323.884C204.756 319.353 198.568 308.634 203.098 291.725L212.159 257.909C216.69 241.001 227.409 234.812 244.317 239.342L278.134 248.403C295.042 252.934 301.231 263.653 296.701 280.562Z" stroke="white" stroke-width="7.15388" stroke-linecap="round" stroke-linejoin="round"/>
</svg>
