<svg width="1106" height="139" viewBox="0 0 1106 139" fill="none" xmlns="http://www.w3.org/2000/svg">
<g style="mix-blend-mode:lighten" opacity="0.2">
<path d="M29.382 40.5488V64.9469H68.7299V87.6267H29.382V114.087H73.8847V137.625H0V17.0099H73.8847V40.5488H29.382Z" fill="white"/>
<path d="M149.662 137.625L131.277 110.994L115.813 137.625H84.025L115.641 88.6576L83.1659 41.7515H116.156L134.542 68.2114L150.006 41.7515H181.793L149.662 90.0321L182.652 137.625H149.662Z" fill="white"/>
<path d="M247.412 112.712V137.625H232.463C221.81 137.625 213.505 135.048 207.548 129.894C201.592 124.625 198.613 116.091 198.613 104.293V66.1496H186.929V41.7515H198.613V18.3844H227.995V41.7515H247.24V66.1496H227.995V104.637C227.995 107.5 228.683 109.562 230.057 110.822C231.432 112.082 233.723 112.712 236.93 112.712H247.412Z" fill="white"/>
<path d="M354.158 88.1422C354.158 90.8912 353.986 93.7549 353.642 96.733H287.146C287.604 102.689 289.494 107.271 292.816 110.478C296.253 113.571 300.434 115.117 305.36 115.117C312.691 115.117 317.788 112.025 320.652 105.839H351.924C350.32 112.139 347.399 117.809 343.161 122.849C339.037 127.889 333.825 131.841 327.525 134.705C321.225 137.568 314.18 139 306.39 139C296.997 139 288.635 136.995 281.304 132.986C273.973 128.977 268.245 123.25 264.122 115.805C259.998 108.359 257.936 99.6539 257.936 89.6885C257.936 79.7231 259.94 71.0177 263.95 63.5723C268.074 56.1269 273.801 50.3997 281.132 46.3906C288.463 42.3815 296.883 40.377 306.39 40.377C315.669 40.377 323.917 42.3243 331.133 46.2188C338.35 50.1133 343.963 55.6687 347.972 62.885C352.096 70.1014 354.158 78.5204 354.158 88.1422ZM324.088 80.4104C324.088 75.3704 322.37 71.3614 318.934 68.3832C315.497 65.405 311.202 63.9159 306.047 63.9159C301.121 63.9159 296.94 65.3478 293.504 68.2114C290.182 71.075 288.12 75.1413 287.318 80.4104H324.088Z" fill="white"/>
<path d="M399.04 57.7305C402.477 52.4615 406.772 48.3379 411.927 45.3597C417.082 42.267 422.809 40.7206 429.11 40.7206V71.8195H421.034C413.703 71.8195 408.204 73.4232 404.539 76.6304C400.873 79.7231 399.04 85.2213 399.04 93.1249V137.625H369.658V41.7515H399.04V57.7305Z" fill="white"/>
<path d="M501.574 40.7206C512.8 40.7206 521.735 44.3861 528.379 51.7169C535.137 58.9333 538.516 68.8986 538.516 81.6131V137.625H509.306V85.5649C509.306 79.1504 507.645 74.1677 504.323 70.6168C501.001 67.0659 496.534 65.2905 490.921 65.2905C485.308 65.2905 480.841 67.0659 477.519 70.6168C474.197 74.1677 472.536 79.1504 472.536 85.5649V137.625H443.154V41.7515H472.536V54.466C475.514 50.2279 479.523 46.9061 484.563 44.5006C489.604 41.9806 495.274 40.7206 501.574 40.7206Z" fill="white"/>
<path d="M553.092 89.5167C553.092 79.6658 554.925 71.0177 558.59 63.5723C562.37 56.1269 567.468 50.3997 573.883 46.3906C580.298 42.3815 587.457 40.377 595.361 40.377C602.119 40.377 608.019 41.7515 613.059 44.5006C618.214 47.2497 622.166 50.8579 624.915 55.3251V41.7515H654.297V137.625H624.915V124.052C622.051 128.519 618.042 132.127 612.887 134.876C607.847 137.625 601.947 139 595.189 139C587.4 139 580.298 136.995 573.883 132.986C567.468 128.863 562.37 123.078 558.59 115.633C554.925 108.073 553.092 99.3675 553.092 89.5167ZM624.915 89.6885C624.915 82.3576 622.853 76.5731 618.729 72.335C614.72 68.0968 609.794 65.9778 603.952 65.9778C598.11 65.9778 593.127 68.0968 589.003 72.335C584.994 76.4586 582.989 82.1858 582.989 89.5167C582.989 96.8476 584.994 102.689 589.003 107.042C593.127 111.28 598.11 113.399 603.952 113.399C609.794 113.399 614.72 111.28 618.729 107.042C622.853 102.804 624.915 97.0194 624.915 89.6885Z" fill="white"/>
<path d="M704.935 10.4808V137.625H675.553V10.4808H704.935Z" fill="white"/>
<path d="M792.022 114.946H830.511V137.625H762.64V17.0099H792.022V114.946Z" fill="white"/>
<path d="M859.303 31.7862C854.148 31.7862 849.909 30.2971 846.587 27.3189C843.38 24.2262 841.776 20.4462 841.776 15.979C841.776 11.3972 843.38 7.61723 846.587 4.63906C849.909 1.54635 854.148 0 859.303 0C864.343 0 868.467 1.54635 871.674 4.63906C874.996 7.61723 876.657 11.3972 876.657 15.979C876.657 20.4462 874.996 24.2262 871.674 27.3189C868.467 30.2971 864.343 31.7862 859.303 31.7862ZM873.908 41.7515V137.625H844.526V41.7515H873.908Z" fill="white"/>
<path d="M953.621 40.7206C964.847 40.7206 973.782 44.3861 980.426 51.7169C987.184 58.9333 990.563 68.8986 990.563 81.6131V137.625H961.353V85.5649C961.353 79.1504 959.692 74.1677 956.37 70.6168C953.048 67.0659 948.581 65.2905 942.968 65.2905C937.355 65.2905 932.887 67.0659 929.565 70.6168C926.244 74.1677 924.583 79.1504 924.583 85.5649V137.625H895.2V41.7515H924.583V54.466C927.561 50.2279 931.57 46.9061 936.61 44.5006C941.65 41.9806 947.321 40.7206 953.621 40.7206Z" fill="white"/>
<path d="M1069.57 137.625L1040.36 97.4203V137.625H1010.98V10.4808H1040.36V80.754L1069.4 41.7515H1105.66L1065.79 89.8603L1106 137.625H1069.57Z" fill="white"/>
</g>
</svg>
