<svg width="41" height="42" viewBox="0 0 41 42" fill="none" xmlns="http://www.w3.org/2000/svg">
<style>
 .path {
      stroke-dasharray: 1000;
      stroke-dashoffset: 1000;
      animation: writeAnimation 2s linear forwards;
    }
    @keyframes writeAnimation {
      to {
        stroke-dashoffset: 0;
      }
    }
      @keyframes dash {
    to {
      stroke-dashoffset: 0;
    }
  }
  @keyframes fadeInLeft {
   0% {
      opacity: 0;
      transform: translateY(-20px);
   }
   100% {
      opacity: 1;
      transform: translateY(0);
   }
} 
.show-hide{
    -webkit-animation: fadeInLeft 3s ease-in-out infinite;
    animation: fadeInLeft 3s ease-in-out;
    -webkit-transition: -webkit-transform 300ms cubic-bezier(0,0,0.3,1);
    transition: -webkit-transform 300ms cubic-bezier(0,0,0.3,1);
    -o-transition: transform 300ms cubic-bezier(0,0,0.3,1);
    transition: transform 300ms cubic-bezier(0,0,0.3,1);
    transition: transform 300ms cubic-bezier(0,0,0.3,1), 
    -webkit-transform 300ms cubic-bezier(0,0,0.3,1);
}  
  </style>
<path class="show-hide" d="M20.4877 7.17073C22.4679 7.17073 24.0731 5.56551 24.0731 3.58537C24.0731 1.60522 22.4679 0 20.4877 0C18.5076 0 16.9023 1.60522 16.9023 3.58537C16.9023 5.56551 18.5076 7.17073 20.4877 7.17073Z" fill="#5DB1FF"/>
<path d="M6.65861 14.3414C8.63875 14.3414 10.244 12.7362 10.244 10.756C10.244 8.77588 8.63875 7.17065 6.65861 7.17065C4.67847 7.17065 3.07324 8.77588 3.07324 10.756C3.07324 12.7362 4.67847 14.3414 6.65861 14.3414Z" fill="#1F1F1F"/>
<path d="M3.58537 29.7074C5.56551 29.7074 7.17073 28.1021 7.17073 26.122C7.17073 24.1418 5.56551 22.5366 3.58537 22.5366C1.60522 22.5366 0 24.1418 0 26.122C0 28.1021 1.60522 29.7074 3.58537 29.7074Z" fill="#1F1F1F"/>
<path d="M12.8051 42.0001C14.7852 42.0001 16.3905 40.3949 16.3905 38.4147C16.3905 36.4346 14.7852 34.8293 12.8051 34.8293C10.8249 34.8293 9.21973 36.4346 9.21973 38.4147C9.21973 40.3949 10.8249 42.0001 12.8051 42.0001Z" fill="#1F1F1F"/>
<path d="M28.1708 42.0001C30.151 42.0001 31.7562 40.3949 31.7562 38.4147C31.7562 36.4346 30.151 34.8293 28.1708 34.8293C26.1907 34.8293 24.5854 36.4346 24.5854 38.4147C24.5854 40.3949 26.1907 42.0001 28.1708 42.0001Z" fill="#1F1F1F"/>
<path d="M37.3905 29.7074C39.3707 29.7074 40.9759 28.1021 40.9759 26.122C40.9759 24.1418 39.3707 22.5366 37.3905 22.5366C35.4104 22.5366 33.8052 24.1418 33.8052 26.122C33.8052 28.1021 35.4104 29.7074 37.3905 29.7074Z" fill="#1F1F1F"/>
<path d="M34.3173 14.3414C36.2974 14.3414 37.9027 12.7362 37.9027 10.756C37.9027 8.77588 36.2974 7.17065 34.3173 7.17065C32.3372 7.17065 30.7319 8.77588 30.7319 10.756C30.7319 12.7362 32.3372 14.3414 34.3173 14.3414Z" fill="#1F1F1F"/>
<path class="path" d="M20.488 32.7805C18.2594 32.7805 16.0808 32.1196 14.2277 30.8814C12.3746 29.6433 10.9303 27.8834 10.0775 25.8244C9.22461 23.7654 9.00146 21.4997 9.43625 19.3139C9.87104 17.128 10.9442 15.1202 12.5201 13.5443C14.096 11.9684 16.1039 10.8952 18.2897 10.4604C20.4755 10.0256 22.7412 10.2488 24.8002 11.1016C26.8592 11.9545 28.6191 13.3988 29.8573 15.2519C31.0954 17.1049 31.7563 19.2835 31.7563 21.5122C31.7529 24.4997 30.5646 27.3638 28.4521 29.4763C26.3397 31.5888 23.4755 32.7771 20.488 32.7805ZM20.488 14.5366C19.1084 14.5366 17.7597 14.9457 16.6126 15.7122C15.4654 16.4787 14.5714 17.5681 14.0434 18.8427C13.5154 20.1174 13.3773 21.5199 13.6464 22.8731C13.9156 24.2262 14.58 25.4691 15.5555 26.4447C16.5311 27.4202 17.774 28.0846 19.1272 28.3538C20.4803 28.6229 21.8828 28.4848 23.1575 27.9568C24.4321 27.4288 25.5215 26.5348 26.288 25.3876C27.0545 24.2405 27.4636 22.8918 27.4636 21.5122C27.4614 19.6628 26.7257 17.8899 25.418 16.5822C24.1103 15.2745 22.3374 14.5389 20.488 14.5366Z" fill="#1F1F1F"/>
</svg>
