<svg width="381" height="382" viewBox="0 0 381 382" fill="none" xmlns="http://www.w3.org/2000/svg">
<path fill-rule="evenodd" clip-rule="evenodd" d="M302.208 257.437C306.486 259.873 307.976 265.355 305.237 269.446C265.035 329.484 184.662 349.127 120.882 312.804C54.1203 274.784 30.8209 189.842 68.841 123.081C106.861 56.3194 191.803 33.02 258.565 71.0402C262.068 73.0352 265.451 75.1593 268.712 77.4033C272.31 79.879 273.258 84.7119 271.097 88.5071V88.5071C268.426 93.1966 262.199 94.3596 257.725 91.3417C255.168 89.6172 252.527 87.9764 249.803 86.4251C191.539 53.244 117.407 73.578 84.226 131.842C51.0448 190.107 71.3788 264.238 129.643 297.419C184.973 328.929 254.611 312.179 289.902 260.516C292.641 256.505 297.988 255.034 302.208 257.437V257.437Z" fill="url(#paint0_linear_50_5295)"/>
<circle cx="12.6464" cy="12.6464" r="12.6464" transform="matrix(0.49487 -0.868967 -0.868967 -0.49487 273.066 105.494)" fill="white"/>
<path d="M235.727 149.275V217.244C235.736 221.154 234.402 224.955 231.935 228.042C229.468 231.129 226.011 233.325 222.114 234.281C218.217 235.236 214.103 234.896 210.427 233.315C206.751 231.734 203.724 229.002 201.828 225.555C199.931 222.107 199.275 218.142 199.962 214.289C200.649 210.437 202.641 206.918 205.62 204.294C208.599 201.669 212.395 200.09 216.404 199.806C220.412 199.522 224.403 200.55 227.742 202.727V173.646L171.85 187.24V232.779C171.86 236.69 170.525 240.49 168.059 243.578C165.592 246.665 162.135 248.861 158.238 249.816C154.34 250.772 150.227 250.432 146.551 248.851C142.875 247.27 139.848 244.538 137.952 241.091C136.055 237.643 135.398 233.678 136.086 229.825C136.773 225.972 138.764 222.454 141.744 219.83C144.723 217.205 148.519 215.625 152.528 215.341C156.536 215.058 160.527 216.086 163.866 218.263V164.81C163.863 163.938 164.161 163.091 164.713 162.404C165.266 161.717 166.039 161.231 166.91 161.024L230.786 145.488C231.372 145.353 231.981 145.348 232.569 145.474C233.156 145.6 233.707 145.854 234.18 146.216C234.665 146.573 235.058 147.035 235.327 147.567C235.595 148.098 235.732 148.683 235.727 149.275V149.275Z" fill="white"/>
<defs>
<linearGradient id="paint0_linear_50_5295" x1="124.181" y1="314.683" x2="327.712" y2="-42.7075" gradientUnits="userSpaceOnUse">
<stop stop-color="#B839E4"/>
<stop offset="1" stop-color="#651EFD"/>
</linearGradient>
</defs>
</svg>
