<svg width="235" height="352" viewBox="0 0 235 352" fill="none" xmlns="http://www.w3.org/2000/svg">
<path d="M47.3107 280.339C57.4713 284.393 67.2157 283.935 74.4004 279.066C81.585 274.197 85.6213 265.316 85.6213 254.376C85.6213 243.437 81.585 231.335 74.4004 220.734C67.2157 210.132 57.4713 201.899 47.3107 197.845C37.1501 193.791 27.4056 194.249 20.2209 199.118C13.0363 203.987 9 212.868 9 223.808C9 234.747 13.0363 246.849 20.2209 257.45C27.4056 268.052 37.1501 276.285 47.3107 280.339Z" fill="white" fill-opacity="0.93" stroke="white" stroke-opacity="0.93" stroke-width="18.0718" stroke-linecap="round" stroke-linejoin="round"/>
<path d="M226.006 282.976V121.902C226.006 87.5794 206.152 74.8411 185.738 72.7183L109.117 64.73C95.1347 63.3668 85.627 71.3154 85.627 88.4766V254.368" stroke="white" stroke-opacity="0.93" stroke-width="18.0718" stroke-linecap="round" stroke-linejoin="round"/>
<path d="M187.696 308.94C197.856 312.993 207.601 312.535 214.785 307.666C221.97 302.798 226.006 293.916 226.006 282.977C226.006 272.038 221.97 259.936 214.785 249.334C207.601 238.733 197.856 230.499 187.696 226.446C177.535 222.392 167.79 222.85 160.606 227.719C153.421 232.588 149.385 241.469 149.385 252.408C149.385 263.348 153.421 275.449 160.606 286.051C167.79 296.653 177.535 304.886 187.696 308.94V308.94ZM85.627 136.649L226.006 151.408Z" fill="white" fill-opacity="0.93"/>
<path d="M85.627 136.649L226.006 151.408M187.696 308.94C197.856 312.993 207.601 312.535 214.785 307.666C221.97 302.798 226.006 293.916 226.006 282.977C226.006 272.038 221.97 259.936 214.785 249.334C207.601 238.733 197.856 230.499 187.696 226.446C177.535 222.392 167.79 222.85 160.606 227.719C153.421 232.588 149.385 241.469 149.385 252.408C149.385 263.348 153.421 275.449 160.606 286.051C167.79 296.653 177.535 304.886 187.696 308.94V308.94Z" stroke="white" stroke-opacity="0.93" stroke-width="18.0718" stroke-linecap="round" stroke-linejoin="round"/>
</svg>
