<svg width="1285" height="223" viewBox="0 0 1285 223" fill="none" xmlns="http://www.w3.org/2000/svg">
<style>
   path {
    stroke-dasharray: 1500;
    stroke-dashoffset: 1500;
    animation: dash 8s cubic-bezier(0.4, 0.0, 0.2, 1) infinite, colorChange 8s ease-in-out alternate infinite;
  }

  @keyframes dash {
    to {
      stroke-dashoffset: 0;
    }
  }
</style><g style="mix-blend-mode:screen" opacity="0.2">
<path d="M56.7659 167.457C46.1309 167.457 36.6009 165.73 28.1758 162.276C19.7507 158.822 12.983 153.71 7.87264 146.94C2.90045 140.169 0.276233 132.018 0 122.484H37.7058C38.2583 127.873 40.1229 132.018 43.2995 134.919C46.4762 137.682 50.6197 139.064 55.73 139.064C60.9784 139.064 65.1219 137.89 68.1605 135.541C71.1991 133.054 72.7184 129.669 72.7184 125.386C72.7184 121.793 71.4753 118.823 68.9892 116.474C66.6412 114.125 63.6717 112.191 60.0807 110.671C56.6278 109.151 51.6556 107.424 45.1641 105.49C35.7722 102.588 28.1067 99.6868 22.1677 96.7853C16.2287 93.8838 11.1184 89.6007 6.83677 83.9359C2.55516 78.2711 0.41435 70.8792 0.41435 61.7602C0.41435 48.22 5.31749 37.6503 15.1238 30.0511C24.93 22.3138 37.7058 18.4452 53.4511 18.4452C69.4726 18.4452 82.3865 22.3138 92.1928 30.0511C101.999 37.6503 107.247 48.289 107.938 61.9675H69.6107C69.3345 57.2698 67.608 53.6084 64.4314 50.9833C61.2547 48.22 57.1802 46.8383 52.208 46.8383C47.9264 46.8383 44.4735 48.0127 41.8493 50.3615C39.2251 52.5722 37.913 55.8191 37.913 60.1022C37.913 64.7999 40.1229 68.4613 44.5426 71.0864C48.9623 73.7116 55.8681 76.544 65.2601 79.5836C74.652 82.7615 82.2484 85.8011 88.0493 88.7026C93.9883 91.6041 99.0986 95.8182 103.38 101.345C107.662 106.871 109.803 113.987 109.803 122.691C109.803 130.981 107.662 138.511 103.38 145.282C99.2367 152.052 93.1596 157.44 85.1488 161.447C77.1381 165.454 67.6771 167.457 56.7659 167.457Z" fill="white"/>
<path d="M196.036 135.955V166.007H178.012C165.167 166.007 155.153 162.898 147.971 156.68C140.789 150.325 137.198 140.031 137.198 125.8V79.7909H123.11V50.3615H137.198V22.1757H172.625V50.3615H195.829V79.7909H172.625V126.215C172.625 129.669 173.454 132.156 175.111 133.676C176.769 135.195 179.531 135.955 183.398 135.955H196.036Z" fill="white"/>
<path d="M251.196 69.6357C255.34 63.2801 260.519 58.3061 266.734 54.7138C272.95 50.9833 279.855 49.118 287.452 49.118V86.6301H277.715C268.875 86.6301 262.246 88.5644 257.826 92.4331C253.406 96.1636 251.196 102.796 251.196 112.329V166.007H215.769V50.3615H251.196V69.6357Z" fill="white"/>
<path d="M357.007 167.665C345.682 167.665 335.461 165.247 326.346 160.411C317.368 155.575 310.255 148.667 305.007 139.686C299.896 130.705 297.341 120.204 297.341 108.184C297.341 96.3017 299.965 85.8702 305.214 76.8894C310.462 67.7705 317.644 60.7931 326.76 55.9573C335.876 51.1214 346.096 48.7035 357.422 48.7035C368.747 48.7035 378.968 51.1214 388.084 55.9573C397.199 60.7931 404.381 67.7705 409.63 76.8894C414.878 85.8702 417.503 96.3017 417.503 108.184C417.503 120.066 414.809 130.567 409.423 139.686C404.174 148.667 396.923 155.575 387.669 160.411C378.554 165.247 368.333 167.665 357.007 167.665ZM357.007 136.992C363.775 136.992 369.507 134.505 374.203 129.531C379.037 124.557 381.454 117.441 381.454 108.184C381.454 98.9269 379.106 91.8113 374.41 86.8374C369.852 81.8634 364.19 79.3764 357.422 79.3764C350.516 79.3764 344.784 81.8634 340.226 86.8374C335.668 91.6732 333.39 98.7887 333.39 108.184C333.39 117.441 335.599 124.557 340.019 129.531C344.577 134.505 350.24 136.992 357.007 136.992Z" fill="white"/>
<path d="M471.724 66.7342C475.039 61.3457 479.804 56.9935 486.019 53.6775C492.234 50.3615 499.347 48.7035 507.358 48.7035C516.888 48.7035 525.52 51.1214 533.255 55.9573C540.99 60.7931 547.067 67.7014 551.486 76.6822C556.044 85.663 558.323 96.0945 558.323 107.977C558.323 119.859 556.044 130.36 551.486 139.479C547.067 148.459 540.99 155.437 533.255 160.411C525.52 165.247 516.888 167.665 507.358 167.665C499.209 167.665 492.096 166.076 486.019 162.898C479.942 159.582 475.177 155.23 471.724 149.841V166.007H436.297V12.6422H471.724V66.7342ZM522.275 107.977C522.275 99.1341 519.789 92.2258 514.816 87.2519C509.982 82.1397 503.974 79.5836 496.792 79.5836C489.748 79.5836 483.74 82.1397 478.768 87.2519C473.934 92.364 471.517 99.3414 471.517 108.184C471.517 117.027 473.934 124.004 478.768 129.116C483.74 134.228 489.748 136.784 496.792 136.784C503.836 136.784 509.844 134.228 514.816 129.116C519.789 123.866 522.275 116.819 522.275 107.977Z" fill="white"/>
<path d="M685.883 106.319C685.883 109.635 685.676 113.089 685.261 116.681H605.085C605.637 123.866 607.916 129.393 611.922 133.261C616.065 136.992 621.106 138.857 627.045 138.857C635.885 138.857 642.031 135.126 645.484 127.665H683.19C681.256 135.265 677.734 142.104 672.624 148.183C667.652 154.262 661.367 159.029 653.771 162.483C646.174 165.937 637.68 167.665 628.288 167.665C616.963 167.665 606.88 165.247 598.041 160.411C589.201 155.575 582.296 148.667 577.323 139.686C572.351 130.705 569.865 120.204 569.865 108.184C569.865 96.1636 572.282 85.663 577.116 76.6822C582.088 67.7014 588.994 60.7931 597.834 55.9573C606.673 51.1214 616.825 48.7035 628.288 48.7035C639.476 48.7035 649.42 51.0524 658.122 55.75C666.823 60.4477 673.591 67.1487 678.425 75.8532C683.397 84.5576 685.883 94.7128 685.883 106.319ZM649.627 96.9926C649.627 90.9133 647.556 86.0775 643.412 82.4851C639.269 78.8928 634.089 77.0967 627.874 77.0967C621.935 77.0967 616.894 78.8237 612.75 82.2779C608.745 85.732 606.259 90.6369 605.292 96.9926H649.627Z" fill="white"/>
<path d="M739.999 12.6422V166.007H704.572V12.6422H739.999Z" fill="white"/>
<path d="M783.49 38.3411C777.275 38.3411 772.164 36.5449 768.159 32.9526C764.292 29.2221 762.358 24.6626 762.358 19.2742C762.358 13.7475 764.292 9.18805 768.159 5.59573C772.164 1.86524 777.275 0 783.49 0C789.567 0 794.539 1.86524 798.406 5.59573C802.412 9.18805 804.414 13.7475 804.414 19.2742C804.414 24.6626 802.412 29.2221 798.406 32.9526C794.539 36.5449 789.567 38.3411 783.49 38.3411ZM801.1 50.3615V166.007H765.673V50.3615H801.1Z" fill="white"/>
<path d="M870.694 48.7035C878.843 48.7035 885.956 50.3615 892.033 53.6775C898.248 56.9935 903.013 61.3457 906.328 66.7342V50.3615H941.755V165.799C941.755 176.438 939.614 186.041 935.333 194.607C931.189 203.311 924.767 210.22 916.065 215.332C907.502 220.444 896.798 223 883.953 223C866.827 223 852.946 218.924 842.311 210.772C831.676 202.759 825.599 191.844 824.08 178.027H859.092C860.197 182.448 862.822 185.902 866.965 188.389C871.109 191.015 876.219 192.327 882.296 192.327C889.616 192.327 895.417 190.186 899.699 185.902C904.118 181.757 906.328 175.056 906.328 165.799V149.427C902.875 154.815 898.11 159.236 892.033 162.691C885.956 166.007 878.843 167.665 870.694 167.665C861.164 167.665 852.532 165.247 844.797 160.411C837.063 155.437 830.917 148.459 826.359 139.479C821.939 130.36 819.729 119.859 819.729 107.977C819.729 96.0945 821.939 85.663 826.359 76.6822C830.917 67.7014 837.063 60.7931 844.797 55.9573C852.532 51.1214 861.164 48.7035 870.694 48.7035ZM906.328 108.184C906.328 99.3414 903.842 92.364 898.87 87.2519C894.036 82.1397 888.097 79.5836 881.053 79.5836C874.009 79.5836 868.001 82.1397 863.029 87.2519C858.195 92.2258 855.778 99.1341 855.778 107.977C855.778 116.819 858.195 123.866 863.029 129.116C868.001 134.228 874.009 136.784 881.053 136.784C888.097 136.784 894.036 134.228 898.87 129.116C903.842 124.004 906.328 117.027 906.328 108.184Z" fill="white"/>
<path d="M1038.45 49.118C1051.71 49.118 1062.34 53.5394 1070.35 62.382C1078.36 71.0864 1082.37 83.1069 1082.37 98.4433V166.007H1047.15V103.21C1047.15 95.4727 1045.14 89.4625 1041.14 85.1794C1037.13 80.8962 1031.75 78.7547 1024.98 78.7547C1018.21 78.7547 1012.83 80.8962 1008.82 85.1794C1004.81 89.4625 1002.81 95.4727 1002.81 103.21V166.007H967.385V12.6422H1002.81V65.9052C1006.4 60.7931 1011.31 56.7172 1017.52 53.6775C1023.74 50.6379 1030.71 49.118 1038.45 49.118Z" fill="white"/>
<path d="M1171.42 135.955V166.007H1153.39C1140.55 166.007 1130.53 162.898 1123.35 156.68C1116.17 150.325 1112.58 140.031 1112.58 125.8V79.7909H1098.49V50.3615H1112.58V22.1757H1148.01V50.3615H1171.21V79.7909H1148.01V126.215C1148.01 129.669 1148.83 132.156 1150.49 133.676C1152.15 135.195 1154.91 135.955 1158.78 135.955H1171.42Z" fill="white"/>
<path d="M1238.18 167.665C1228.1 167.665 1219.12 165.937 1211.25 162.483C1203.37 159.029 1197.16 154.331 1192.6 148.39C1188.04 142.311 1185.49 135.541 1184.93 128.08H1219.95C1220.36 132.087 1222.23 135.334 1225.54 137.821C1228.86 140.308 1232.93 141.551 1237.76 141.551C1242.18 141.551 1245.57 140.722 1247.92 139.064C1250.4 137.268 1251.64 134.988 1251.64 132.225C1251.64 128.909 1249.92 126.491 1246.47 124.971C1243.01 123.313 1237.42 121.517 1229.68 119.583C1221.4 117.648 1214.49 115.645 1208.97 113.573C1203.44 111.362 1198.68 107.977 1194.67 103.417C1190.67 98.7196 1188.66 92.4331 1188.66 84.5576C1188.66 77.9257 1190.46 71.9154 1194.05 66.527C1197.78 61.0003 1203.17 56.6481 1210.21 53.4703C1217.39 50.2924 1225.89 48.7035 1235.69 48.7035C1250.19 48.7035 1261.59 52.2959 1269.88 59.4805C1278.3 66.6651 1283.14 76.1986 1284.38 88.0809H1251.64C1251.09 84.074 1249.3 80.8962 1246.26 78.5474C1243.36 76.1986 1239.49 75.0242 1234.66 75.0242C1230.51 75.0242 1227.34 75.8532 1225.13 77.5112C1222.92 79.031 1221.81 81.1726 1221.81 83.9359C1221.81 87.2519 1223.54 89.7389 1226.99 91.3968C1230.58 93.0548 1236.11 94.7128 1243.57 96.3708C1252.13 98.5815 1259.1 100.792 1264.49 103.003C1269.88 105.075 1274.57 108.529 1278.58 113.365C1282.72 118.063 1284.86 124.419 1285 132.432C1285 139.202 1283.07 145.282 1279.2 150.67C1275.47 155.92 1270.01 160.065 1262.83 163.105C1255.79 166.145 1247.57 167.665 1238.18 167.665Z" fill="white"/>
</g>
</svg>
