<svg width="1191" height="155" viewBox="0 0 1191 155" fill="none" xmlns="http://www.w3.org/2000/svg">
<style>
  @keyframes dash {
    to {
      stroke-dashoffset: 0;
    }
  }
   path {
    stroke-dasharray: 1500;
    stroke-dashoffset: 1500;
    animation: dash 8s cubic-bezier(0.4, 0.0, 0.2, 1) infinite, colorChange 8s ease-in-out alternate infinite;
  }
</style>
<path d="M559.252 152C557.144 151.983 555.039 151.791 552.953 151.426C520.754 146.025 501.818 114.015 483.507 83.0539C467.447 55.902 452.277 30.2503 429.741 26.3894C413.776 23.6352 407.421 50.2208 403.618 66.1023L403.096 68.2681C400.313 79.7628 395.571 87.7569 389.004 91.9856C381.951 96.5416 372.829 96.7364 361.894 92.5629C352.249 88.8858 343.082 75.6261 332.468 60.2741C318.107 39.4983 301.831 15.9537 282.469 15.9279C280.252 15.9279 278.712 16.6303 277.758 18.079C274.277 23.3667 277.132 38.3768 279.884 52.8904C283.709 73.019 287.667 93.8315 279.304 104.028C269.517 115.968 259.065 104.602 248.017 92.5703C238.33 82.0353 227.361 70.1177 214.701 70.1177H0V64.2343H214.701C229.211 64.2343 240.915 76.9645 251.243 88.1982C262.786 100.756 269.617 107.488 275.847 99.8914C282.321 92.0003 278.505 71.9453 275.14 54.2178C271.847 36.8912 269.001 21.9253 273.943 14.4203C275.851 11.5227 278.715 10.0519 282.448 10.0519H282.469C304.097 10.0813 321.147 34.7438 336.189 56.505C345.91 70.5406 355.059 83.8003 363.349 86.959C372.993 90.6361 380.851 90.5809 386.708 86.8009C392.081 83.3297 396.024 76.5417 398.427 66.6208L398.943 64.4697C402.913 47.9226 410.301 17.1304 430.419 20.5795C455.002 24.7935 470.758 51.4379 487.441 79.6452C505.153 109.592 523.467 140.56 553.603 145.613C561.358 146.911 566.36 145.786 568.456 142.263C573.547 133.721 563.857 109.978 555.313 89.0329C545.896 65.9442 536.996 44.1425 541.695 32.3647C543.253 28.4596 546.139 25.9334 550.27 24.8597L550.437 24.8192C565.741 22.2121 587.119 43.7601 609.737 66.6061C628.953 86.0103 648.813 106.117 660.423 104.793C661.608 104.685 662.761 104.281 663.81 103.606C664.859 102.931 665.782 102.001 666.519 100.873C675.523 87.7459 667.986 72.1696 660.007 55.6777C651.459 38.0275 642.622 19.7485 657.236 5.66874C676.443 -12.8162 702.229 17.1487 729.531 48.8713C754.889 78.3324 781.11 108.808 799.587 95.7767C807.695 90.0662 805.462 69.614 803.667 53.1846C802.039 38.2702 800.751 26.4923 805.96 22.6644C809.353 20.175 814.162 21.8738 821.571 28.1801C833.906 36.9317 844.474 54.9202 854.68 72.3056C869.713 97.8984 883.911 122.076 901.535 115.096C915.277 109.662 918.719 98.6743 922.048 88.0511C925.721 76.3284 929.521 64.2049 947.114 64.2049H1206V70.0883H947.148C932.908 70.0883 930.274 78.4979 926.626 90.1397C923.242 100.939 919.032 114.379 903.078 120.693C900.601 121.692 898.008 122.208 895.396 122.223C878.082 122.223 864.212 98.6302 850.744 75.7143C840.798 58.7995 830.513 41.2707 819.046 33.1847L818.87 33.0486C811.091 26.4298 808.846 27.4263 808.488 27.6947C806 29.5333 807.443 42.7415 808.488 52.3977C810.574 71.5187 812.941 93.166 802.036 100.847C798.387 103.442 794.229 104.796 789.998 104.767C770.642 104.767 748.1 78.5788 726.169 53.1C700.44 23.2086 676.139 -5.02065 660.253 10.2578C649.697 20.414 654.7 33.056 664.202 52.6735C672.282 69.375 681.44 88.3048 670.259 104.602C669.115 106.327 667.692 107.752 666.078 108.787C664.463 109.823 662.691 110.449 660.869 110.625C660.383 110.676 659.888 110.706 659.387 110.706C645.848 110.706 626.778 91.4451 606.627 71.0922C585.862 50.1326 564.404 28.4375 551.212 30.6033C548.633 31.2946 546.959 32.6993 546.075 34.8946C542.409 44.0874 551.58 66.562 559.672 86.3964C569.717 111.011 579.203 134.262 572.402 145.675C569.899 149.911 565.568 152 559.252 152Z" stroke="url(#paint0_linear_8_447)" stroke-width="3.91132"/>
<path d="M559.252 152C557.144 151.983 555.039 151.791 552.953 151.426C520.754 146.025 501.818 114.015 483.507 83.0539C467.447 55.902 452.277 30.2503 429.741 26.3894C413.776 23.6352 407.421 50.2208 403.618 66.1023L403.096 68.2681C400.313 79.7628 395.571 87.7569 389.004 91.9856C381.951 96.5416 372.829 96.7364 361.894 92.5629C352.249 88.8858 343.082 75.6261 332.468 60.2741C318.107 39.4983 301.831 15.9537 282.469 15.9279C280.252 15.9279 278.712 16.6303 277.758 18.079C274.277 23.3667 277.132 38.3768 279.884 52.8904C283.709 73.019 287.667 93.8315 279.304 104.028C269.517 115.968 259.065 104.602 248.017 92.5703C238.33 82.0353 227.361 70.1177 214.701 70.1177H0V64.2343H214.701C229.211 64.2343 240.915 76.9645 251.243 88.1982C262.786 100.756 269.617 107.488 275.847 99.8914C282.321 92.0003 278.505 71.9453 275.14 54.2178C271.847 36.8912 269.001 21.9253 273.943 14.4203C275.851 11.5227 278.715 10.0519 282.448 10.0519H282.469C304.097 10.0813 321.147 34.7438 336.189 56.505C345.91 70.5406 355.059 83.8003 363.349 86.959C372.993 90.6361 380.851 90.5809 386.708 86.8009C392.081 83.3297 396.024 76.5417 398.427 66.6208L398.943 64.4697C402.913 47.9226 410.301 17.1304 430.419 20.5795C455.002 24.7935 470.758 51.4379 487.441 79.6452C505.153 109.592 523.467 140.56 553.603 145.613C561.358 146.911 566.36 145.786 568.456 142.263C573.547 133.721 563.857 109.978 555.313 89.0329C545.896 65.9442 536.996 44.1425 541.695 32.3647C543.253 28.4596 546.139 25.9334 550.27 24.8597L550.437 24.8192C565.741 22.2121 587.119 43.7601 609.737 66.6061C628.953 86.0103 648.813 106.117 660.423 104.793C661.608 104.685 662.761 104.281 663.81 103.606C664.859 102.931 665.782 102.001 666.519 100.873C675.523 87.7459 667.986 72.1696 660.007 55.6777C651.459 38.0275 642.622 19.7485 657.236 5.66874C676.443 -12.8162 702.229 17.1487 729.531 48.8713C754.889 78.3324 781.11 108.808 799.587 95.7767C807.695 90.0662 805.462 69.614 803.667 53.1846C802.039 38.2702 800.751 26.4923 805.96 22.6644C809.353 20.175 814.162 21.8738 821.571 28.1801C833.906 36.9317 844.474 54.9202 854.68 72.3056C869.713 97.8984 883.911 122.076 901.535 115.096C915.277 109.662 918.719 98.6743 922.048 88.0511C925.721 76.3284 929.521 64.2049 947.114 64.2049H1206V70.0883H947.148C932.908 70.0883 930.274 78.4979 926.626 90.1397C923.242 100.939 919.032 114.379 903.078 120.693C900.601 121.692 898.008 122.208 895.396 122.223C878.082 122.223 864.212 98.6302 850.744 75.7143C840.798 58.7995 830.513 41.2707 819.046 33.1847L818.87 33.0486C811.091 26.4298 808.846 27.4263 808.488 27.6947C806 29.5333 807.443 42.7415 808.488 52.3977C810.574 71.5187 812.941 93.166 802.036 100.847C798.387 103.442 794.229 104.796 789.998 104.767C770.642 104.767 748.1 78.5788 726.169 53.1C700.44 23.2086 676.139 -5.02065 660.253 10.2578C649.697 20.414 654.7 33.056 664.202 52.6735C672.282 69.375 681.44 88.3048 670.259 104.602C669.115 106.327 667.692 107.752 666.078 108.787C664.463 109.823 662.691 110.449 660.869 110.625C660.383 110.676 659.888 110.706 659.387 110.706C645.848 110.706 626.778 91.4451 606.627 71.0922C585.862 50.1326 564.404 28.4375 551.212 30.6033C548.633 31.2946 546.959 32.6993 546.075 34.8946C542.409 44.0874 551.58 66.562 559.672 86.3964C569.717 111.011 579.203 134.262 572.402 145.675C569.899 149.911 565.568 152 559.252 152Z" opacity=".5" stroke="#C15DFF" stroke-width="3.91132" fill="url(#paint0_linear_8_447)"/>
<defs>
<linearGradient id="paint0_linear_8_447" x1="0" y1="76.0012" x2="1206.03" y2="76.0012" gradientUnits="userSpaceOnUse">
<stop stop-color="#EBF3FF"/>
<stop offset="0.28" stop-color="#E3FEFD"/>
<stop offset="0.65" stop-color="#EBF2FF"/>
<stop offset="1" stop-color="#E9F0FF"/>
</linearGradient>
</defs>
</svg>
