<svg width="383" height="383" viewBox="0 0 383 383" fill="none" xmlns="http://www.w3.org/2000/svg">
<g clip-path="url(#clip0_21_5906)">
<path d="M355.846 27.1755C322.503 -6.16788 267.725 -6.16788 234.381 27.1755L129.588 129.587C96.2442 165.312 96.2442 217.709 129.588 253.434C131.969 255.816 136.733 258.198 139.114 260.579L174.839 224.854C172.458 222.473 167.694 220.091 165.313 217.709C151.023 203.419 151.023 179.603 165.313 165.312L270.106 60.5189C284.396 46.2289 308.213 46.2289 322.503 60.5189C336.793 74.809 336.793 98.6257 322.503 112.916L291.541 143.877C301.068 162.931 303.45 184.366 301.068 203.419L355.846 148.641C391.572 115.297 391.572 60.5189 355.846 27.1755Z" fill="white"/>
<path d="M243.906 122.441L208.181 158.166C208.181 158.166 215.326 162.93 217.707 165.312C231.997 179.602 231.997 203.418 217.707 217.708L112.914 322.502C98.6237 336.792 74.807 336.792 60.517 322.502C46.2269 308.212 46.2269 284.395 60.517 270.105L91.4787 239.143C81.952 220.09 89.097 208.182 81.952 179.602L27.1736 234.38C-6.16984 267.723 -6.16984 322.502 27.1736 355.845C60.517 389.189 115.295 389.189 148.639 355.845L253.432 251.052C286.776 217.708 286.776 162.93 253.432 129.586C248.669 127.205 243.906 122.441 243.906 122.441Z" fill="white"/>
</g>
<defs>
<clipPath id="clip0_21_5906">
<rect width="381.067" height="381.067" fill="white" transform="translate(0.974609 0.976562)"/>
</clipPath>
</defs>
</svg>
