<svg width="915" height="253" viewBox="0 0 915 253" fill="none" xmlns="http://www.w3.org/2000/svg">
<style>
   path {
    stroke-dasharray: 1500;
    stroke-dashoffset: 1500;
    animation: dash 8s cubic-bezier(0.4, 0.0, 0.2, 1) infinite, colorChange 8s ease-in-out alternate infinite;
  }

  @keyframes dash {
    to {
      stroke-dashoffset: 0;
    }
  }
</style><g style="mix-blend-mode:lighten" opacity="0.2">
<path d="M223.162 30.9605L145.118 250.498H78.0441L0 30.9605H57.0443L111.581 196.708L166.431 30.9605H223.162Z" fill="white"/>
<path d="M272.518 57.8554C263.115 57.8554 255.383 55.145 249.324 49.7244C243.473 44.0952 240.548 37.2151 240.548 29.0841C240.548 20.7446 243.473 13.8645 249.324 8.44377C255.383 2.8146 263.115 0 272.518 0C281.712 0 289.234 2.8146 295.085 8.44377C301.144 13.8645 304.174 20.7446 304.174 29.0841C304.174 37.2151 301.144 44.0952 295.085 49.7244C289.234 55.145 281.712 57.8554 272.518 57.8554ZM299.159 75.9939V250.498H245.563V75.9939H299.159Z" fill="white"/>
<path d="M327.343 162.933C327.343 145.003 330.687 129.262 337.373 115.711C344.269 102.159 353.567 91.7347 365.268 84.4376C376.97 77.1405 390.029 73.492 404.447 73.492C415.94 73.492 426.387 75.8896 435.79 80.6848C445.402 85.48 452.924 91.9432 458.357 100.074V19.0767H511.954V250.498H458.357V225.48C453.342 233.819 446.133 240.491 436.73 245.494C427.536 250.498 416.775 253 404.447 253C390.029 253 376.97 249.351 365.268 242.054C353.567 234.549 344.269 224.02 337.373 210.468C330.687 196.708 327.343 180.863 327.343 162.933ZM458.357 163.246C458.357 149.903 454.596 139.374 447.074 131.66C439.76 123.946 430.775 120.089 420.119 120.089C409.462 120.089 400.372 123.946 392.85 131.66C385.537 139.166 381.88 149.59 381.88 162.933C381.88 176.277 385.537 186.909 392.85 194.832C400.372 202.546 409.462 206.403 420.119 206.403C430.775 206.403 439.76 202.546 447.074 194.832C454.596 187.118 458.357 176.589 458.357 163.246Z" fill="white"/>
<path d="M715.593 160.431C715.593 165.435 715.279 170.647 714.652 176.068H593.355C594.191 186.909 597.638 195.249 603.698 201.087C609.967 206.716 617.593 209.53 626.578 209.53C639.951 209.53 649.25 203.901 654.474 192.643H711.518C708.593 204.11 703.264 214.43 695.533 223.603C688.011 232.777 678.503 239.969 667.011 245.182C655.518 250.394 642.668 253 628.459 253C611.325 253 596.071 249.351 582.698 242.054C569.325 234.757 558.877 224.333 551.355 210.781C543.833 197.23 540.072 181.384 540.072 163.246C540.072 145.108 543.728 129.262 551.042 115.711C558.564 102.159 569.012 91.7347 582.385 84.4376C595.758 77.1405 611.116 73.492 628.459 73.492C645.384 73.492 660.429 77.0363 673.593 84.1249C686.757 91.2134 696.996 101.325 704.309 114.46C711.831 127.595 715.593 142.918 715.593 160.431ZM660.742 146.358C660.742 137.185 657.608 129.888 651.339 124.467C645.071 119.047 637.235 116.336 627.832 116.336C618.847 116.336 611.22 118.942 604.952 124.155C598.892 129.367 595.131 136.768 593.668 146.358H660.742Z" fill="white"/>
<path d="M823.478 253C806.344 253 790.882 249.351 777.091 242.054C763.509 234.757 752.748 224.333 744.808 210.781C737.076 197.23 733.211 181.384 733.211 163.246C733.211 145.316 737.181 129.575 745.121 116.024C753.061 102.263 763.927 91.7347 777.718 84.4376C791.509 77.1405 806.971 73.492 824.105 73.492C841.24 73.492 856.702 77.1405 870.493 84.4376C884.284 91.7347 895.149 102.263 903.09 116.024C911.03 129.575 915 145.316 915 163.246C915 181.176 910.925 197.021 902.776 210.781C894.836 224.333 883.866 234.757 869.866 242.054C856.075 249.351 840.613 253 823.478 253ZM823.478 206.716C833.717 206.716 842.389 202.963 849.493 195.457C856.807 187.952 860.463 177.215 860.463 163.246C860.463 149.277 856.911 138.54 849.807 131.035C842.911 123.529 834.344 119.776 824.105 119.776C813.658 119.776 804.986 123.529 798.091 131.035C791.195 138.332 787.747 149.069 787.747 163.246C787.747 177.215 791.091 187.952 797.777 195.457C804.673 202.963 813.24 206.716 823.478 206.716Z" fill="white"/>
</g>
</svg>
